<?xml version="1.0" encoding="utf-8"?>
<!-- Generator: Adobe Illustrator 25.4.1, SVG Export Plug-In . SVG Version: 6.00 Build 0)  -->
<svg version="1.1" id="Capa_1" xmlns="http://www.w3.org/2000/svg" xmlns:xlink="http://www.w3.org/1999/xlink" x="0px" y="0px"
	 viewBox="0 0 277.6 140.3" style="enable-background:new 0 0 277.6 140.3;" xml:space="preserve">
<style type="text/css">
	.st0{fill:#24356B;}
	.st1{fill:#FFFFFF;}
	.st2{fill:#FFFFFD;}
	.st3{fill:#22356B;}
	.st4{font-family:'ISOCPEUR';}
	.st5{font-size:23.1035px;}
</style>
<g>
	<g>
		<g>
			<path class="st0" d="M204.6,109.8H54.9C24.6,109.8,0,85.2,0,54.9l0,0C0,24.6,24.6,0,54.9,0h149.7c30.3,0,54.9,24.6,54.9,54.9l0,0
				C259.5,85.2,234.9,109.8,204.6,109.8z"/>
		</g>
		<g>
			<polygon class="st1" points="218.6,78.5 269.4,98.3 256.6,107.9 272.8,124.3 265.2,132.3 248.8,115.9 239,127.1 			"/>
			<path class="st1" d="M265.2,133.8c-0.4,0-0.8-0.2-1.1-0.4l-15.3-15.3l-8.7,10c-0.3,0.4-0.9,0.6-1.4,0.5s-0.9-0.4-1.1-0.9
				l-20.4-48.6c-0.2-0.6-0.1-1.2,0.3-1.6c0.4-0.4,1.1-0.6,1.6-0.4l50.8,19.8c0.5,0.2,0.9,0.7,0.9,1.2c0.1,0.5-0.2,1.1-0.6,1.4
				l-11.4,8.6l15,15.2c0.6,0.6,0.6,1.5,0,2.1l-7.6,8C266,133.6,265.6,133.8,265.2,133.8L265.2,133.8z M248.8,114.4
				c0.4,0,0.8,0.2,1.1,0.4l15.3,15.3l5.5-5.8L255.5,109c-0.3-0.3-0.5-0.7-0.4-1.2c0-0.4,0.2-0.8,0.6-1.1l10.6-8l-45-17.5l18.1,43.1
				l8.2-9.4C247.9,114.6,248.3,114.4,248.8,114.4L248.8,114.4z"/>
		</g>
		<g>
			<polygon class="st1" points="221.8,79 272.6,98.7 259.8,108.4 276,124.8 268.3,132.8 251.9,116.4 242.1,127.6 			"/>
			<path class="st0" d="M268.3,134.3c-0.4,0-0.8-0.2-1.1-0.4L252,118.6l-8.7,10c-0.3,0.4-0.9,0.6-1.4,0.5s-0.9-0.4-1.1-0.9
				l-20.3-48.6c-0.2-0.6-0.1-1.2,0.3-1.6c0.4-0.4,1.1-0.6,1.6-0.4l50.8,19.7c0.5,0.2,0.9,0.7,0.9,1.2c0.1,0.5-0.1,1.1-0.6,1.4
				l-11.4,8.7l15,15.2c0.6,0.6,0.6,1.5,0,2.1l-7.7,8C269.1,134.1,268.7,134.3,268.3,134.3L268.3,134.3z M251.9,114.9
				c0.4,0,0.8,0.2,1.1,0.4l15.3,15.3l5.6-5.8l-15.2-15.4c-0.3-0.3-0.5-0.7-0.4-1.2s0.2-0.8,0.6-1.1l10.7-8.1l-45-17.5l18,43.1
				l8.2-9.4C251,115.1,251.4,114.9,251.9,114.9L251.9,114.9z"/>
		</g>
	</g>
	<g>
		<path class="st2" d="M47.2,32.1v3.6c0,6.3-4.1,5.2-4.5,9v2.3c0,1,0.1,1.8,1.3,1.8c1.2,0,1.3-0.9,1.3-1.8v-4.8h6.3v4.6
			c0,4.4-3.8,6.1-7.8,6.1c-4.7,0-7.5-1.9-7.5-6.2V45c0-6.2,4.4-5.2,4.6-9.6v-3.2H47.2z M47.2,23.6v6.8h-6.3v-6.8H47.2z"/>
		<path class="st2" d="M54,19h9.3l4.3,21h0.1V19H73v28.8h-8.6l-5-24.1h-0.1v24.1H54V19z"/>
		<path class="st2" d="M74.4,47.8V19h13.9v4.4h-7.2v6.3h7V34h-7v9.4h7.2v4.4H74.4z"/>
		<path class="st2" d="M106.5,36.6v3.8c0,5.4-2.9,8-8.5,8c-4.5,0-8.5-1.8-8.5-8.4V26.8c0-6.6,4-8.4,8.5-8.4c4.9,0,8.5,1.5,8.5,7.7
			v3.2h-6.7v-4c0-1.2-0.4-2.3-1.8-2.3c-1.4,0-1.7,1.1-1.7,2.3v16.2c0,1.2,0.4,2.3,1.7,2.3c1.5,0,1.8-1.1,1.8-2.3l0-4.9H106.5z"/>
		<path class="st2" d="M108.2,47.8V19h13.9v4.4h-7.2v6.3h7V34h-7v9.4h7.2v4.4H108.2z"/>
		<path class="st2" d="M133.6,29.3v-4c0-1.4-0.4-2.2-1.8-2.2c-1.5,0-1.8,0.8-1.8,2.2c0,4.9,10.3,6.3,10.3,15.2
			c0,5.4-2.9,7.9-8.5,7.9c-4.3,0-8.5-1.5-8.5-6.4v-5.3h6.7v5c0,1.7,0.5,2.2,1.8,2.2c1.1,0,1.8-0.5,1.8-2.2c0-6.5-10.3-6.6-10.3-16
			c0-5.2,3.4-7.2,8.6-7.2c4.5,0,8.4,1.5,8.4,6.4v4.5H133.6z"/>
		<path class="st2" d="M141.9,47.8V19h6.7v28.8H141.9z"/>
		<path class="st2" d="M150,23.4V19h16.1v4.4h-4.7v24.5h-6.7V23.4H150z"/>
		<path class="st2" d="M177.5,19l3.7,28.8h-6.7l-0.8-7.1h-3.6l-1.1,7.1h-5.7l4.9-28.8H177.5z M173.3,36.4l-1.2-12.8h-0.1l-1.2,12.8
			H173.3z"/>
		<path class="st2" d="M192.9,29.3v-4c0-1.4-0.4-2.2-1.8-2.2c-1.5,0-1.8,0.8-1.8,2.2c0,4.9,10.3,6.3,10.3,15.2
			c0,5.4-2.9,7.9-8.5,7.9c-4.3,0-8.5-1.5-8.5-6.4v-5.3h6.7v5c0,1.7,0.5,2.2,1.8,2.2c1.1,0,1.8-0.5,1.8-2.2c0-6.5-10.3-6.6-10.3-16
			c0-5.2,3.4-7.2,8.6-7.2c4.5,0,8.4,1.5,8.4,6.4v4.5H192.9z"/>
		<path class="st2" d="M35.5,60h6.9c7.5,0,10.1,1.2,10.1,9.8v10.3c0,5.5-1.6,8.7-10.1,8.7h-6.9V60z M42.2,84.7c3.3,0,3.6-1.3,3.6-4
			V68.8c0-3.8-0.2-4.7-3.6-4.7V84.7z"/>
		<path class="st2" d="M54.1,88.8V60h6.7v28.8H54.1z"/>
		<path class="st2" d="M75.2,87.4c-0.7,0.8-1.7,1.3-2.8,1.6c-1,0.3-2.1,0.4-3.1,0.4c-4.4,0-6.9-1.8-6.9-8.4V67.8
			c0-6.6,4-8.4,8.5-8.4c5.4,0,8.5,2.2,8.5,7.9l0,3h-6.7v-4c0-1.2-0.4-2.3-1.8-2.3s-1.8,1.1-1.8,2.3v16.2c0,1.2,0.3,2.3,1.8,2.3
			c1.4,0,1.8-1.1,1.8-2.3v-3.8h-2.6v-4.4h9.3v14.5h-3.9L75.2,87.4z"/>
		<path class="st2" d="M81.2,88.8V60h6.7v28.8H81.2z"/>
		<path class="st2" d="M89.3,64.4V60h16.1v4.4h-4.7v24.5H94V64.4H89.3z"/>
		<path class="st2" d="M116.8,60l3.7,28.8h-6.7l-0.8-7.1h-3.6l-1.1,7.1h-5.7l4.9-28.8H116.8z M112.6,77.4l-1.2-12.8h-0.1l-1.2,12.8
			H112.6z"/>
		<path class="st2" d="M121.8,88.8V60h6.7v24.5h7.3v4.4H121.8z"/>
		<path class="st2" d="M136.7,88.8V60h6.7v28.8H136.7z"/>
		<path class="st2" d="M144.4,88.8v-4.9l7.5-19.5h-7.5V60H159v4.3l-7.9,20.2h7.9v4.4H144.4z"/>
		<path class="st2" d="M173.8,60l3.7,28.8h-6.7l-0.8-7.1h-3.6l-1.1,7.1h-5.7l4.9-28.8H173.8z M169.6,77.4l-1.2-12.8h-0.1l-1.2,12.8
			H169.6z"/>
		<path class="st2" d="M178.8,88.8V60h6.8c6.4,0,10.2,0.6,10.2,6.7c0,3.6-1.5,6-5.1,6.6v0.1c3.2,0.1,5.1,1.3,5.1,5.4v6
			c0,1.1,0.2,2.8,1,4H190c-0.8-1.2-1-2.9-1-4v-6.1c0-2-1.2-3-2.4-3h-1.1v13.2H178.8z M185.5,71.5c3,0,3.5-1,3.5-3.7
			c0-2.7-0.4-3.7-3.5-3.7V71.5z"/>
		<path class="st2" d="M203,80.3v-3.6c0-6.3,4.1-5.2,4.5-9v-2.3c0-1-0.1-1.8-1.3-1.8c-1.2,0-1.3,0.9-1.3,1.8v4.8h-6.3v-4.6
			c0-4.4,3.8-6.1,7.8-6.1c4.7,0,7.5,1.9,7.5,6.2v1.8c0,6.2-4.4,5.2-4.6,9.6v3.2H203z M203,88.8V82h6.3v6.8H203z"/>
	</g>
	<text transform="matrix(1 0 0 1 114.2 134.3)" class="st3 st4 st5">Click aqui</text>
</g>
</svg>
