<?xml version="1.0" encoding="utf-8"?>
<!-- Generator: Adobe Illustrator 25.4.1, SVG Export Plug-In . SVG Version: 6.00 Build 0)  -->
<svg version="1.1" id="Capa_1" xmlns="http://www.w3.org/2000/svg" xmlns:xlink="http://www.w3.org/1999/xlink" x="0px" y="0px"
	 viewBox="0 0 89.4 172.1" style="enable-background:new 0 0 89.4 172.1;" xml:space="preserve">
<style type="text/css">
	.st0{fill:#8F6E84;}
	.st1{fill:#221932;}
</style>
<g>
	<rect x="58.3" y="38.3" class="st0" width="3.1" height="33.1"/>
	<rect x="58.3" y="88.7" class="st0" width="3.1" height="25.3"/>
	<path class="st1" d="M89.4,8.8v14.9H70.3v5.7c0,4.4-3.6,7.9-7.9,7.9H49.1c-4.4,0-7.9-3.6-7.9-7.9v-5.7H22.1V8.8
		C22.1,3.9,26,0,30.8,0h49.8C85.4,0,89.4,3.9,89.4,8.8z"/>
	<path class="st1" d="M61.4,88.7v25.6H50V88.7h-5v30.6h21.4V88.7H61.4z M45,33.3v38.1h5V38.3h11.4v33.1h5V33.3H45z"/>
	<rect x="48.4" y="41" transform="matrix(0.9554 -0.2954 0.2954 0.9554 -9.9078 18.4313)" class="st1" width="15.3" height="2"/>
	<rect x="48.4" y="45.5" transform="matrix(0.9554 -0.2954 0.2954 0.9554 -11.2375 18.6309)" class="st1" width="15.3" height="2"/>
	<rect x="48.4" y="50" transform="matrix(0.9554 -0.2954 0.2954 0.9554 -12.5672 18.8305)" class="st1" width="15.3" height="2"/>
	<rect x="48.4" y="54.6" transform="matrix(0.9554 -0.2954 0.2954 0.9554 -13.9237 19.0431)" class="st1" width="15.3" height="2"/>
	<rect x="48.4" y="59.1" transform="matrix(0.9554 -0.2954 0.2954 0.9554 -15.2534 19.2427)" class="st1" width="15.3" height="2"/>
	<rect x="48.4" y="63.6" transform="matrix(0.9554 -0.2954 0.2954 0.9554 -16.583 19.4423)" class="st1" width="15.3" height="2"/>
	<polygon class="st1" points="63.7,90.4 61.4,91.1 58.3,92.1 52.7,93.8 50,94.6 49,94.9 48.7,93.8 48.5,93 50,92.5 58.3,90 61.4,89 
		62.4,88.7 63.1,88.7 	"/>
	<rect x="48.4" y="95.2" transform="matrix(0.9554 -0.2954 0.2954 0.9554 -25.9176 20.8525)" class="st1" width="15.3" height="2"/>
	<rect x="48.4" y="99.7" transform="matrix(0.9554 -0.2954 0.2954 0.9554 -27.2473 21.0521)" class="st1" width="15.3" height="2"/>
	
		<rect x="48.4" y="104.2" transform="matrix(0.9554 -0.2954 0.2954 0.9554 -28.5769 21.2517)" class="st1" width="15.3" height="2"/>
	
		<rect x="48.4" y="108.7" transform="matrix(0.9554 -0.2954 0.2954 0.9554 -29.9066 21.4513)" class="st1" width="15.3" height="2"/>
	<path class="st1" d="M77.3,127.3v1H34.9v-1c0-7.3,5.9-13.2,13.2-13.2h16C71.4,114.1,77.3,120,77.3,127.3z"/>
	<rect x="76.1" y="71.4" class="st0" width="8.8" height="17.4"/>
	<rect x="76.1" y="148.6" class="st0" width="8.8" height="18.5"/>
	<path class="st1" d="M50,88.7v5.1h2.7l5.6-1.7l3.1-1V89l1-0.3H50z M82.8,93.8c3.5,0,6.3-2.8,6.3-6.3V72.7c0-3.5-2.8-6.3-6.3-6.3
		H6.3c-3.5,0-6.3,2.8-6.3,6.3v93.1c0,3.5,2.8,6.3,6.3,6.3h76.5c3.5,0,6.3-2.9,6.3-6.2V150c0-3.5-2.8-6.3-6.3-6.3H28.2V93.8H82.8z
		 M82.8,148.6c0.7,0,1.3,0.6,1.3,1.3v15.9c0,0.7-0.6,1.3-1.3,1.3H6.3c-0.7,0-1.3-0.6-1.3-1.3V72.7c0-0.7,0.6-1.3,1.3-1.3h76.5
		c0.7,0,1.3,0.6,1.3,1.3v14.7c0,0.7-0.6,1.3-1.3,1.3H23.2v59.9H82.8z"/>
</g>
</svg>
