<?xml version="1.0" encoding="utf-8"?>
<!-- Generator: Adobe Illustrator 25.4.1, SVG Export Plug-In . SVG Version: 6.00 Build 0)  -->
<svg version="1.1" id="Capa_1" xmlns="http://www.w3.org/2000/svg" xmlns:xlink="http://www.w3.org/1999/xlink" x="0px" y="0px"
	 viewBox="0 0 89.4 172.1" style="enable-background:new 0 0 89.4 172.1;" xml:space="preserve">
<style type="text/css">
	.st0{fill:#EEF3F6;}
	.st1{fill:#8F939D;}
	.st2{fill:#FFFFFF;}
	.st3{fill:#221932;}
</style>
<g>
	<rect x="47.5" y="35.8" class="st0" width="16.4" height="81"/>
	<rect x="58.3" y="38.3" class="st1" width="3.1" height="75.7"/>
	<rect x="50" y="38.3" class="st2" width="3.1" height="75.7"/>
	<path class="st3" d="M89.4,8.8v14.9H70.3v5.7c0,4.4-3.6,7.9-7.9,7.9H49.1c-4.4,0-7.9-3.6-7.9-7.9v-5.7H22.1V8.8
		C22.1,3.9,26,0,30.8,0h49.8C85.4,0,89.4,3.9,89.4,8.8z"/>
	<path class="st3" d="M66.4,119.3H45v-86h21.4V119.3z M50,114.3h11.4v-76H50V114.3z"/>
	<rect x="48.4" y="41" transform="matrix(0.9554 -0.2954 0.2954 0.9554 -9.9071 18.4388)" class="st3" width="15.3" height="2"/>
	<rect x="48.4" y="45.5" transform="matrix(0.9554 -0.2954 0.2954 0.9554 -11.2406 18.6402)" class="st3" width="15.3" height="2"/>
	<rect x="48.4" y="50" transform="matrix(0.9554 -0.2954 0.2954 0.9554 -12.5741 18.8417)" class="st3" width="15.3" height="2"/>
	<rect x="48.4" y="54.6" transform="matrix(0.9554 -0.2954 0.2954 0.9554 -13.9076 19.0431)" class="st3" width="15.3" height="2"/>
	<rect x="48.4" y="59.1" transform="matrix(0.9554 -0.2954 0.2954 0.9554 -15.2411 19.2445)" class="st3" width="15.3" height="2"/>
	<rect x="48.4" y="63.6" transform="matrix(0.9554 -0.2954 0.2954 0.9554 -16.5745 19.4459)" class="st3" width="15.3" height="2"/>
	<rect x="48.4" y="90.7" transform="matrix(0.9554 -0.2954 0.2954 0.9554 -24.5754 20.6544)" class="st3" width="15.3" height="2"/>
	<rect x="48.4" y="95.2" transform="matrix(0.9554 -0.2954 0.2954 0.9554 -25.9089 20.8558)" class="st3" width="15.3" height="2"/>
	<rect x="48.4" y="99.7" transform="matrix(0.9554 -0.2954 0.2954 0.9554 -27.2424 21.0573)" class="st3" width="15.3" height="2"/>
	
		<rect x="48.4" y="104.2" transform="matrix(0.9554 -0.2954 0.2954 0.9554 -28.5759 21.2587)" class="st3" width="15.3" height="2"/>
	
		<rect x="48.4" y="108.7" transform="matrix(0.9554 -0.2954 0.2954 0.9554 -29.9094 21.4601)" class="st3" width="15.3" height="2"/>
	<path class="st3" d="M77.3,127.3v1H34.9v-1c0-7.3,5.9-13.2,13.2-13.2h16C71.4,114.1,77.3,120,77.3,127.3z"/>
	<path class="st0" d="M25.8,91.2v54.9h57.1c2.1,0,3.8,1.7,3.8,3.8v15.9c0,2.1-1.7,3.8-3.8,3.8H6.3c-2.1,0-3.8-1.7-3.8-3.8V72.7
		c0-2.1,1.7-3.8,3.8-3.8h76.5c2.1,0,3.8,1.7,3.8,3.8v14.8c0,2.1-1.7,3.8-3.8,3.8H25.8z"/>
	<rect x="5" y="71.4" class="st2" width="5.9" height="95.7"/>
	<rect x="76.1" y="71.4" class="st1" width="8.8" height="17.4"/>
	<rect x="76.1" y="148.6" class="st1" width="8.8" height="18.5"/>
	<path class="st3" d="M82.8,172.1H6.3c-3.5,0-6.3-2.8-6.3-6.3V72.7c0-3.5,2.8-6.3,6.3-6.3h76.5c3.5,0,6.3,2.8,6.3,6.3v14.8
		c0,3.5-2.8,6.3-6.3,6.3H28.2v49.9h54.6c3.5,0,6.3,2.8,6.3,6.3v15.9C89.1,169.2,86.3,172.1,82.8,172.1z M6.3,71.4
		C5.6,71.4,5,72,5,72.7v93.1c0,0.7,0.6,1.3,1.3,1.3h76.5c0.7,0,1.3-0.6,1.3-1.3v-15.9c0-0.7-0.6-1.3-1.3-1.3H23.2V88.7h59.6
		c0.7,0,1.3-0.6,1.3-1.3V72.7c0-0.7-0.6-1.3-1.3-1.3H6.3z"/>
</g>
</svg>
