<?xml version="1.0" encoding="utf-8"?>
<!-- Generator: Adobe Illustrator 25.4.1, SVG Export Plug-In . SVG Version: 6.00 Build 0)  -->
<svg version="1.1" id="Capa_1" xmlns="http://www.w3.org/2000/svg" xmlns:xlink="http://www.w3.org/1999/xlink" x="0px" y="0px"
	 viewBox="0 0 142.6 94.2" style="enable-background:new 0 0 142.6 94.2;" xml:space="preserve">
<style type="text/css">
	.st0{fill:#EEF3F6;}
	.st1{fill:#221932;}
	.st2{fill:none;}
	.st3{fill:#8F6E84;}
</style>
<polygon class="st0" points="3.4,10.7 27.2,4.1 65.4,3.1 88.3,11.9 87.7,13.6 106.8,18.4 115.4,18.4 132.8,12.9 135,13.6 
	136.6,15.5 136.6,73.7 119.4,80.7 108.3,80.7 89.7,77.6 88.8,82.5 87.5,84.3 66.2,90.8 38,90.8 12.7,87.5 2.4,81.7 "/>
<g>
	<g>
		<ellipse class="st1" cx="46" cy="14.3" rx="26.7" ry="5.1"/>
		<path class="st1" d="M46,20.4c-9.6,0-27.7-1.3-27.7-6.1S36.4,8.2,46,8.2s27.7,1.3,27.7,6.1C73.7,19.1,55.5,20.4,46,20.4z M46,10.2
			c-16.3,0-25.5,2.7-25.7,4.1c0.1,1.4,9.3,4.1,25.7,4.1c16.3,0,25.5-2.7,25.7-4.1C71.5,12.9,62.3,10.2,46,10.2z"/>
	</g>
	<g>
		<line class="st2" x1="59.3" y1="9.9" x2="59.3" y2="18.7"/>
		<rect x="58.3" y="9.9" class="st1" width="2" height="8.8"/>
	</g>
	<g>
		<line class="st2" x1="55" y1="9.9" x2="55" y2="18.7"/>
		<rect x="54" y="9.9" class="st1" width="2" height="8.8"/>
	</g>
	<g>
		<line class="st2" x1="50.6" y1="9.9" x2="50.6" y2="18.7"/>
		<rect x="49.6" y="9.9" class="st1" width="2" height="8.8"/>
	</g>
	<polygon class="st3" points="73.6,87.5 89.8,84.3 89.8,17.1 73.6,22.9 	"/>
	<path class="st1" d="M45.6,94.2C23.6,94.2,0,89.9,0,80.4V13.7h5v66.8c0,3,14.3,8.8,40.6,8.8s40.6-5.8,40.6-8.8V13.7h5v66.8
		C91.3,89.9,67.6,94.2,45.6,94.2z"/>
	<path class="st1" d="M91.3,13.7h-5c0-0.3-0.4-1-1.5-1.8c-5.7-4.1-21.7-7-39.1-7s-33.5,2.9-39.1,7c-1.1,0.8-1.5,1.5-1.5,1.8h-5
		c0-2.2,1.2-4.1,3.6-5.8C10.3,3.1,26.8,0,45.8,0c18.9,0,35.4,3.1,42.1,7.9C90.1,9.6,91.3,11.5,91.3,13.7z"/>
	<g>
		<path class="st1" d="M45.6,25.9c-21.4,0-44.1-4.3-44.1-12.3h2c0,4.9,17.3,10.3,42.1,10.3s42.1-5.4,42.1-10.3h2
			C89.8,21.6,67,25.9,45.6,25.9z"/>
	</g>
	<path class="st1" d="M109.6,82.5c-15.3,0-21.1-4.1-21.3-4.3l2.4-3.2c0.1,0,5.2,3.5,19,3.5c13.4,0,21.9-3.8,22.8-4.3l2.6-1.6
		l-5.6-3.5l5.6-3.5l-5.6-3.5l5.6-3.5l-5.6-3.5l5.6-3.5l-5.6-3.5l5.6-3.5l-5.6-3.5l5.6-3.5l-5.6-3.5l5.6-3.5l-5.6-3.5l5.6-3.5
		l-5.6-3.5l5.6-3.6l-1.8-1.2c-2.9,1.2-11.2,4.2-23.6,4.2c-15.3,0-21.1-4.1-21.3-4.3l2.4-3.2c0,0,5.2,3.5,19,3.5
		c14.1,0,22.8-4.3,22.9-4.3l1-0.5l8.8,5.9l-5.5,3.5l5.6,3.5l-5.6,3.5l5.6,3.5l-5.6,3.5l5.6,3.5l-5.6,3.5l5.6,3.5l-5.6,3.5l5.6,3.5
		l-5.6,3.5l5.6,3.5l-5.6,3.5l5.6,3.5l-5.6,3.5l5.5,3.5l-8.1,5.2C133.9,77.9,124.8,82.5,109.6,82.5z"/>
</g>
</svg>
