<?xml version="1.0" encoding="utf-8"?>
<!-- Generator: Adobe Illustrator 25.4.1, SVG Export Plug-In . SVG Version: 6.00 Build 0)  -->
<svg version="1.1" id="Capa_1" xmlns="http://www.w3.org/2000/svg" xmlns:xlink="http://www.w3.org/1999/xlink" x="0px" y="0px"
	 viewBox="0 0 155.1 170.5" style="enable-background:new 0 0 155.1 170.5;" xml:space="preserve">
<style type="text/css">
	.st0{fill:#8F6F83;}
	.st1{fill:#231A32;}
	.st2{fill:#FFFFFF;}
</style>
<g>
	<g>
		<rect x="5.3" y="16.1" class="st0" width="10.3" height="118.6"/>
		<path class="st1" d="M0,0v16.7h110.4V0H0z M4,12.7V4h102.4v8.7H4z"/>
		<path class="st1" d="M1.2,12.7v121.4c0,2.6,2.1,4.6,4.6,4.6h40.7v-4H5.9c-0.4,0-0.6-0.3-0.6-0.6V16.7h99.9v15.1h4V12.7H1.2z"/>
		<rect x="5.2" y="44.7" class="st1" width="41.4" height="74.7"/>
		<path class="st1" d="M46.6,58.8v-2h-45v51.1h45v-2h-43V58.8H46.6z"/>
		<path class="st1" d="M1,21v7.8h108.4V21H1z M107.4,26.8H3V23h104.4V26.8z"/>
		<rect x="3" y="23" class="st0" width="10.9" height="3.8"/>
		<rect x="22.2" y="61.1" class="st2" width="24.4" height="37.3"/>
	</g>
	<g>
		<rect x="49.9" y="47.9" class="st0" width="10.3" height="118.6"/>
		<path class="st1" d="M155.1,48.4H44.6V31.7h110.4V48.4z M48.6,44.4h102.4v-8.7H48.6V44.4z"/>
		<path class="st1" d="M149.2,170.5H50.5c-2.6,0-4.6-2.1-4.6-4.6V44.4h107.9v121.4C153.8,168.4,151.7,170.5,149.2,170.5z M49.9,48.4
			v117.4c0,0.4,0.3,0.6,0.6,0.6h98.6c0.4,0,0.6-0.3,0.6-0.6V48.4H49.9z"/>
		<rect x="49.9" y="76.4" class="st1" width="99.9" height="74.7"/>
		<path class="st1" d="M153.4,139.6H46.3V88.5h107.2V139.6z M48.3,137.6h103.2V90.5H48.3V137.6z"/>
		<path class="st1" d="M154.1,60.6H45.6v-7.8h108.4V60.6z M47.6,58.6h104.4v-3.8H47.6V58.6z"/>
		<rect x="47.6" y="54.8" class="st0" width="10.9" height="3.8"/>
		<rect x="66.9" y="92.8" class="st2" width="65.9" height="37.3"/>
	</g>
</g>
</svg>
