<?xml version="1.0" encoding="utf-8"?>
<!-- Generator: Adobe Illustrator 25.4.1, SVG Export Plug-In . SVG Version: 6.00 Build 0)  -->
<svg version="1.1" id="Capa_1" xmlns="http://www.w3.org/2000/svg" xmlns:xlink="http://www.w3.org/1999/xlink" x="0px" y="0px"
	 viewBox="0 0 77.4 239.2" style="enable-background:new 0 0 77.4 239.2;" xml:space="preserve">
<style type="text/css">
	.st0{fill:#8D929E;}
	.st1{fill:#6C7280;}
	.st2{fill:#8F6E84;}
	.st3{fill:#221932;}
	.st4{fill:#D34052;}
</style>
<g>
	<path class="st0" d="M43.7,22.1v5.2c0,1.9,1.1,3.6,2.9,4.4l16.9,7.2v180.6c0,5.2-2.1,10.2-5.9,13.8l-2.7,2.6h12l6.3-4.4l1.8-3.9
		l0.5-2.8L74.7,38.4l-3-3.3l-18.1-7.9l-0.7-5.6l-9.2-0.4V22.1z"/>
	<rect x="3.1" y="60.6" class="st1" width="10.5" height="48.3"/>
	<rect x="3.1" y="60.6" class="st2" width="71.6" height="48.3"/>
	<path class="st3" d="M68.5,31.1l-14.4-4.4v-8.2H23.3v8.2L8.9,31.1C3.6,32.7,0,37.6,0,43.1V224c0,8.4,6.8,15.2,15.2,15.2h47
		c8.4,0,15.2-6.8,15.2-15.2V43.1C77.4,37.6,73.8,32.7,68.5,31.1z M4.8,39.4h67.7c0.5,1.1,0.8,2.4,0.8,3.7V223H4V43.1
		C4,41.8,4.3,40.6,4.8,39.4z M50.1,22.5v3.3H27.3v-3.3H50.1z M10.1,34.9l17.3-5.3v-1.9h22.7v1.9l17.3,5.3c1.6,0.5,2.9,1.4,3.9,2.5
		H6.2C7.2,36.3,8.5,35.4,10.1,34.9z M62.2,235.2h-47c-5.8,0-10.6-4.5-11.1-10.2h69.3C72.9,230.7,68.1,235.2,62.2,235.2z"/>
	<g>
		<g>
			<rect x="23.4" y="2" class="st2" width="30.3" height="16"/>
			<path class="st3" d="M55.7,20H21.4V0h34.3V20z M25.4,16h26.3V4H25.4V16z"/>
		</g>
		<g>
			<line class="st4" x1="33.6" y1="2.2" x2="33.6" y2="17.6"/>
			<rect x="32.6" y="2.2" class="st3" width="2" height="15.4"/>
		</g>
		<g>
			<line class="st4" x1="39.5" y1="2.2" x2="39.5" y2="17.6"/>
			<rect x="38.5" y="2.2" class="st3" width="2" height="15.4"/>
		</g>
		<g>
			<line class="st4" x1="45.5" y1="2.2" x2="45.5" y2="17.6"/>
			<rect x="44.5" y="2.2" class="st3" width="2" height="15.4"/>
		</g>
	</g>
</g>
</svg>
