<?xml version="1.0" encoding="utf-8"?>
<!-- Generator: Adobe Illustrator 25.4.1, SVG Export Plug-In . SVG Version: 6.00 Build 0)  -->
<svg version="1.1" id="Capa_1" xmlns="http://www.w3.org/2000/svg" xmlns:xlink="http://www.w3.org/1999/xlink" x="0px" y="0px"
	 viewBox="0 0 263.2 57" style="enable-background:new 0 0 263.2 57;" xml:space="preserve">
<style type="text/css">
	.st0{fill:#929C99;}
	.st1{fill:#BCC1BF;}
	.st2{fill:#6A6D71;}
	.st3{fill:#EEF3F6;}
	.st4{fill:#EF5F60;}
	.st5{fill:#221932;}
	.st6{fill:#F4B661;}
	.st7{fill:#BA454B;}
</style>
<g>
	<polygon class="st0" points="219.1,9.5 27.2,9.5 27.2,5.4 206.1,5.4 	"/>
	<path class="st1" d="M248.9,53.1h-194V10.5h204.6v32.1C259.4,48.4,254.7,53.1,248.9,53.1z"/>
	<path class="st1" d="M238.7,53.1h-194V10.5h204.6v32.1C249.2,48.4,244.5,53.1,238.7,53.1z"/>
	<path class="st2" d="M259.6,10.5v32.1c0,5.8-4.7,10.6-10.6,10.6h-10.2c5.8,0,10.6-4.7,10.6-10.6V10.5H259.6z"/>
	<path class="st3" d="M75.6,10.5v32.1c0,5.8-4.7,10.6-10.6,10.6H54.8c5.8,0,10.6-4.7,10.6-10.6V10.5H75.6z"/>
	<g>
		<path class="st4" d="M65.2,10.5H35.1L11,2.9L3,13.4l19.4,34v7.1h28.6c4.7,0,9-2.7,11.1-7l3.2-6.5V10.5z"/>
		<path class="st5" d="M50.9,57H19.9v-8.9L0,13.2L10,0l25.4,8h32.2v33.6l-3.4,7C61.8,53.7,56.6,57,50.9,57z M24.9,52h26.1
			c3.7,0,7.2-2.2,8.9-5.5l2.9-6V13h-28L11.9,5.8L6,13.6l18.9,33.2V52z"/>
	</g>
	<g>
		<line class="st6" x1="65.2" y1="10.5" x2="260.7" y2="10.5"/>
		<rect x="65.2" y="9.5" class="st5" width="195.5" height="2"/>
	</g>
	<g>
		<line class="st6" x1="65.2" y1="41" x2="260.7" y2="41"/>
		<rect x="65.2" y="40" class="st5" width="195.5" height="2"/>
	</g>
	<g>
		<path class="st5" d="M248.7,57H49.4v-5h199.3c2.4,0,4.5-1.4,5.6-3.5l3.9-8.1V13h-28l-24.1-7.6H11v-5h195.9L230.9,8h32.2v33.6
			l-4.4,9.1C256.9,54.6,252.9,57,248.7,57z"/>
	</g>
	<polygon class="st7" points="206.1,5.4 206.1,9.5 218.8,9.4 	"/>
	<g>
		<line class="st5" x1="206.1" y1="5.4" x2="206.1" y2="9.9"/>
		<rect x="205.1" y="5.4" class="st5" width="2" height="4.5"/>
	</g>
</g>
</svg>
