<?xml version="1.0" encoding="utf-8"?>
<!-- Generator: Adobe Illustrator 25.4.1, SVG Export Plug-In . SVG Version: 6.00 Build 0)  -->
<svg version="1.1" id="Capa_1" xmlns="http://www.w3.org/2000/svg" xmlns:xlink="http://www.w3.org/1999/xlink" x="0px" y="0px"
	 viewBox="0 0 110.4 138.7" style="enable-background:new 0 0 110.4 138.7;" xml:space="preserve">
<style type="text/css">
	.st0{fill:#8F6E84;}
	.st1{fill:#221932;}
	.st2{fill:none;}
	.st3{fill:#929189;}
</style>
<rect x="5.3" y="16.1" class="st0" width="10.3" height="118.6"/>
<path class="st1" d="M110.4,16.7H0V0h110.4V16.7z M4,12.7h102.4V4H4V12.7z"/>
<rect x="5.3" y="57.8" class="st1" width="99.9" height="49.1"/>
<path class="st1" d="M1.3,12.7v121.4c0,2.5,2,4.6,4.6,4.6h98.6c2.6,0,4.7-2,4.7-4.6V12.7H1.3z M5.3,16.7h99.8v40.1H5.3V16.7z
	 M105.1,134.1c0,0.3-0.2,0.6-0.6,0.6H5.9c-0.3,0-0.6-0.2-0.6-0.6v-26.2h99.8V134.1z"/>
<path class="st1" d="M109.4,28.8H1V21h108.4V28.8z M3,26.8h104.4V23H3V26.8z"/>
<g>
	<g>
		<path class="st0" d="M77.1,16.1v14.7c0,2,1.6,3.6,3.6,3.6l0,0c1.8,0,3.4-1.4,3.5-3.2l0.3-3.4c0.2-1.8,1.7-3.2,3.5-3.2l0,0
			c2.1,0,3.7,1.7,3.7,3.7v12.1c0,2.7,2.2,5,5,5l0,0c2.7,0,5-2.2,5-5V16.6"/>
		<path class="st1" d="M96.8,47c-3.6,0-6.5-2.9-6.5-6.5V28.4c0-1.2-1-2.2-2.2-2.2c-1,0-1.9,0.8-2,1.8l-0.3,3.4
			c-0.3,2.6-2.4,4.6-5,4.6c-2.8,0-5.1-2.3-5.1-5.1V16.1h3v14.7c0,1.1,0.9,2,2,2c1,0,1.9-0.8,2-1.8l0.3-3.4c0.3-2.6,2.4-4.5,5-4.5
			c2.9,0,5.3,2.4,5.3,5.3v12.1c0,1.9,1.5,3.4,3.4,3.4s3.4-1.5,3.4-3.4V16.6h3v23.9C103.3,44.1,100.4,47,96.8,47z"/>
	</g>
	<g>
		<line class="st2" x1="98.4" y1="40.9" x2="98.4" y2="18.3"/>
		<path class="st3" d="M98.4,41.7c-0.4,0-0.8-0.3-0.8-0.8V18.3c0-0.4,0.3-0.8,0.8-0.8c0.4,0,0.8,0.3,0.8,0.8v22.6
			C99.1,41.4,98.8,41.7,98.4,41.7z"/>
	</g>
	<g>
		<path class="st3" d="M81.5,31.4c-0.4,0-0.8-0.3-0.8-0.8v-2.3c0-2.6,1.5-5.1,3.9-6.5l0.7-0.4c0.4-0.2,0.8-0.1,1,0.3s0.1,0.8-0.3,1
			L85.4,23c-1.9,1.1-3.1,3.1-3.1,5.2v2.4C82.3,31,82,31.4,81.5,31.4z"/>
	</g>
</g>
<rect x="3" y="23" class="st0" width="10.9" height="3.8"/>
</svg>
