<?xml version="1.0" encoding="utf-8"?>
<!-- Generator: Adobe Illustrator 25.4.1, SVG Export Plug-In . SVG Version: 6.00 Build 0)  -->
<svg version="1.1" id="Capa_1" xmlns="http://www.w3.org/2000/svg" xmlns:xlink="http://www.w3.org/1999/xlink" x="0px" y="0px"
	 viewBox="0 0 254.8 135.9" style="enable-background:new 0 0 254.8 135.9;" xml:space="preserve">
<style type="text/css">
	.st0{fill:#EEF3F6;}
	.st1{fill:#8F6E84;}
	.st2{fill:#221932;}
	.st3{fill:none;}
</style>
<g>
	<polygon class="st0" points="17.2,85.4 189,16.6 213.2,14.3 241,3.2 252.4,31.5 250.1,47 61.2,122.6 	"/>
	<path class="st1" d="M240,3.6l11.9,29.8c2.2,5.4-0.4,11.6-5.9,13.8l-9.5,3.8c5.4-2.2,8.1-8.3,5.9-13.8L230.5,7.4L240,3.6z"/>
	<g>
		<path class="st2" d="M59.5,75.9L31.6,87.1L6.4,89l-3.5,12.7L33.5,126l2.6,6.6L62.7,122c4.4-1.7,7.4-5.9,7.7-10.6l0.6-7.2
			L59.5,75.9L59.5,75.9z"/>
		<path class="st2" d="M63.5,124.4l-28.8,11.5l-3.3-8.3L0,102.6l4.4-16l26.6-2l29.9-12l12.5,31.2l-0.6,7.8
			C72.4,117.2,68.8,122.2,63.5,124.4z M37.5,129.4l24.2-9.7c3.4-1.4,5.9-4.7,6.2-8.4l0.5-6.6L58.2,79.1l-26,10.4L8.3,91.3l-2.6,9.4
			l29.9,23.8L37.5,129.4z"/>
	</g>
	<g>
		<path class="st2" d="M242.3,0l12.5,31.2l-0.7,10.1c-0.2,4.3-3,8-6.9,9.6l-185,74.1l-1.9-4.6l185-74.1c2.2-0.9,3.7-3,3.9-5.3l0.6-9
			L239.6,6.5l-26,10.4l-5,0.4L59.9,76.8l-0.7-1.9l129.9-52l-1.5-3.8L7.3,91.3l-1.9-4.6l181.9-72.8l25.1-1.9L242.3,0z"/>
	</g>
	<g>
		<line class="st3" x1="70.9" y1="104.2" x2="252.4" y2="31.5"/>
		
			<rect x="63.9" y="66.9" transform="matrix(0.9284 -0.3716 0.3716 0.9284 -13.643 64.9211)" class="st2" width="195.5" height="2"/>
	</g>
</g>
</svg>
