<?xml version="1.0" encoding="utf-8"?>
<!-- Generator: Adobe Illustrator 25.4.1, SVG Export Plug-In . SVG Version: 6.00 Build 0)  -->
<svg version="1.1" id="Capa_1" xmlns="http://www.w3.org/2000/svg" xmlns:xlink="http://www.w3.org/1999/xlink" x="0px" y="0px"
	 viewBox="0 0 263.2 57" style="enable-background:new 0 0 263.2 57;" xml:space="preserve">
<style type="text/css">
	.st0{fill:#8F6E84;}
	.st1{fill:#221932;}
	.st2{fill:none;}
</style>
<path class="st0" d="M259.6,10.5v32.1c0,5.8-4.7,10.6-10.6,10.6h-10.2c5.8,0,10.6-4.7,10.6-10.6V10.5H259.6z"/>
<g>
	<path class="st1" d="M65.2,10.5H35.1L11,2.9L3,13.4l19.4,34v7.1H51c4.7,0,9-2.7,11.1-7l3.2-6.5L65.2,10.5L65.2,10.5z"/>
	<path class="st1" d="M50.9,57h-31v-8.9L0,13.2L10,0l25.4,8h32.2v33.6l-3.4,7C61.8,53.7,56.6,57,50.9,57z M24.9,52H51
		c3.7,0,7.2-2.2,8.9-5.5l2.9-6V13h-28L11.9,5.8L6,13.6l18.9,33.2V52z"/>
</g>
<g>
	<path class="st1" d="M263.1,8v33.6l-4.4,9.1c-1.8,3.9-5.8,6.3-10,6.3H49.4v-5h199.3c2.4,0,4.5-1.4,5.6-3.5l3.9-8.1V13h-28l-4.8-1.5
		H65.2v-2h139.9V5.4H11v-5h195.9l24,7.6H263.1z"/>
</g>
<g>
	<line class="st2" x1="65.2" y1="41" x2="260.7" y2="41"/>
	<rect x="65.2" y="40" class="st1" width="195.5" height="2"/>
</g>
</svg>
