<?xml version="1.0" encoding="utf-8"?>
<!-- Generator: Adobe Illustrator 25.4.1, SVG Export Plug-In . SVG Version: 6.00 Build 0)  -->
<svg version="1.1" id="Capa_1" xmlns="http://www.w3.org/2000/svg" xmlns:xlink="http://www.w3.org/1999/xlink" x="0px" y="0px"
	 viewBox="0 0 245 139.7" style="enable-background:new 0 0 245 139.7;" xml:space="preserve">
<style type="text/css">
	.st0{fill:#221932;}
	.st1{fill:#F4B661;}
	.st2{fill:#8F6E84;}
	.st3{fill:#BA454B;}
	.st4{fill:#454759;}
	.st5{fill:#8F939E;}
</style>
<g>
	<g>
		<g>
			<ellipse class="st0" cx="83.7" cy="59.8" rx="26.7" ry="5.1"/>
			<path class="st0" d="M83.7,65.9c-9.6,0-27.7-1.3-27.7-6.1s18.1-6.1,27.7-6.1c9.6,0,27.7,1.3,27.7,6.1S93.2,65.9,83.7,65.9z
				 M83.7,55.7c-16.3,0-25.5,2.7-25.7,4.1c0.1,1.4,9.3,4.1,25.7,4.1c16.3,0,25.5-2.7,25.7-4.1C109.2,58.4,100,55.7,83.7,55.7z"/>
		</g>
		<g>
			<line class="st1" x1="97" y1="55.4" x2="97" y2="64.2"/>
			<rect x="96" y="55.4" class="st0" width="2" height="8.8"/>
		</g>
		<g>
			<line class="st1" x1="92.7" y1="55.4" x2="92.7" y2="64.2"/>
			<rect x="91.7" y="55.4" class="st0" width="2" height="8.8"/>
		</g>
		<g>
			<line class="st1" x1="88.3" y1="55.4" x2="88.3" y2="64.2"/>
			<rect x="87.3" y="55.4" class="st0" width="2" height="8.8"/>
		</g>
		<polygon class="st2" points="111.3,133 127.5,129.8 127.5,62.6 111.3,68.4 		"/>
		<path class="st0" d="M83.3,139.7c-22,0-45.6-4.3-45.6-13.8V59.2h5V126c0,3,14.3,8.8,40.6,8.8c26.3,0,40.6-5.8,40.6-8.8V59.2h5V126
			C129,135.4,105.3,139.7,83.3,139.7z"/>
		<path class="st0" d="M129,59.2h-5c0-0.3-0.4-1-1.5-1.8c-5.7-4.1-21.7-7-39.1-7c-17.4,0-33.5,2.9-39.1,7c-1.1,0.8-1.5,1.5-1.5,1.8
			h-5c0-2.2,1.2-4.1,3.6-5.8c6.6-4.8,23.1-7.9,42.1-7.9c18.9,0,35.4,3.1,42.1,7.9C127.8,55.1,129,57,129,59.2z"/>
		<g>
			<path class="st0" d="M83.3,71.4c-21.4,0-44.1-4.3-44.1-12.3h2c0,4.9,17.3,10.3,42.1,10.3c24.8,0,42.1-5.4,42.1-10.3h2
				C127.5,67.1,104.7,71.4,83.3,71.4z"/>
		</g>
		<path class="st0" d="M147.3,128c-15.3,0-21.1-4.1-21.3-4.3l2.4-3.2c0.1,0,5.2,3.5,19,3.5c13.4,0,21.9-3.8,22.8-4.3l2.6-1.6
			l-5.6-3.5l5.6-3.5l-5.6-3.5l5.6-3.5l-5.6-3.5l5.6-3.5l-5.6-3.5l5.6-3.5l-5.6-3.5l5.6-3.5l-5.6-3.5l5.6-3.5l-5.6-3.5l5.6-3.5
			l-5.6-3.5l5.6-3.6l-1.8-1.2c-2.9,1.2-11.2,4.2-23.6,4.2c-15.3,0-21.1-4.1-21.3-4.3l2.4-3.2c0,0,5.2,3.5,19,3.5
			c14.1,0,22.8-4.3,22.9-4.3l1-0.5l8.8,5.9l-5.5,3.5l5.6,3.5l-5.6,3.5l5.6,3.5l-5.6,3.5l5.6,3.5l-5.6,3.5l5.6,3.5l-5.6,3.5l5.6,3.5
			l-5.6,3.5l5.6,3.5l-5.6,3.5l5.6,3.5l-5.6,3.5l5.5,3.5l-8.1,5.2C171.6,123.4,162.5,128,147.3,128z"/>
	</g>
	<g>
		<path class="st2" d="M161.8,10.8v6.7L140.6,11h-118c-5.6,0-10.6,2.3-14.2,5.9c-2.9,2.9-4.9,6.7-5.6,10.9c-0.2-1.1-0.3-2.2-0.3-3.3
			c0-5.6,2.3-10.6,5.9-14.2c3.6-3.6,8.7-5.9,14.2-5.9h118L161.8,10.8z"/>
		<path class="st0" d="M141,45.3H22.6C10.2,45.3,0,35.1,0,22.6S10.2,0,22.6,0H141l23.3,7.1v31.2L141,45.3z M22.6,5
			C12.9,5,5,12.9,5,22.6c0,9.7,7.9,17.6,17.6,17.6h117.6l19-5.8V10.8l-19-5.8H22.6z"/>
		<line class="st3" x1="139" y1="2.5" x2="139" y2="42.8"/>
		<rect x="137.5" y="2.5" class="st0" width="3" height="40.3"/>
		<path class="st0" d="M218.7,39.6l-56.9-3.2V8.9l56.9-3.2c9.7-0.5,18.7,4.8,23,13.5v0c1.1,2.2,1.1,4.8,0,7v0
			C237.4,34.8,228.4,40.1,218.7,39.6z"/>
		<path class="st4" d="M242.5,22.2c0-1-0.2-1.9-0.5-2.8c-0.1,0.2-0.2,0.4-0.3,0.6c-4.3,8.7-13.3,14-23,13.5l-56.9-3.2v5.7l56.9,3.2
			c9.7,0.5,18.7-4.8,23-13.5C242.2,24.6,242.5,23.4,242.5,22.2z"/>
		<path class="st0" d="M220,42.1c-0.5,0-0.9,0-1.4,0l0,0l-59.3-3.4V6.6l59.3-3.4c10.7-0.5,20.6,5.3,25.3,14.8c1.4,2.9,1.4,6.3,0,9.2
			C239.4,36.4,230.1,42.1,220,42.1z M218.8,37.1c8.7,0.5,16.7-4.3,20.6-12.1c0.7-1.5,0.7-3.3,0-4.8c-3.8-7.8-11.9-12.5-20.6-12.1
			l-54.6,3.1V34L218.8,37.1z"/>
		<circle class="st5" cx="175.4" cy="22.6" r="2.9"/>
		<circle class="st5" cx="198.7" cy="22.6" r="2.9"/>
	</g>
</g>
</svg>
