<?xml version="1.0" encoding="utf-8"?>
<!-- Generator: Adobe Illustrator 25.4.1, SVG Export Plug-In . SVG Version: 6.00 Build 0)  -->
<svg version="1.1" id="Capa_1" xmlns="http://www.w3.org/2000/svg" xmlns:xlink="http://www.w3.org/1999/xlink" x="0px" y="0px"
	 viewBox="0 0 245 153.4" style="enable-background:new 0 0 245 153.4;" xml:space="preserve">
<style type="text/css">
	.st0{fill:#EEF3F6;}
	.st1{fill:#221932;}
	.st2{fill:none;}
	.st3{fill:#8F6E84;}
	.st4{fill:#454759;}
	.st5{fill:#8F939E;}
</style>
<polygon class="st0" points="41.1,70.5 64.9,63.9 103.1,62.9 126,71.7 125.4,73.4 144.5,78.2 153.1,78.2 170.5,72.7 172.7,73.4 
	174.3,75.3 174.3,133.5 157.1,140.5 146,140.5 127.4,137.4 126.5,142.3 125.2,144.1 103.9,150.6 75.7,150.6 50.4,147.3 40.1,141.5 
	"/>
<path class="st0" d="M139,42.1H22.3c-10.9,0-19.8-8.9-19.8-19.8v0c0-10.9,8.9-19.8,19.8-19.8H139V42.1z"/>
<polygon class="st0" points="139,2.5 161.8,10.2 161.8,34.4 139,42.1 "/>
<g>
	<g>
		<ellipse class="st1" cx="83.7" cy="74.1" rx="26.7" ry="5.1"/>
		<path class="st1" d="M83.7,80.2c-9.6,0-27.7-1.3-27.7-6.1S74.1,68,83.7,68s27.7,1.3,27.7,6.1C111.4,78.9,93.2,80.2,83.7,80.2z
			 M83.7,70c-16.3,0-25.5,2.7-25.7,4.1c0.1,1.4,9.3,4.1,25.7,4.1c16.3,0,25.5-2.7,25.7-4.1C109.2,72.7,100,70,83.7,70z"/>
	</g>
	<g>
		<line class="st2" x1="97" y1="69.7" x2="97" y2="78.5"/>
		<rect x="96" y="69.7" class="st1" width="2" height="8.8"/>
	</g>
	<g>
		<line class="st2" x1="92.7" y1="69.7" x2="92.7" y2="78.5"/>
		<rect x="91.7" y="69.7" class="st1" width="2" height="8.8"/>
	</g>
	<g>
		<line class="st2" x1="88.3" y1="69.7" x2="88.3" y2="78.5"/>
		<rect x="87.3" y="69.7" class="st1" width="2" height="8.8"/>
	</g>
	<polygon class="st3" points="111.3,147.3 127.5,144.1 127.5,76.9 111.3,82.7 	"/>
	<path class="st1" d="M83.3,154c-22,0-45.6-4.3-45.6-13.8V73.5h5v66.8c0,3,14.3,8.8,40.6,8.8s40.6-5.8,40.6-8.8V73.5h5v66.8
		C129,149.7,105.3,154,83.3,154z"/>
	<path class="st1" d="M129,73.5h-5c0-0.3-0.4-1-1.5-1.8c-5.7-4.1-21.7-7-39.1-7s-33.5,2.9-39.1,7c-1.1,0.8-1.5,1.5-1.5,1.8h-5
		c0-2.2,1.2-4.1,3.6-5.8c6.6-4.8,23.1-7.9,42.1-7.9c18.9,0,35.4,3.1,42.1,7.9C127.8,69.4,129,71.3,129,73.5z"/>
	<g>
		<path class="st1" d="M83.3,85.7c-21.4,0-44.1-4.3-44.1-12.3h2c0,4.9,17.3,10.3,42.1,10.3s42.1-5.4,42.1-10.3h2
			C127.5,81.4,104.7,85.7,83.3,85.7z"/>
	</g>
	<path class="st1" d="M147.3,142.3c-15.3,0-21.1-4.1-21.3-4.3l2.4-3.2c0.1,0,5.2,3.5,19,3.5c13.4,0,21.9-3.8,22.8-4.3l2.6-1.6
		l-5.6-3.5l5.6-3.5l-5.6-3.5l5.6-3.5l-5.6-3.5l5.6-3.5l-5.6-3.5l5.6-3.5l-5.6-3.5l5.6-3.5l-5.6-3.5l5.6-3.5l-5.6-3.5l5.6-3.5
		l-5.6-3.5l5.6-3.6l-1.8-1.2c-2.9,1.2-11.2,4.2-23.6,4.2c-15.3,0-21.1-4.1-21.3-4.3l2.4-3.2c0,0,5.2,3.5,19,3.5
		c14.1,0,22.8-4.3,22.9-4.3l1-0.5l8.8,5.9l-5.5,3.5l5.6,3.5l-5.6,3.5l5.6,3.5l-5.6,3.5l5.6,3.5l-5.6,3.5l5.6,3.5l-5.6,3.5l5.6,3.5
		l-5.6,3.5l5.6,3.5l-5.6,3.5l5.6,3.5l-5.6,3.5l5.5,3.5l-8.1,5.2C171.6,137.7,162.5,142.3,147.3,142.3z"/>
</g>
<g>
	<path class="st3" d="M161.8,10.8v6.7L140.6,11h-118C17,11,12,13.3,8.4,16.9c-2.9,2.9-4.9,6.7-5.6,10.9c-0.2-1.1-0.3-2.2-0.3-3.3
		c0-5.6,2.3-10.6,5.9-14.2s8.7-5.9,14.2-5.9h118L161.8,10.8z"/>
	<path class="st1" d="M141,45.3H22.6C10.2,45.3,0,35.1,0,22.6S10.2,0,22.6,0H141l23.3,7.1v31.2L141,45.3z M22.6,5
		C12.9,5,5,12.9,5,22.6s7.9,17.6,17.6,17.6h117.6l19-5.8V10.8l-19-5.8H22.6z"/>
	<line class="st2" x1="139" y1="2.5" x2="139" y2="42.8"/>
	<rect x="137.5" y="2.5" class="st1" width="3" height="40.3"/>
	<path class="st1" d="M218.7,39.6l-56.9-3.2V8.9l56.9-3.2c9.7-0.5,18.7,4.8,23,13.5l0,0c1.1,2.2,1.1,4.8,0,7l0,0
		C237.4,34.8,228.4,40.1,218.7,39.6z"/>
	<path class="st4" d="M242.5,22.2c0-1-0.2-1.9-0.5-2.8c-0.1,0.2-0.2,0.4-0.3,0.6c-4.3,8.7-13.3,14-23,13.5l-56.9-3.2V36l56.9,3.2
		c9.7,0.5,18.7-4.8,23-13.5C242.2,24.6,242.5,23.4,242.5,22.2z"/>
	<path class="st1" d="M220,42.1c-0.5,0-0.9,0-1.4,0l0,0l-59.3-3.4V6.6l59.3-3.4c10.7-0.5,20.6,5.3,25.3,14.8c1.4,2.9,1.4,6.3,0,9.2
		C239.4,36.4,230.1,42.1,220,42.1z M218.8,37.1c8.7,0.5,16.7-4.3,20.6-12.1c0.7-1.5,0.7-3.3,0-4.8c-3.8-7.8-11.9-12.5-20.6-12.1
		l-54.6,3.1V34L218.8,37.1z"/>
	<circle class="st5" cx="175.4" cy="22.6" r="2.9"/>
	<circle class="st5" cx="198.7" cy="22.6" r="2.9"/>
</g>
</svg>
