<?xml version="1.0" encoding="utf-8"?>
<!-- Generator: Adobe Illustrator 25.4.1, SVG Export Plug-In . SVG Version: 6.00 Build 0)  -->
<svg version="1.1" id="Capa_1" xmlns="http://www.w3.org/2000/svg" xmlns:xlink="http://www.w3.org/1999/xlink" x="0px" y="0px"
	 viewBox="0 0 227.3 99.4" style="enable-background:new 0 0 227.3 99.4;" xml:space="preserve">
<style type="text/css">
	.st0{fill:#231A32;}
</style>
<path class="st0" d="M65.3,0l-0.6,2.6c-5.2,24.1-17.6,33.8-30.7,44.2C20.6,57.3,6.8,68.3,1,95l-1,4.4h162l0.6-2.6
	c5.2-24.1,17.6-33.8,30.7-44.2c13.4-10.6,27.3-21.6,33.1-48.3l1-4.4H65.3z M188.8,28.9h20.5c-3,3.9-6.3,7.2-9.7,10.2h-19.1
	C183.4,36.1,186.2,32.8,188.8,28.9z M175.9,39.2h-21.5c3-3,5.8-6.4,8.4-10.2h22.4C182.3,32.8,179.2,36.1,175.9,39.2z M142.7,70.5
	h-22.4c2.8-3.9,6-7.2,9.3-10.2H151C148,63.3,145.2,66.7,142.7,70.5z M38.5,70.5H18c3-3.9,6.3-7.2,9.7-10.2h19.1
	C43.9,63.3,41,66.7,38.5,70.5z M51.4,60.3h21.5c-3,3-5.8,6.4-8.4,10.2H42.1C44.9,66.7,48.1,63.3,51.4,60.3z M84.6,28.9H107
	c-2.8,3.9-6,7.2-9.3,10.2H76.3C79.2,36.1,82.1,32.8,84.6,28.9z M116.6,70.5H94.2c2.8-3.9,6-7.2,9.3-10.2H125
	C122,63.3,119.2,66.7,116.6,70.5z M110.7,28.9h22.4c-2.8,3.9-6,7.2-9.3,10.2h-21.5C105.3,36.1,108.1,32.8,110.7,28.9z M119.8,42.7
	c-2.1,1.8-4.3,3.5-6.6,5.3H92.4c2.1-1.7,4.2-3.4,6.2-5.3H119.8z M108.8,51.5c-2.1,1.7-4.2,3.4-6.2,5.3H81.4c2.1-1.8,4.3-3.5,6.6-5.3
	H108.8z M98.9,60.3c-3,3-5.8,6.4-8.4,10.2H68.1c2.8-3.9,6-7.2,9.3-10.2H98.9z M107.5,56.8c2.1-1.8,4.3-3.5,6.6-5.3h20.9
	c-2.1,1.7-4.2,3.4-6.2,5.3H107.5z M118.4,48c2.1-1.7,4.2-3.4,6.2-5.3h21.2c-2.1,1.8-4.3,3.5-6.6,5.3H118.4z M128.3,39.2
	c3-3,5.8-6.4,8.4-10.2h22.4c-2.8,3.9-6,7.2-9.3,10.2H128.3z M138.9,25.4c2.9-5.1,5.4-11.1,7.2-18.4h23.2c-2,7.4-4.6,13.3-7.8,18.4
	H138.9z M135.5,25.4h-22.7c2.9-5.1,5.4-11.1,7.2-18.4h23.2C141.3,14.4,138.6,20.4,135.5,25.4z M109.4,25.4H86.8
	C89.7,20.3,92.2,14.3,94,7h23.2C115.2,14.4,112.6,20.4,109.4,25.4z M93.8,42.7c-2.1,1.8-4.3,3.5-6.6,5.3H66.3
	c2.1-1.7,4.2-3.4,6.2-5.3H93.8z M61.2,48H42.9c2-1.7,4.1-3.4,6-5.3h18.8C65.6,44.5,63.4,46.2,61.2,48z M82.8,51.5
	c-2.1,1.7-4.2,3.4-6.2,5.3H55.4c2.1-1.8,4.3-3.5,6.6-5.3H82.8z M62.4,74c-2.9,5.1-5.4,11.1-7.2,18.4H31.9c2-7.4,4.6-13.3,7.8-18.4
	H62.4z M65.8,74h22.7c-2.9,5.1-5.4,11.1-7.2,18.4H58C60,85.1,62.6,79.1,65.8,74z M91.8,74h22.7c-2.9,5.1-5.4,11.1-7.2,18.4H84
	C86,85.1,88.7,79.1,91.8,74z M117.8,74h22.7c-2.9,5.1-5.4,11.1-7.2,18.4h-23.2C112,85.1,114.7,79.1,117.8,74z M133.5,56.8
	c2.1-1.8,4.3-3.5,6.6-5.3h20.9c-2.1,1.7-4.2,3.4-6.2,5.3H133.5z M166.1,51.5h18.3c-2,1.7-4.1,3.4-6,5.3h-18.8
	C161.7,55,163.9,53.2,166.1,51.5z M144.5,48c2.1-1.7,4.2-3.4,6.2-5.3h21.2c-2.1,1.8-4.3,3.5-6.6,5.3H144.5z M164.9,25.4
	c2.9-5.1,5.4-11.1,7.2-18.4h23.2c-2,7.4-4.6,13.3-7.8,18.4H164.9z M69.5,7h21.7c-2,7.4-4.6,13.3-7.8,18.4H62.4
	C65.3,20.2,67.7,14.3,69.5,7z M60.4,28.9H81c-2.8,3.9-6,7.2-9.3,10.2H52.4C55.2,36.1,57.9,32.8,60.4,28.9z M36.9,52.7
	c0.5-0.4,1-0.8,1.6-1.2h18.2c-2.1,1.7-4.2,3.4-6.2,5.3H31.9C33.5,55.4,35.2,54.1,36.9,52.7z M15.5,74h20.8
	c-2.9,5.1-5.4,11.1-7.2,18.4H7.3C9.4,85,12.2,79.1,15.5,74z M157.8,92.4h-21.7c2-7.4,4.6-13.3,7.8-18.4h20.9
	C162,79.2,159.6,85.2,157.8,92.4z M166.9,70.5h-20.6c2.8-3.9,6-7.2,9.3-10.2h19.3C172,63.3,169.3,66.7,166.9,70.5z M190.3,46.7
	c-0.5,0.4-1,0.8-1.6,1.2h-18.2c2.1-1.7,4.2-3.4,6.2-5.3h18.6C193.7,44,192,45.4,190.3,46.7z M211.8,25.4H191
	c2.9-5.1,5.4-11.1,7.2-18.4h21.7C217.9,14.5,215.1,20.4,211.8,25.4z"/>
</svg>
