<?xml version="1.0" encoding="utf-8"?>
<!-- Generator: Adobe Illustrator 25.4.1, SVG Export Plug-In . SVG Version: 6.00 Build 0)  -->
<svg version="1.1" id="Capa_1" xmlns="http://www.w3.org/2000/svg" xmlns:xlink="http://www.w3.org/1999/xlink" x="0px" y="0px"
	 viewBox="0 0 126.8 231.6" style="enable-background:new 0 0 126.8 231.6;" xml:space="preserve">
<style type="text/css">
	.st0{fill:#8F6E84;}
	.st1{fill:#606060;}
	.st2{fill:#221932;}
	.st3{fill:#8F939E;}
	.st4{fill:#444343;}
</style>
<g>
	<path class="st0" d="M105.5,54.2h10.5c4.9,0,8.9,4,8.9,8.9v140.7c0,4.9-4,8.9-8.9,8.9h-10.5c4.9,0,8.9-4,8.9-8.9V63.1
		C114.4,58.1,110.4,54.2,105.5,54.2z"/>
	<path class="st1" d="M92,212.7H81.6c-4.9,0-8.9-4-8.9-8.9V63.1c0-4.9,4-8.9,8.9-8.9H92c-4.9,0-8.9,4-8.9,8.9v140.7
		C83.1,208.7,87.1,212.7,92,212.7z"/>
	<path class="st2" d="M115.9,213.4H81.2c-6,0-10.9-4.9-10.9-10.9V61.8c0-6,4.9-10.9,10.9-10.9h34.7c6,0,10.9,4.9,10.9,10.9v140.7
		C126.8,208.5,122,213.4,115.9,213.4z M81.2,54.9c-3.8,0-6.9,3.1-6.9,6.9v140.7c0,3.8,3.1,6.9,6.9,6.9h34.7c3.8,0,6.9-3.1,6.9-6.9
		V61.8c0-3.8-3.1-6.9-6.9-6.9H81.2z"/>
	<path class="st0" d="M117.5,211.4v2.5c0,4.1-3.4,7.5-7.5,7.5H87.2c-4.1,0-7.5-3.4-7.5-7.5v-2.5"/>
	<path class="st2" d="M110,223.4H87.2c-5.2,0-9.5-4.3-9.5-9.5v-2.5h4v2.5c0,3,2.5,5.5,5.5,5.5H110c3,0,5.5-2.5,5.5-5.5v-2.5h4v2.5
		C119.5,219.1,115.2,223.4,110,223.4z"/>
	<path class="st2" d="M125.8,203.5H71.3V77.2h54.5V203.5z M73.3,201.5h50.5V79.2H73.3V201.5z"/>
	<path class="st0" d="M105.6,28.4H91.6c-1.5,0-2.8,0.9-3.3,2.3l-8.8,22.6h38.4l-8.8-22.6C108.4,29.3,107.1,28.4,105.6,28.4z"/>
	<path class="st2" d="M120.7,55.3H76.5L86.4,30c0.8-2.1,2.9-3.5,5.2-3.5h14.1c2.3,0,4.3,1.4,5.2,3.5L120.7,55.3z M82.3,51.3h32.5
		l-7.8-19.8c-0.2-0.6-0.8-1-1.4-1H91.6c-0.6,0-1.2,0.4-1.4,1L82.3,51.3z"/>
	<polygon class="st2" points="106.7,16.6 89.9,8.2 89.9,28.4 106.7,28.4 	"/>
	<path class="st3" d="M48.9,21.4v71.9H11.2V21.4c0-10.4,8.5-18.9,18.9-18.9c5.2,0,9.9,2.1,13.4,5.5C46.8,11.5,48.9,16.2,48.9,21.4z"
		/>
	<path class="st0" d="M48.2,21.4v165.8c0,10.4-8.5,18.9-18.9,18.9c-1.2,0-2.3-0.1-3.4-0.3c8.8-1.6,15.4-9.3,15.4-18.6V21.4
		c0-5.2-2.1-9.9-5.5-13.4c-2.7-2.7-6.1-4.5-9.9-5.2c1.1-0.2,2.3-0.3,3.4-0.3c5.2,0,9.9,2.1,13.4,5.5C46.1,11.4,48.2,16.2,48.2,21.4z
		"/>
	<path class="st2" d="M30.1,208.5c-11.8,0-21.4-9.6-21.4-21.4V21.4C8.7,9.6,18.3,0,30.1,0s21.4,9.6,21.4,21.4v165.8
		C51.4,198.9,41.9,208.5,30.1,208.5z M30.1,5c-9,0-16.4,7.4-16.4,16.4v165.8c0,9,7.4,16.4,16.4,16.4h0c9,0,16.4-7.4,16.4-16.4V21.4
		C46.4,12.4,39.1,5,30.1,5z"/>
	<path class="st0" d="M15.1,100.2H6.4c-2.1,0-3.9-1.7-3.9-3.9V24.4c0-2.1,1.7-3.9,3.9-3.9h8.8c5.2,0,9.5,4.2,9.5,9.5v60.7
		C24.6,96,20.4,100.2,15.1,100.2z"/>
	<path class="st2" d="M15.1,102.7H6.4c-3.5,0-6.4-2.9-6.4-6.4V24.4c0-3.5,2.9-6.4,6.4-6.4h8.8c6.6,0,12,5.4,12,12v60.7
		C27.1,97.4,21.7,102.7,15.1,102.7z M6.4,23.1c-0.8,0-1.4,0.6-1.4,1.4v71.9c0,0.8,0.6,1.4,1.4,1.4h8.8c3.8,0,7-3.1,7-7V30
		c0-3.8-3.1-7-7-7H6.4z"/>
	<rect x="20.2" y="201.6" class="st4" width="19.6" height="15"/>
	<path class="st2" d="M39.9,218.5H20.2v-18.7h19.6V218.5z M23.6,214.7h12.8v-11.2H23.6V214.7z"/>
	<rect x="20.2" y="216.6" class="st2" width="19.6" height="15"/>
	<g>
		<g>
			<line class="st3" x1="18" y1="106.3" x2="18" y2="186.9"/>
		</g>
		<g>
			<path class="st3" d="M18,188.4c-0.8,0-1.5-0.7-1.5-1.5v-80.6c0-0.8,0.7-1.5,1.5-1.5s1.5,0.7,1.5,1.5v80.6
				C19.5,187.7,18.8,188.4,18,188.4z"/>
		</g>
	</g>
	<g>
		<path class="st2" d="M16.5,100l-1.7-1l1.7-3c1.1-2.4,1.8-5.2,1.8-8V34.2c0-3.2-0.8-6.4-2.4-9.1L14,21.7l1.7-1l1.9,3.3
			c1.7,3.1,2.6,6.6,2.6,10.1v53.9c0,3.1-0.7,6.1-2,8.9L16.5,100z"/>
	</g>
</g>
</svg>
