<?xml version="1.0" encoding="utf-8"?>
<!-- Generator: Adobe Illustrator 25.4.1, SVG Export Plug-In . SVG Version: 6.00 Build 0)  -->
<svg version="1.1" id="Capa_1" xmlns="http://www.w3.org/2000/svg" xmlns:xlink="http://www.w3.org/1999/xlink" x="0px" y="0px"
	 viewBox="0 0 147.6 196.2" style="enable-background:new 0 0 147.6 196.2;" xml:space="preserve">
<style type="text/css">
	.st0{fill:#8F6F85;}
	.st1{fill:#231A32;}
	.st2{fill:#8D929D;}
</style>
<g>
	<g>
		<path class="st0" d="M67.6,194.2c0,0-6.7-16.9-8.5-20c-1.8-3.1-20.4-25.5-22.9-29.8l-23.9-41.1c-2-3.5-0.8-7.9,2.6-9.9l0,0
			c3.5-2,7.9-0.8,9.9,2.6l17.4,30L3,58.2c-2-3.5-0.8-8,2.7-10l0,0c3.5-2,8-0.8,10,2.7l28.7,49.4L10.5,42c-2-3.5-0.8-7.9,2.6-9.9l0,0
			c3.5-2,7.9-0.8,9.9,2.6l34.7,59.8L29.8,46.4c-2.1-3.6-0.9-8.2,2.7-10.3l0,0c3.6-2.1,8.2-0.9,10.3,2.7l37.3,64.3L50.3,51.6
			c-2.1-3.6-0.9-8.2,2.7-10.2l0,0c3.6-2.1,8.2-0.9,10.2,2.7l35.5,61.1c0,0,10.5,29.3,12.8,33.6c2.3,4.3,14.2,21.6,14.2,21.6
			L67.6,194.2z"/>
		<path class="st1" d="M67.6,196.2c-0.2,0-0.4,0-0.7-0.1c-0.5-0.2-1-0.6-1.2-1.2c-1.9-4.7-7-17.3-8.4-19.7c-0.7-1.3-5.3-7-9.7-12.6
			c-5.8-7.3-11.7-14.8-13.2-17.2l-23.9-41.1c-1.2-2.1-1.6-4.6-0.9-7c0.6-2.4,2.2-4.4,4.3-5.6c1.7-1,3.6-1.4,5.4-1.2L1.3,59.2
			c-2.6-4.4-1.1-10.2,3.4-12.7c1.7-1,3.6-1.4,5.4-1.2L8.8,43c-2.6-4.4-1.1-10.1,3.4-12.6c4.4-2.6,10.1-1.1,12.6,3.4l2.9,4.9
			c0.8-1.8,2.2-3.3,3.9-4.3c2.2-1.3,4.8-1.6,7.2-1c2.5,0.7,4.5,2.2,5.8,4.4l3.5,6.1c0.8-1.8,2.1-3.3,3.9-4.3c2.2-1.3,4.7-1.6,7.2-1
			c2.4,0.7,4.5,2.2,5.8,4.4l35.5,61.1c0.1,0.1,0.1,0.2,0.2,0.3c3.6,10.1,10.9,30.1,12.7,33.3c2.2,4.1,14,21.3,14.1,21.4
			c0.3,0.5,0.4,1,0.3,1.6c-0.1,0.5-0.5,1-0.9,1.3l-58.1,33.7C68.3,196.1,67.9,196.2,67.6,196.2z M18.6,94.4c-0.9,0-1.8,0.2-2.6,0.7
			c-1.2,0.7-2.1,1.8-2.4,3.2c-0.4,1.4-0.2,2.8,0.5,4l23.9,41.1c1.3,2.2,7.4,9.9,12.8,16.8c5.7,7.1,9.2,11.6,10,13
			c1.5,2.5,5.9,13.4,7.8,18.1l54.2-31.5c-3.1-4.6-11.2-16.5-13.1-20c-2.2-4.2-11.9-31-12.8-33.7l-35.4-61c-1.5-2.6-4.9-3.5-7.5-2
			c-2.6,1.5-3.5,4.8-2,7.4l29.9,51.5c0.6,1,0.2,2.2-0.7,2.7c-1,0.6-2.2,0.2-2.7-0.7L48.5,52.6c0,0,0-0.1,0-0.1l-7.4-12.7
			c-0.7-1.3-1.9-2.2-3.4-2.6c-1.4-0.4-2.9-0.2-4.2,0.6c-1.3,0.7-2.2,1.9-2.6,3.4c-0.4,1.4-0.2,2.9,0.6,4.2l27.9,48.1
			c0.6,1,0.2,2.2-0.7,2.7c-1,0.6-2.2,0.2-2.7-0.7L21.3,35.7c-0.7-1.2-1.8-2.1-3.2-2.4c-1.4-0.4-2.8-0.2-4,0.5
			c-2.5,1.5-3.4,4.7-1.9,7.2l5.2,8.9c0,0,0,0,0,0L46,99.2c0.6,1,0.2,2.2-0.7,2.7c-1,0.6-2.2,0.2-2.7-0.7L13.9,51.9
			c-1.5-2.5-4.7-3.4-7.3-1.9c-2.5,1.5-3.4,4.7-1.9,7.3l21.9,37.7c0,0,0,0,0,0.1l17.4,30c0.6,1,0.2,2.2-0.7,2.7
			c-1,0.6-2.2,0.2-2.7-0.7L23.1,96.9c-0.7-1.2-1.8-2-3.2-2.4C19.5,94.4,19.1,94.4,18.6,94.4z"/>
	</g>
	<g>
		<path class="st2" d="M78.8,60.8c-1-0.6-2.2-0.9-3.5-0.9c-4,0-7.3,3.2-7.3,7.3v47.5c0,5,4.8,33.7,4.8,37.3c0,2.7-1.5,13.8-2.3,18.9
			c-0.2,1.4,0.9,2.6,2.3,2.6h30L78.8,60.8z"/>
	</g>
	<g>
		<path class="st0" d="M74,169.5c0,0,2.7-18,2.7-21.6c0-3.6-4.8-32.3-4.8-37.2V63.2c0-4,3.3-7.3,7.3-7.3h0c4,0,7.3,3.3,7.3,7.3v34.7
			V19.5c0-4,3.3-7.3,7.3-7.3h0c4,0,7.3,3.3,7.3,7.3v57.1V9.2c0-4,3.2-7.2,7.2-7.2h0c4,0,7.2,3.2,7.2,7.2v69.1V22.7
			c0-4.2,3.4-7.5,7.5-7.5h0c4.2,0,7.5,3.4,7.5,7.5v74.3V37.5c0-4.1,3.4-7.5,7.5-7.5h0c4.1,0,7.5,3.4,7.5,7.5v70.7
			c0,0-5.6,30.7-5.8,35.5c-0.2,4.8,1.4,25.8,1.4,25.8H74z"/>
		<path class="st1" d="M141.2,171.5H74c-0.6,0-1.1-0.3-1.5-0.7s-0.5-1-0.5-1.6c0.7-5,2.6-18.5,2.6-21.3c0-1.5-1.1-8.7-2.1-15.7
			c-1.3-9.2-2.7-18.7-2.7-21.5V63.2c0-5.1,4.2-9.3,9.3-9.3c2,0,3.8,0.6,5.3,1.6v-36c0-5.1,4.2-9.3,9.3-9.3c2,0,3.8,0.6,5.3,1.7V9.2
			c0-5.1,4.1-9.2,9.2-9.2s9.2,4.1,9.2,9.2V15c1.6-1.1,3.5-1.8,5.5-1.8c5.3,0,9.5,4.3,9.5,9.5v7.1c1.5-1.1,3.4-1.8,5.5-1.8
			c5.2,0,9.5,4.3,9.5,9.5v70.7c0,0.1,0,0.2,0,0.4c-1.9,10.6-5.7,31.5-5.8,35.2c-0.2,4.6,1.4,25.4,1.4,25.6c0,0.6-0.1,1.1-0.5,1.5
			C142.3,171.3,141.8,171.5,141.2,171.5z M76.3,167.5h62.7c-0.4-5.5-1.4-19.9-1.3-23.9c0.2-4.8,5.3-32.8,5.8-35.6V37.5
			c0-3-2.5-5.5-5.5-5.5s-5.5,2.5-5.5,5.5v59.5c0,1.1-0.9,2-2,2s-2-0.9-2-2V22.7c0-3.1-2.5-5.5-5.5-5.5s-5.5,2.5-5.5,5.5v55.7
			c0,1.1-0.9,2-2,2s-2-0.9-2-2V9.2c0-2.9-2.4-5.2-5.2-5.2S103,6.4,103,9.2v67.4c0,1.1-0.9,2-2,2s-2-0.9-2-2V19.5
			c0-2.9-2.4-5.3-5.3-5.3s-5.3,2.4-5.3,5.3v78.3c0,1.1-0.9,2-2,2s-2-0.9-2-2V63.2c0-2.9-2.4-5.3-5.3-5.3c-2.9,0-5.3,2.4-5.3,5.3
			v47.5c0,2.6,1.4,12.3,2.7,20.9c1.3,9,2.1,14.6,2.1,16.3C78.7,150.9,77.1,162.5,76.3,167.5z"/>
	</g>
</g>
</svg>
