<?xml version="1.0" encoding="utf-8"?>
<!-- Generator: Adobe Illustrator 25.4.1, SVG Export Plug-In . SVG Version: 6.00 Build 0)  -->
<svg version="1.1" id="Capa_1" xmlns="http://www.w3.org/2000/svg" xmlns:xlink="http://www.w3.org/1999/xlink" x="0px" y="0px"
	 viewBox="0 0 248 95.8" style="enable-background:new 0 0 248 95.8;" xml:space="preserve">
<style type="text/css">
	.st0{fill:#010000;}
	.st1{fill:#010101;}
	.st2{fill:#09D509;}
	.st3{fill:#000100;}
	.st4{fill:#FE271C;}
	.st5{fill:#FE281D;}
	.st6{fill:#68CC68;}
	.st7{fill:#73C073;}
	.st8{fill:#FE2216;}
	.st9{fill:#002800;}
	.st10{fill:#162A7C;}
</style>
<g>
	<path class="st0" d="M73,20c-1.5-0.3-3,0-4.5,0.2c-1.8,0.9-3.4,2.1-4.6,3.8c-0.8,0.6-0.9,1.8-1.8,2.3c-0.5,0.5-0.5-0.1-0.6-0.3
		c-0.7-2.8-0.4-5.5,1.6-7.8c0.8-1.1,1.4-2.2,1.4-3.7c-0.1-2.2-1.1-3.6-3.2-4.2c-0.6-0.2-1.2-0.3-1.8-0.5c-1.7-0.5-2-1.5-1.2-3
		c1.3-2.7,3.3-4.7,5.6-6.4c0.7-0.5,1.5-0.5,2.3-0.2c4.2,1.6,6.5,5,6.6,9.6v0.1c0,1.1-2,6.2-2,6.2l1,0.6C73.5,17.5,74,19,74,19
		C74.2,19.5,73.9,20.2,73,20z"/>
	<path class="st0" d="M112.3,53.5c0.1-0.3,0.3-0.6,0.4-1c0.1-0.2,0.1-0.4,0.2-0.6L112.3,53.5z"/>
	<path class="st0" d="M112.9,52c-0.1,0.2-0.1,0.4-0.2,0.6c-0.1,0.3-0.3,0.6-0.4,1L112.9,52z"/>
	<path class="st0" d="M113.4,50.9L113.4,50.9z"/>
	<path class="st0" d="M113.4,50.6L113.4,50.6z"/>
	<path class="st0" d="M156.5,89.9c-0.7-1.1-1.4-2.1-1.5-3.5c-0.1-2-1-3.5-2.4-4.9c-0.8-0.9-1.6-1.8-2-2.9c-0.2-0.6-0.2-1.1,0-1.7
		c0.1-0.9,0.4-1.6,0.7-2.4c0.8-1.9,1.2-3.9,0-5.8c-1.1-1.8-1.1-3.6-0.4-5.5c0.8-2,1.7-4.1,2.4-6.1c0.9-2.5,1.3-5.2,0.9-7.9v0
		c-0.5-2.3-1.3-4.5-1.5-6.8c-0.3-3.6,1-6.9,2.4-10.1c0.5-1.2,0.8-2.5,1.6-3.6c0.1-0.2-0.2-0.3,0-0.5c0.7-1.4,0.7-2.8,0.5-4.3
		c-0.4-2.6-2.2-3.5-4.7-2.6h0c-1.7,1.2-3.5,2.3-5,3.8c-2.9,2.7-5.3,5.8-6.4,9.6c-0.2,0.6-0.1,1.3-0.4,2h0c0,0.7-0.1,1.4-0.1,2
		c0.4,4.3-0.4,8.4-2.2,12.3c-0.9,2.1-1,4.3-0.3,6.6c0.4,1.4,1.5,2.5,1.9,4c1.1,0.8,1.2,2,1.4,3.1c0.2,1.2-0.1,2.4-0.3,3.5
		c-0.5,2.9,0.4,5.2,2.5,7.1c3,2.7,4.2,6.2,4.8,10.1c0.3,1.7,0.7,3.4,1.3,5c0.4,1.1,1.1,1.8,2.2,2.4c1.1,0.5,2.3,0.8,3.1,1.9v0
		c0.2,0.2,0.5,0.4,0.7,0.6c0.8,0.8,1.1,0.8,1.6-0.3c0.2-0.4,0.3-0.8,0.3-1.3C157.8,92.2,157.2,91,156.5,89.9z M155.3,93.2
		c-1.4-0.7-2.8-1.4-4.1-2.2c-1-0.6-1.2-1.8-1.6-2.8c-0.8-2.7-0.9-5.5-1.9-8.1c-0.7-2-1.7-3.8-3.3-5.3c-0.8-0.7-1.4-1.6-2-2.5
		c-1.1-1.5-0.9-3.2-0.6-4.8c0.6-3.1-0.1-5.8-1.7-8.3c-0.1-0.2-0.2-0.3-0.3-0.5c-1.6-2.3-1.6-4.8-0.5-7.3c0.9-2.1,1.5-4.3,2.2-6.4
		c0.2-0.3,0.2-0.6,0.2-0.9c0.3-0.8,0-1.6,0.5-2.3v-0.4c-0.1-1.1-0.2-2.1-0.7-3.1c-0.1-0.2-0.1-0.4-0.2-0.6c-0.2-2.5,1-4.7,2.3-6.7
		c2.3-3.4,5.2-6.3,8.7-8.5c0.6-0.4,1.2-0.7,2-0.6c1.3,0.8,2.1,1.9,2.3,3.5c0.3,2.1-0.8,3.9-1.6,5.7c-1.1,2.4-2,4.9-2.6,7.5
		c-0.6,2.7,0,5.3,0.8,7.9c0.4,1.5,0.8,2.9,0.6,4.4c-0.1,0.2-0.1,0.5-0.2,0.7c0.2,0.1,0.1,0.3,0.1,0.5c-0.2,0.5,0,1.1-0.3,1.7
		c-0.4,2.6-1.5,5-2.5,7.4c-0.1,0.2-0.2,0.5-0.2,0.7c0,0.3-0.1,0.6-0.4,0.7c0,1.4-0.6,2.7-0.3,4.1c0.1,0.5,0.2,1.1,0.5,1.6
		c1.3,2,1.2,4,0.3,6.2c-0.6,1.5-1.1,3-0.6,4.7c0.4,1.2,1.1,2.2,2,3c0.9,0.8,1.7,1.7,1.9,2.9c0.1,0.4,0.1,0.9,0.2,1.3
		c0.2,0.6,0.2,1.2,0.4,1.9c0.1,0.3,0.2,0.6,0.3,0.9c0.3,0.8,0.7,1.6,0.8,2.5C155.7,92.2,155.9,92.8,155.3,93.2z"/>
	<path class="st1" d="M155.7,16.8c-0.8-0.6-1.7-0.9-2.6-1.2c-0.5-0.1-0.6-0.3-0.5-0.8c0.2-1,0.4-2.1,0.5-3.2
		c0.6-5.4-1.8-9.6-6.5-11.4c-0.8-0.3-1.6-0.4-2.3,0.2c-2.3,1.7-4.4,3.7-5.6,6.4c-0.8,1.5-0.4,2.5,1.2,3c0.6,0.2,1.2,0.3,1.8,0.5
		c2.1,0.7,3.1,2.1,3.2,4.2c0.1,1.5-0.6,2.6-1.4,3.7c-2,2.3-2.2,4.9-1.6,7.8c0.1,0.3,0.1,0.9,0.6,0.3c0.9-0.5,1-1.7,1.8-2.3
		c1.1-1.7,2.8-2.8,4.6-3.8c1.8-1,3.5-1.8,5.6-1.2c1,0,1.6,0.8,2.4,1.1C157.4,18.8,157,17.7,155.7,16.8z M153.4,17.6
		c-2.1,0.2-4,1-5.7,2.2c-0.3,0.2-0.7,0.4-1,0.6c-0.1,0.1-0.2,0.2-0.2,0.2c-1.5,1.3-2.7,2.7-3.8,4.4c-0.3-0.5,0-1.1-0.3-1.6
		c0.1-0.1,0.1-0.2,0.2-0.3c-0.2-0.5,0-1,0.2-1.5c0-0.1,0-0.1,0.1-0.2c0-0.3,0.1-0.7,0.2-1c0.7-1.4,1.8-2.3,3.1-2.9
		c0.3-0.1,0.7-0.2,0.6-0.6c-0.1-0.4-0.4-0.3-0.7-0.2c-0.6,0.2-0.4-0.3-0.4-0.5c0.2-0.8,0.2-1.6,0.2-2.4c-0.1-0.2-0.1-0.4,0.1-0.6
		c0-0.1,0.2,0,0.3,0c0,0,0-0.1,0-0.1c-0.1-0.1,0-0.4-0.2-0.4c-0.5-0.1-0.6-0.5-0.7-1c-0.1-0.4,0.3-0.5,0.5-0.7
		c0.1-0.2-0.1-0.3-0.2-0.5c-0.4-0.4-0.9-0.7-1.2-1.1c0-0.3-0.2-0.6-0.4-0.4c-0.7,0.7-1.2,0.1-1.9-0.2c-0.7-0.3-1.5-0.4-2.3-0.6
		c-0.6-0.2-0.9-0.5-0.5-1.1c1.4-2.2,3.1-4,5.2-5.5c0.4-0.3,0.9-0.3,1.4-0.1c2.4,0.8,4.4,2.2,5.4,4.6c0.1,0.1,0.1,0.1,0.1,0.2
		c0,0,0.1,0.1,0.1,0.2c0,0,0,0,0,0c0.1,0.3,0.1,0.6,0.3,0.8v0c0,0,0,0,0,0c0.1,0,0.1,0.1,0.1,0.1c0,0,0,0.1,0,0.1
		c0.2,0.5,0.3,1,0.3,1.4c0.2,1.3,0,2.3-0.2,2.9c0,0,0,0,0,0l0,0v0c0,0.4-0.2,0.8-0.1,1.2c0,0.1,0,0.2,0,0.3c0,0,0,0.1,0,0.1
		c0,0.2-0.1,0.4-0.2,0.6c0,0.1,0,0.2,0,0.2c0,0,0,0,0,0c0,0.1,0,0.3,0,0.4c0,0.1,0,0.2-0.1,0.3c0.1,0.6-0.3,0.5-0.7,0.4
		c-0.3,0-0.5,0-0.8,0.1c-0.3,0-0.5,0.2-0.5,0.6c0,0.3,0.2,0.6,0.6,0.6c0.6,0,1.2,0,1.8,0.1c0.7,0,1.3,0.3,1.9,0.6
		c-0.3,0-0.5,0-0.8,0C153.4,17.4,153.5,17.5,153.4,17.6z"/>
	<path class="st1" d="M145.4,6.5c0.2,1,0.9,1.9,0.8,3.2c-0.8-1.2-1.8-1.8-2.9-2.2c-1-0.3-1.2-1-0.7-1.9c0.7-1.2,1.5-2.4,2.6-3.2
		c0.6-0.4,1.2-0.5,1.4,0.3c0.4,1.4,0.6,2.8,0.6,4.2C146.5,6.9,146.1,6.4,145.4,6.5z"/>
	<path class="st1" d="M151.8,6.4c-0.1-0.1-0.1-0.2-0.2-0.4c0.1,0.1,0.1,0.1,0.1,0.2C151.8,6.3,151.8,6.4,151.8,6.4z"/>
	<path class="st1" d="M152.3,7.4c0,0,0,0.1,0,0.1c0-0.1-0.1-0.2-0.1-0.3c0,0,0,0,0,0C152.2,7.3,152.3,7.3,152.3,7.4z"/>
	<path class="st1" d="M152.4,11.8C152.4,11.9,152.4,11.9,152.4,11.8C152.4,11.9,152.3,11.8,152.4,11.8
		C152.3,11.8,152.3,11.8,152.4,11.8C152.4,11.8,152.4,11.8,152.4,11.8z"/>
	<path class="st2" d="M145.4,6.5c0.2,1,0.9,1.9,0.8,3.2c-0.8-1.2-1.8-1.8-2.9-2.2c-1-0.3-1.2-1-0.7-1.9c0.7-1.2,1.5-2.4,2.6-3.2
		c0.6-0.4,1.2-0.5,1.4,0.3c0.4,1.4,0.6,2.8,0.6,4.2C146.5,6.9,146.1,6.4,145.4,6.5z"/>
	<path class="st2" d="M152.4,11.8C152.4,11.9,152.4,11.9,152.4,11.8C152.4,11.9,152.3,11.8,152.4,11.8
		C152.3,11.8,152.3,11.8,152.4,11.8C152.4,11.8,152.4,11.8,152.4,11.8z"/>
	<path class="st2" d="M152.4,11.9C152.4,11.9,152.4,11.9,152.4,11.9C152.4,11.9,152.4,11.9,152.4,11.9
		C152.4,11.9,152.4,11.9,152.4,11.9z"/>
	<path class="st3" d="M145.4,6.5c0.2,1,0.9,1.9,0.8,3.2c-0.8-1.2-1.8-1.8-2.9-2.2c-1-0.3-1.2-1-0.7-1.9c0.7-1.2,1.5-2.4,2.6-3.2
		c0.6-0.4,1.2-0.5,1.4,0.3c0.4,1.4,0.6,2.8,0.6,4.2C146.5,6.9,146.1,6.4,145.4,6.5z"/>
	<path class="st0" d="M196.8,89.9c-0.7-1.1-1.4-2.1-1.5-3.5c-0.1-2-1-3.5-2.4-4.9c-0.9-0.9-1.6-1.8-2-2.9c-0.2-0.6-0.2-1.1,0-1.7
		c0-0.9,0.4-1.6,0.7-2.4c0.8-1.9,1.2-3.9,0-5.8c-1.1-1.8-1.1-3.6-0.3-5.5c0.8-2,1.6-4.1,2.3-6.1c0.9-2.5,1.3-5.2,0.9-7.9
		c0.1-1.3-0.2-2.5-0.6-3.8c-1-3.2-0.8-6.4,0.4-9.6c0.8-2.4,2.1-4.7,2.7-7.2c0.1-0.2-0.2-0.3,0-0.5c0.7-1.4,0.7-2.8,0.5-4.3
		c-0.4-2.6-2.2-3.5-4.7-2.6c-0.3,0.2-0.8,0.2-1.1,0.4c-4.2,2.6-7.5,6-9.7,10.5c-0.7,1.4-1.3,2.8-1,4.4c0,0,0,0,0,0
		c0,0.7-0.1,1.4,0,2c0.4,4.3-0.4,8.4-2.2,12.3c-0.9,2.1-1,4.3-0.3,6.6c0.4,1.4,1.5,2.5,1.9,4c0.2,0.3,0.3,0.6,0.5,0.9
		c0.9,1.9,0.6,3.8,0.3,5.8c-0.4,2.9,0.4,5.3,2.5,7.2c2.7,2.4,4,5.5,4.6,9c0.3,1.9,0.7,3.8,1.3,5.6c0.4,1,0.9,2,1.8,2.6
		c1.3,0.7,2.6,1.4,3.9,2c0.2,0.2,0.5,0.4,0.7,0.6c0.8,0.8,1.1,0.8,1.6-0.3c0.2-0.4,0.3-0.8,0.3-1.3C198,92.2,197.5,91,196.8,89.9z
		 M193.8,52.1c-0.2,0.5,0,1.1-0.3,1.7c-0.4,2.6-1.5,5-2.5,7.4c-0.1,0.2-0.2,0.5-0.2,0.7c0,0.3-0.1,0.6-0.4,0.7c0-0.3-0.1-0.7,0.2-1
		c0.1-0.3,0-0.7,0.2-1c0.4-2.8,1.2-5.5,2.4-8.1c0.1-0.3,0.2-0.6,0.3-0.9c0.1,0,0.2,0,0.2,0C194,51.7,193.8,52,193.8,52.1z"/>
	<path class="st4" d="M180.4,61.4c1.1,0.8,1.2,2,1.4,3.1c0.2,1.2-0.1,2.4-0.3,3.5c-0.5,2.9,0.4,5.2,2.5,7.1c3,2.7,4.2,6.2,4.8,10.1
		c0.3,1.7,0.7,3.4,1.3,5c0.4,1.1,1.1,1.8,2.2,2.4c1.1,0.5,2.3,0.8,3.1,1.9c-1.1,1.3-2.1,1.6-3.7,1c-2.6-1.1-4.1-3-5.1-5.6
		c-0.9-2.4-1.2-5-1.6-7.6c-0.4-2.6-1.1-5.1-2.6-7.2c-2.1-3-2.8-6.3-2-9.9C180.6,63.9,180.6,62.6,180.4,61.4z"/>
	<path class="st1" d="M196,16.8c-0.8-0.6-1.7-0.9-2.6-1.2c-0.5-0.1-0.6-0.3-0.5-0.8c0.2-1,0.4-2.1,0.5-3.2c0.6-5.4-1.8-9.6-6.5-11.4
		c-0.8-0.3-1.6-0.4-2.3,0.2c-2.3,1.7-4.4,3.7-5.6,6.4c-0.8,1.5-0.4,2.5,1.2,3c0.6,0.2,1.2,0.3,1.8,0.5c2.1,0.7,3.1,2.1,3.2,4.2
		c0.1,1.5-0.6,2.6-1.4,3.7c-2,2.3-2.2,4.9-1.6,7.8c0.1,0.3,0.1,0.9,0.6,0.3c0.9-0.5,1-1.7,1.8-2.3c1.1-1.7,2.8-2.8,4.6-3.8
		c1.8-1,3.5-1.8,5.6-1.2c1,0,1.6,0.8,2.4,1.1C197.7,18.8,197.2,17.7,196,16.8z M193.7,17.6c-2.1,0.2-3.9,1-5.7,2.2
		c-0.3,0.2-0.7,0.4-1,0.6c-0.1,0.1,0-0.3-0.2-0.1c-0.1,0.1,0,0.2-0.1,0.3c-1.4,1.3-2.7,2.7-3.8,4.4c-0.3-0.5,0-1.1-0.3-1.6
		c0.1-0.1,0.1-0.2,0.2-0.3c-0.2-0.5,0-1,0.2-1.5c0-0.1,0-0.1,0.1-0.2c0-0.3,0.1-0.7,0.2-1c0.7-1.4,1.8-2.3,3.1-2.9
		c0.3-0.1,0.7-0.2,0.6-0.6c-0.1-0.4-0.4-0.3-0.7-0.2c-0.6,0.2-0.4-0.3-0.4-0.5c0.2-0.8,0.2-1.6,0.2-2.4c-0.1-0.2-0.1-0.4,0.1-0.6
		c0-0.1,0.2,0,0.3,0c0,0,0-0.1,0-0.1c-0.1-0.1,0-0.4-0.2-0.4c-0.5-0.1-0.6-0.5-0.7-1c-0.1-0.4,0.3-0.5,0.5-0.7
		c0-0.2-0.1-0.3-0.2-0.5c-0.4-0.4-0.9-0.7-1.2-1.1c0-0.3-0.2-0.6-0.4-0.4c-0.7,0.7-1.2,0.1-1.9-0.2c-0.7-0.3-1.5-0.4-2.3-0.6
		c-0.6-0.2-0.8-0.5-0.5-1.1c1.4-2.2,3.1-4,5.2-5.5c0.4-0.3,0.9-0.3,1.4-0.1c2.4,0.8,4.4,2.2,5.5,4.6c0.1,0.1,0.2,0.2,0.2,0.4
		c0,0,0,0,0,0c0.1,0.3,0.1,0.6,0.3,0.8v0c0,0,0,0,0,0c0.1,0,0.1,0.1,0.1,0.1c0,0,0,0.1,0,0.1c-0.1,0.5,0.2,1,0.2,1.5
		c0,0,0.1-0.1,0.1-0.2c0,0.1-0.1,0.1-0.1,0.2c-0.1,0.8-0.1,1.6-0.1,2.4c0,0.1,0,0.2,0,0.2c0,0,0,0,0,0s0,0,0,0v0
		c0,0.4-0.2,0.8-0.1,1.2c0,0.1,0,0.2,0,0.3c0,0,0,0.1,0,0.1c0,0.2-0.1,0.4-0.1,0.6c0,0.1,0,0.2,0,0.2c0,0,0,0,0,0
		c0,0.1,0,0.3,0.1,0.4c0,0.1,0,0.2-0.1,0.3c0.1,0.6-0.3,0.5-0.7,0.4c-0.3,0-0.6,0-0.8,0.1c-0.3,0-0.5,0.2-0.5,0.6
		c0,0.3,0.2,0.6,0.6,0.6c0.6,0,1.2,0,1.8,0.1c0.7,0,1.3,0.3,1.9,0.6c-0.3,0-0.5,0-0.8,0C193.7,17.4,193.7,17.5,193.7,17.6z"/>
	<path class="st1" d="M193.7,17.6c-2.1,0.2-4,1-5.7,2.2c-0.3,0.2-0.7,0.4-1,0.6c-0.1,0.1,0-0.3-0.2-0.1c0,0.1,0,0.2,0,0.3
		c-1.5,1.3-2.7,2.7-3.8,4.4c-0.3-0.5,0-1.1-0.3-1.6c0.1-0.1,0.1-0.2,0.2-0.3c-0.2-0.5,0-1,0.2-1.5c0-0.1,0.1-0.1,0.1-0.2
		c0-0.3,0.1-0.7,0.2-1c0.7-1.4,1.8-2.3,3.1-2.9c0.3-0.1,0.7-0.2,0.6-0.6c-0.1-0.4-0.4-0.3-0.7-0.2c-0.6,0.2-0.4-0.3-0.4-0.5
		c0.2-0.8,0.2-1.6,0.2-2.4c-0.1-0.2-0.1-0.4,0.1-0.6c0-0.1,0.2,0,0.3,0c0,0,0-0.1,0-0.1c-0.1-0.1,0-0.4-0.2-0.4
		c-0.5-0.1-0.6-0.5-0.7-1c-0.1-0.4,0.3-0.5,0.5-0.7c0-0.2-0.1-0.3-0.2-0.5c-0.4-0.4-0.9-0.7-1.2-1.1c0.1-0.3-0.2-0.6-0.4-0.4
		c-0.7,0.7-1.2,0.1-1.9-0.2c-0.7-0.3-1.5-0.4-2.3-0.6c-0.6-0.2-0.8-0.5-0.5-1.1c1.4-2.2,3.1-4,5.2-5.5c0.4-0.3,0.9-0.3,1.4-0.1
		c2.4,0.8,4.4,2.2,5.5,4.6c0.3,0.3,0.1,0.9,0.6,1.2c0.1,0,0.1,0.1,0.1,0.1c-0.2,0.6,0.1,1.1,0.2,1.7c0,0,0.1-0.1,0.1-0.2
		c0,0.1-0.1,0.1-0.1,0.2c-0.1,0.8-0.1,1.6-0.1,2.4c0,0.1,0,0.2,0,0.2c0,0,0,0.1,0,0.1c0,0,0,0-0.1-0.1c-0.1,0.4-0.2,0.8-0.2,1.2
		c-0.1,0.3-0.2,0.6-0.2,1c-0.1,0.3-0.2,0.6-0.3,0.9c0,0,0,0,0,0.1c-0.1,0.1-0.1,0.2-0.2,0.4c-0.3,0-0.5,0-0.8,0.1
		c-0.3,0-0.5,0.2-0.5,0.6c0,0.3,0.2,0.6,0.6,0.6c0.6,0,1.2,0,1.8,0.1c0.2,0.3,0.5,0.6,0.9,0.7c0.1,0,0.1,0,0.2,0
		C193.7,17.4,193.7,17.5,193.7,17.6z"/>
	<path class="st1" d="M194.9,19c-1.9,0.1-3.8,0.5-5.6,1.2C191.1,19.2,192.9,18.5,194.9,19z"/>
	<path class="st5" d="M194.6,49.2c-0.4-2.3-1.3-4.5-1.5-6.9c-0.3-3.6,1-6.9,2.4-10.1c0.5-1.2,0.8-2.5,1.6-3.6
		c-0.1,2.5-0.8,4.9-1.5,7.2c-0.7,2.3-1,4.5-0.6,6.8C195.3,44.9,195.1,47,194.6,49.2z"/>
	<path class="st4" d="M192.8,21.2c-1.7,1.2-3.5,2.3-5,3.8c-2.9,2.7-5.3,5.8-6.4,9.6c-0.2,0.6-0.1,1.3-0.4,1.9
		c-1.3-1.7-1.5-3.2-0.2-4.9c2.3-3.3,5.1-6.4,8.1-9C190,21.6,191.2,20.9,192.8,21.2z"/>
	<path class="st2" d="M194.9,19c0,0.8-0.2,1.1-1.1,0.9c-1.5-0.3-3,0-4.5,0.2C191.1,19.2,192.9,18.5,194.9,19z"/>
	<path class="st4" d="M195.9,91.6c0.1,0.6,0.2,1.2-0.3,1.7c-1.4-0.7-2.8-1.4-4.1-2.2c-1-0.6-1.2-1.8-1.6-2.8
		c-0.8-2.7-0.9-5.5-1.9-8.1c-0.7-2-1.7-3.8-3.3-5.3c-0.8-0.7-1.4-1.6-2-2.5c-1.1-1.5-0.9-3.2-0.6-4.8c0.5-3.1-0.1-5.8-1.7-8.3
		c-0.1-0.2-0.2-0.3-0.3-0.5c-1.6-2.3-1.6-4.8-0.5-7.3c0.9-2.1,1.5-4.3,2.2-6.4c0.2-0.3,0.2-0.6,0.2-0.9c0.3-0.8,0-1.6,0.5-2.3v-0.4
		c-0.1-1.1-0.2-2.1-0.7-3.1c0-0.2-0.1-0.4-0.2-0.6c-0.2-2.5,1-4.7,2.3-6.7c2.3-3.4,5.2-6.3,8.7-8.5c0.6-0.4,1.2-0.7,2-0.6
		c1.3,0.8,2.1,1.9,2.3,3.5c0.3,2.1-0.8,3.9-1.6,5.7c-1.1,2.4-2,4.9-2.6,7.5c-0.6,2.7,0,5.3,0.8,7.9c0.4,1.5,0.8,2.9,0.6,4.4
		c-0.1,0.2-0.2,0.5-0.2,0.7c0,0-0.1,0-0.2,0c-0.1,0.3-0.2,0.6-0.3,0.9c-1.2,2.6-2,5.3-2.4,8.1c-0.2,0.3-0.2,0.7-0.2,1
		c-0.3,0.3-0.2,0.6-0.2,1c0,1.4-0.5,2.7-0.3,4.1c0.1,0.5,0.2,1.1,0.5,1.6c1.3,2,1.2,4,0.3,6.2c-0.6,1.5-1.1,3-0.6,4.7
		c0.4,1.2,1.1,2.2,2,3c0.9,0.8,1.7,1.7,1.9,2.9c0.1,0.4,0.1,0.9,0.2,1.3c0.2,0.6,0.2,1.2,0.4,1.9c0.1,0.3,0.2,0.6,0.3,0.9
		C195.5,89.9,195.8,90.7,195.9,91.6z"/>
	<path class="st2" d="M193.7,17.6c-2.1,0.2-4,1-5.7,2.2c-0.3,0.2-0.7,0.4-1,0.6c-0.1,0.1-0.2,0.2-0.2,0.2c-1.5,1.3-2.7,2.7-3.8,4.4
		c-0.3-0.5,0-1.1-0.3-1.6c0.1-0.1,0.1-0.2,0.2-0.3c-0.2-0.5,0-1,0.2-1.5c0-0.1,0.1-0.1,0.1-0.2c0-0.3,0.1-0.7,0.2-1
		c0.7-1.4,1.8-2.3,3.1-2.9c0.3-0.1,0.7-0.2,0.6-0.6c-0.1-0.4-0.4-0.3-0.7-0.2c-0.6,0.2-0.4-0.3-0.4-0.5c0.2-0.8,0.2-1.6,0.2-2.4
		c-0.1-0.2-0.1-0.4,0.1-0.6c0-0.1,0.2,0,0.3,0c0,0,0-0.1,0-0.1c-0.1-0.1,0-0.4-0.2-0.4c-0.5-0.1-0.6-0.5-0.7-1
		c-0.1-0.4,0.3-0.5,0.5-0.7c0-0.2-0.1-0.3-0.2-0.5c-0.4-0.4-0.9-0.7-1.2-1.1c0.1-0.3-0.2-0.6-0.4-0.4c-0.7,0.7-1.2,0.1-1.9-0.2
		c-0.7-0.3-1.5-0.4-2.3-0.6c-0.6-0.2-0.8-0.5-0.5-1.1c1.4-2.2,3.1-4,5.2-5.5c0.4-0.3,0.9-0.3,1.4-0.1c2.4,0.8,4.4,2.2,5.5,4.6
		c0.1,0.1,0.1,0.3,0.2,0.4c0.1,0.3,0.1,0.6,0.3,0.8c0,0.1,0.1,0.2,0.1,0.3c0.6,1.9,0.4,3.5,0.2,4.3c0,0,0,0,0,0c0,0,0,0-0.1-0.1
		c0,0.2-0.1,0.4-0.1,0.6c0,0.2-0.1,0.4-0.1,0.6c-0.1,0.3-0.2,0.6-0.2,1c-0.1,0.3-0.2,0.6-0.3,0.9c0,0,0,0,0,0.1
		c-0.1,0.1-0.1,0.2-0.2,0.4c-0.3,0-0.5,0-0.8,0.1c-0.3,0-0.5,0.2-0.5,0.6c0,0.3,0.2,0.6,0.6,0.6c0.6,0,1.2,0,1.8,0.1
		c0.2,0.3,0.5,0.6,0.9,0.7c0.1,0,0.1,0,0.2,0C193.7,17.4,193.7,17.5,193.7,17.6z"/>
	<path class="st2" d="M192.7,11.9C192.7,11.9,192.7,11.9,192.7,11.9C192.7,11.9,192.7,11.9,192.7,11.9
		C192.7,11.9,192.7,11.9,192.7,11.9z"/>
	<path class="st6" d="M192.8,8.9c0,0.1-0.1,0.1-0.1,0.2c0,0,0,0,0,0c0,0,0,0,0,0C192.7,9,192.8,9,192.8,8.9z"/>
	<path class="st7" d="M192.7,11.9C192.6,11.9,192.6,11.8,192.7,11.9C192.6,11.8,192.6,11.8,192.7,11.9
		C192.7,11.8,192.7,11.9,192.7,11.9z"/>
	<path class="st8" d="M184,72.8c0.7-0.1,1.4,0.1,1.1-1c-0.1-0.5,0.6-1.1,1-1.1c0.5,0,1.2,0.4,1.2,1.2c0,0.1,0.7,1.3-0.5,0.8
		c-0.2-0.1-0.2,0.1-0.3,0.3c-0.1,1-0.3,1.3-1.2,0.7C184.9,73.5,184.2,73.4,184,72.8z"/>
	<path class="st3" d="M187.6,6.9c-0.7,0-1.2-0.6-1.9-0.5c0.2,1,0.9,1.9,0.9,3.2c-0.8-1.2-1.8-1.8-2.9-2.2c-1-0.3-1.2-1-0.7-1.9
		c0.7-1.2,1.5-2.3,2.6-3.2c0.6-0.4,1.2-0.5,1.4,0.3C187.3,4.1,187.5,5.5,187.6,6.9z"/>
	<path class="st9" d="M186.6,13.2c0.1-0.1,0.2-0.2,0.3-0.3c0.2,0.2,0.5,0.3,0.4,0.5C186.9,13.8,186.8,13.3,186.6,13.2z"/>
	<path class="st2" d="M192.7,11.9c-0.1,0.4-0.2,0.6-0.2,0.6C192.5,12.2,192.6,12,192.7,11.9C192.6,11.8,192.6,11.9,192.7,11.9z"/>
	<path class="st0" d="M112.9,52c-0.1,0.2-0.1,0.4-0.2,0.6c-0.1,0.3-0.3,0.6-0.4,1L112.9,52z"/>
	<path class="st0" d="M113.4,50.6L113.4,50.6z"/>
	<g>
		<rect x="80.2" y="44.2" class="st10" width="5.3" height="17"/>
		
			<rect x="80.2" y="44.2" transform="matrix(6.123234e-17 -1 1 6.123234e-17 30.1262 135.5848)" class="st10" width="5.3" height="17"/>
	</g>
	<g>
		<rect x="122.9" y="44.2" class="st10" width="5.3" height="17"/>
		
			<rect x="122.9" y="44.2" transform="matrix(6.123234e-17 -1 1 6.123234e-17 72.8461 178.3047)" class="st10" width="5.3" height="17"/>
	</g>
	<g>
		
			<rect x="163.5" y="40.9" transform="matrix(6.123234e-17 -1 1 6.123234e-17 116.7565 215.55)" class="st10" width="5.3" height="17"/>
		
			<rect x="163.5" y="49.1" transform="matrix(6.123234e-17 -1 1 6.123234e-17 108.5614 223.745)" class="st10" width="5.3" height="17"/>
	</g>
	<g>
		<path class="st10" d="M2.1,48.4v-2.4H4v-1.9H2.1v-2h2v-2H0v10.3h4.3v-2H2.1z"/>
		<path class="st10" d="M7.7,40.1v7.9c0,0.4-0.1,0.6-0.5,0.6c-0.2,0-0.3,0-0.4-0.2c-0.1-0.1-0.1-0.3-0.1-0.4v-2.5h-2v2.6
			c0,0.5,0.1,1,0.3,1.3c0.2,0.3,0.5,0.6,0.9,0.8s0.8,0.3,1.3,0.3c0.5,0,0.9-0.1,1.3-0.3c0.4-0.2,0.7-0.5,0.9-0.9
			c0.2-0.4,0.3-0.9,0.3-1.4v-7.7H7.7z"/>
		<path class="st10" d="M12.6,48.4v-2.4h2v-1.9h-2v-2h2v-2h-4.1v10.3h4.3v-2H12.6z"/>
		<path class="st10" d="M20.3,40.1l-0.9,6.3l-0.9-6.3h-3.1v10.3h1.9V43l1.3,7.4h1.8l1.2-7.4v7.4h1.9V40.1H20.3z"/>
		<path class="st10" d="M29.2,41.6c-0.1-0.5-0.4-0.8-0.7-1.1c-0.3-0.2-0.8-0.4-1.4-0.4h-2.7v10.3h2v-4.1h0.8c0.6,0,1-0.1,1.3-0.4
			c0.3-0.2,0.5-0.6,0.7-1.1c0.1-0.5,0.2-1,0.2-1.6C29.4,42.6,29.4,42.1,29.2,41.6z M27.3,44.2c-0.1,0.2-0.3,0.3-0.7,0.3h-0.1V42h0.2
			c0.3,0,0.5,0.1,0.6,0.3c0.1,0.2,0.1,0.5,0.1,0.9C27.4,43.7,27.4,44,27.3,44.2z"/>
		<path class="st10" d="M32.2,48.7v-8.6h-2.1v10.3h4.2v-1.8H32.2z"/>
		<path class="st10" d="M39.2,40.7c-0.4-0.5-1.1-0.7-1.9-0.7s-1.5,0.2-1.9,0.7c-0.4,0.4-0.6,1.1-0.6,2v4.9c0,1,0.2,1.7,0.6,2.2
			c0.4,0.5,1.1,0.8,1.9,0.8c0.8,0,1.5-0.2,1.9-0.8c0.4-0.5,0.6-1.2,0.6-2.2v-4.9C39.9,41.9,39.7,41.2,39.2,40.7z M37.8,47.7
			c0,0.6-0.2,0.9-0.5,0.9c-0.2,0-0.3-0.1-0.4-0.2c-0.1-0.1-0.1-0.4-0.1-0.7v-5c0-0.5,0.2-0.8,0.5-0.8c0.3,0,0.5,0.2,0.5,0.8V47.7z"
			/>
	</g>
	<g>
		<path class="st10" d="M209.5,55.1v-2.4h2v-1.9h-2v-2h2v-2h-4.1v10.3h4.3v-2H209.5z"/>
		<path class="st10" d="M217.1,52.9c-0.1-0.3-0.3-0.6-0.5-0.9c-0.2-0.3-0.4-0.5-0.7-0.7l-1.2-1.1c-0.2-0.2-0.4-0.4-0.5-0.6
			c-0.1-0.2-0.1-0.3-0.1-0.5c0-0.2,0-0.3,0.1-0.4c0.1-0.1,0.2-0.1,0.4-0.1c0.1,0,0.2,0,0.3,0.1s0.1,0.2,0.1,0.3v0.7h2.1
			c0-1-0.2-1.8-0.6-2.3c-0.4-0.5-1.1-0.8-2-0.8c-0.8,0-1.4,0.2-1.8,0.7c-0.4,0.5-0.6,1.1-0.6,2c0,0.8,0.4,1.6,1,2.2l0.9,0.9
			c0.3,0.3,0.5,0.5,0.7,0.7c0.1,0.2,0.3,0.4,0.3,0.6c0.1,0.2,0.1,0.5,0.1,0.8c0,0.2,0,0.4-0.1,0.5c-0.1,0.1-0.2,0.2-0.4,0.2
			s-0.3-0.1-0.4-0.2c-0.1-0.1-0.1-0.3-0.1-0.6v-1.3h-2v1c0,1,0.2,1.8,0.6,2.2c0.4,0.5,1.1,0.7,2,0.7c0.9,0,1.5-0.3,1.9-0.8
			c0.3-0.5,0.5-1.3,0.5-2.3C217.2,53.6,217.2,53.2,217.1,52.9z"/>
		<path class="st10" d="M217.6,46.8v2h1.2v8.3h2.1v-8.3h1.2v-2H217.6z"/>
		<path class="st10" d="M226.7,46.8h-3.5l-1,10.3h2l0.1-1.7h1.2l0.1,1.7h2L226.7,46.8z M224.5,53.8l0.4-5.2h0.1l0.5,5.2H224.5z"/>
		<path class="st10" d="M233.2,46.8l-0.9,6.3l-0.9-6.3h-3.1v10.3h1.9v-7.4l1.2,7.4h1.9l1.2-7.4v7.4h1.9V46.8H233.2z"/>
		<path class="st10" d="M242.1,48.2c-0.2-0.5-0.4-0.8-0.7-1.1c-0.3-0.2-0.8-0.4-1.4-0.4h-2.7v10.3h2V53h0.8c0.6,0,1-0.1,1.3-0.4
			c0.3-0.3,0.5-0.6,0.6-1.1c0.1-0.5,0.2-1,0.2-1.6C242.3,49.3,242.2,48.7,242.1,48.2z M240.1,50.8c-0.1,0.2-0.3,0.3-0.7,0.3h-0.1
			v-2.5h0.2c0.3,0,0.5,0.1,0.6,0.3c0.1,0.2,0.1,0.5,0.1,0.9C240.3,50.3,240.2,50.6,240.1,50.8z"/>
		<path class="st10" d="M247,46.8h-3.5l-1,10.3h2l0.1-1.7h1.2l0.2,1.7h1.9L247,46.8z M244.8,53.8l0.4-5.2h0.1l0.5,5.2H244.8z"/>
		<path class="st10" d="M211.6,63.2v-2h-4.1v10.3h2.1v-4.7h1.9v-2h-1.9v-1.6H211.6z"/>
		<path class="st10" d="M212.1,61.2v10.3h2V61.2H212.1z"/>
		<path class="st10" d="M218,61.2v4.9l-1-4.9H215v10.3h2v-5.1l1,5.1h2V61.2H218z"/>
		<path class="st10" d="M225.1,61.2h-3.5l-1,10.3h2l0.1-1.7h1.2l0.1,1.7h2L225.1,61.2z M222.9,68.2l0.4-5.2h0.1l0.5,5.2H222.9z"/>
		<path class="st10" d="M228.8,69.7v-8.6h-2.1v10.3h4.2v-1.8H228.8z"/>
	</g>
	<g>
		<path class="st10" d="M28.4,53.2c0,0,2.4,5.7,15.4,1.9v-2.6l7.5,4.4l-6.8,5.7l-0.2-2.2C44.4,60.4,33.1,61.7,28.4,53.2z"/>
	</g>
</g>
<path class="st0" d="M116.5,28.6c-0.1,2.5-0.8,4.9-1.5,7.2c-0.7,2.3-1,4.5-0.6,6.9c0.4,2.2,0.1,4.4-0.4,6.5l-0.6,1.5l-0.4,1
	c0,0.1-0.1,0.2-0.1,0.4l-0.6,1.5l0,0.1l0,0c-1,2.3-1.6,4.6-2,7c-0.2,0.3-0.2,0.7-0.2,1c-0.3,0.3-0.2,0.6-0.2,1l0.5,1.4
	c-0.5,1.6-0.3,3.1,0.6,4.6c1.2,1.9,0.8,3.9,0,5.8c-0.3,0.8-0.7,1.5-0.7,2.4c-0.2,0.6-0.2,1.1,0,1.7c0.4,1.2,1.2,2.1,2,2.9
	c1.4,1.4,2.3,2.9,2.4,4.9c0,0.6,0.2,1.1,0.4,1.6c1.5,4.2-1.1,7.1-1.3,7.4c0,0,0,0,0,0c-0.8,0.5-1.6,0.5-2.7,0.1
	c-2.6-1.1-4.1-3-5.1-5.6c-0.9-2.5-1.2-5-1.6-7.6c-0.4-2.6-1.1-5.1-2.6-7.2c-2.1-3-2.8-6.3-2-9.9c0.3-1.2,0.3-2.5,0-3.8h0
	c-0.4-1.4-1.4-2.5-1.9-4c-0.7-2.3-0.6-4.5,0.3-6.6c1.8-4,2.6-8,2.2-12.3c-0.1-0.7,0-1.4,0-2c-1.3-1.7-1.5-3.2-0.2-4.9
	c2.3-3.3,5.1-6.4,8.1-9c1.1-1,2.3-1.7,3.9-1.4c2.5-0.9,4.2,0,4.7,2.6c0.2,1.5,0.2,2.9-0.5,4.3C116.4,28.3,116.6,28.4,116.5,28.6z"/>
</svg>
