<?xml version="1.0" encoding="utf-8"?>
<!-- Generator: Adobe Illustrator 25.4.1, SVG Export Plug-In . SVG Version: 6.00 Build 0)  -->
<svg version="1.1" id="Capa_1" xmlns="http://www.w3.org/2000/svg" xmlns:xlink="http://www.w3.org/1999/xlink" x="0px" y="0px"
	 viewBox="0 0 153.9 109.3" style="enable-background:new 0 0 153.9 109.3;" xml:space="preserve">
<style type="text/css">
	.st0{fill:#EEF3F6;}
	.st1{fill:#8F6E84;}
	.st2{fill:#221932;}
	.st3{fill:none;}
	.st4{fill:#231A32;}
</style>
<rect x="13.2" y="2" class="st0" width="138.7" height="90.1"/>
<g>
	<path class="st1" d="M152.2,56.7c-3.3,5.3-3.4,11.1-0.2,16.5l0.4,0.7v18.4c0,1.1-1.5,2-3.3,2h-3.4v-4l0,0V74.5
		c-3.6-6.1-3.6-12.8,0-18.9V16.8c0-2.1-0.7-6-1.8-7.7c-2-3-5.7-5-11.5-5l-0.2-2h0.4c14.9,0,18.4,8.1,19.8,11.5l0.1,0.4v42.4
		L152.2,56.7z"/>
	<path class="st1" d="M16.5,92.1h5.1v-18l-0.1-0.3c-2.1-5.8-2-12.1,0.1-17.9l0,0v-42c0,0-2.5-11.9-9.8-11.9S2,13.9,2,13.9V56l0,0
		c2.1,5.7,2.2,12,0.1,17.8L2,74.1v18h7.5"/>
	<rect x="8.5" y="81" class="st1" width="8.2" height="24.6"/>
	<rect x="16.7" y="91.6" class="st2" width="129.9" height="15.6"/>
	<path class="st2" d="M152,94.1H21.6v-4h128.3V74.5c-2.2-6.1-2.2-12.8,0-18.9V14.1c-0.3-1.4-2.7-10.1-7.8-10.1H11.8V0h130.3
		c8.9,0,11.6,12.9,11.8,13.5v0.4v42.4l-0.1,0.3c-2,5.3-2,11.1-0.1,16.5l0.2,0.7v18.4C153.9,93.3,153.1,94.1,152,94.1z"/>
	<path class="st2" d="M23.5,94.1h-7c0,0-0.1,0-0.1-0.1v-3.9c0,0,0-0.1,0.1-0.1h1.3c0.9,0,1.7-0.8,1.7-1.7V74.4l0,0
		c-2.2-6.1-2.2-12.8,0-18.9l0,0V14l0,0c-0.2-1.3-2.6-10-7.7-10S4.3,12.7,4,14.1l0,0v41.5l0,0c2.2,6.1,2.2,12.8,0,18.9l0,0v13.9
		c0,0.9,0.8,1.7,1.7,1.7h3.8c0,0,0.1,0,0.1,0.1v3.9c0,0,0,0.1-0.1,0.1H2.4c-1.3,0-2.4-1.1-2.4-2.4v-18l0,0l0.2-0.6
		C2.1,67.8,2.1,62,0.1,56.6L0,56.3l0,0V13.5l0,0C0.2,12.9,2.9,0,11.8,0s11.6,12.9,11.8,13.5v0.4v42.4l0,0l-0.1,0.3
		c-2,5.3-2,11.2-0.1,16.5l0.2,0.6l0,0L23.5,94.1C23.6,94.1,23.6,94.1,23.5,94.1z"/>
	<polygon class="st2" points="18.5,107.3 16.5,107.3 16.5,82 9.5,82 9.5,91.6 7.5,91.6 7.5,80 18.5,80 	"/>
	<line class="st3" x1="21.6" y1="55.1" x2="151.9" y2="55.1"/>
	<rect x="21.6" y="54.1" class="st2" width="130.3" height="2"/>
	<line class="st3" x1="21.6" y1="75.9" x2="151.9" y2="75.9"/>
	<rect x="21.6" y="74.9" class="st2" width="130.3" height="2"/>
	<path class="st2" d="M147.2,109.3H7c-0.8,0-1.4-0.6-1.4-1.4V93.6c0-0.8,0.6-1.4,1.4-1.4h1.1c0.8,0,1.4,0.6,1.4,1.4v10.3
		c0,0.8,0.6,1.4,1.4,1.4h132.2c0.8,0,1.4-0.6,1.4-1.4V93.6c0-0.8,0.6-1.4,1.4-1.4h1.1c0.8,0,1.4,0.6,1.4,1.4v14.3
		C148.6,108.6,148,109.3,147.2,109.3z"/>
	<rect x="139.9" y="94.1" class="st2" width="4.7" height="11.1"/>
</g>
<ellipse class="st2" cx="38.1" cy="65" rx="3.3" ry="4.5"/>
<ellipse class="st2" cx="84.3" cy="65" rx="3.3" ry="4.5"/>
<ellipse class="st2" cx="130.4" cy="65" rx="3.3" ry="4.5"/>
<g>
	<rect x="8.5" y="84.3" transform="matrix(0.9351 -0.3543 0.3543 0.9351 -29.1934 10.1582)" class="st4" width="9.3" height="1"/>
</g>
<g>
	<rect x="8.5" y="87" transform="matrix(0.9351 -0.3543 0.3543 0.9351 -30.1488 10.3366)" class="st4" width="9.3" height="1"/>
</g>
<g>
	<rect x="8.5" y="81.6" transform="matrix(0.9351 -0.3543 0.3543 0.9351 -28.238 9.9798)" class="st4" width="9.3" height="1"/>
</g>
<g>
	<rect x="8.5" y="89.7" transform="matrix(0.9351 -0.3543 0.3543 0.9351 -31.1042 10.5149)" class="st4" width="9.3" height="1"/>
</g>
<g>
	<rect x="8.5" y="92.3" transform="matrix(0.9351 -0.3543 0.3543 0.9351 -32.0288 10.6747)" class="st4" width="9.3" height="1"/>
</g>
<g>
	<rect x="8.5" y="95" transform="matrix(0.9351 -0.3543 0.3543 0.9351 -32.9842 10.853)" class="st4" width="9.3" height="1"/>
</g>
<g>
	<rect x="8.5" y="97.7" transform="matrix(0.9351 -0.3543 0.3543 0.9351 -33.9396 11.0314)" class="st4" width="9.3" height="1"/>
</g>
<g>
	<rect x="8.5" y="100.4" transform="matrix(0.9351 -0.3543 0.3543 0.9351 -34.8949 11.2098)" class="st4" width="9.3" height="1"/>
</g>
<g>
	<rect x="8.5" y="103" transform="matrix(0.9351 -0.3543 0.3543 0.9351 -35.8195 11.3695)" class="st4" width="9.3" height="1"/>
</g>
<g>
	<rect x="8.5" y="105.7" transform="matrix(0.9351 -0.3543 0.3543 0.9351 -36.7749 11.5479)" class="st4" width="9.3" height="1"/>
</g>
</svg>
