<?xml version="1.0" encoding="utf-8"?>
<!-- Generator: Adobe Illustrator 25.4.1, SVG Export Plug-In . SVG Version: 6.00 Build 0)  -->
<svg version="1.1" id="Capa_1" xmlns="http://www.w3.org/2000/svg" xmlns:xlink="http://www.w3.org/1999/xlink" x="0px" y="0px"
	 viewBox="0 0 153.9 109.3" style="enable-background:new 0 0 153.9 109.3;" xml:space="preserve">
<style type="text/css">
	.st0{fill:#F4B661;}
	.st1{fill:#967A5F;}
	.st2{fill:#F4D796;}
	.st3{fill:#ECB091;}
	.st4{fill:#EF5F60;}
	.st5{fill:#221932;}
	.st6{fill:#9C535E;}
</style>
<g>
	<path class="st0" d="M11.8,2h130.3c7.4,0,9.8,11.9,9.8,11.9V56v0c-2.1,5.8-2.2,12.1-0.1,17.9l0.1,0.3v18h-6.6H21.6"/>
	<path class="st1" d="M152.2,56.7c-3.3,5.3-3.4,11.1-0.2,16.5l0.4,0.7v18.4c0,1.1-1.5,2-3.3,2h-3.4v-4h0V74.5
		c-3.6-6.1-3.6-12.8,0-18.9V16.8c0-2.1-0.7-6-1.8-7.7c-2-3-5.7-5-11.5-5l-0.2-2h0.4c14.9,0,18.4,8.1,19.8,11.5l0.1,0.4v42.4
		L152.2,56.7z"/>
	<path class="st2" d="M16.5,92.1h5.1v-18l-0.1-0.3c-2.1-5.8-2-12.1,0.1-17.9l0,0V13.9c0,0-2.5-11.9-9.8-11.9S2,13.9,2,13.9V56l0,0
		C4.1,61.7,4.2,68,2.1,73.8L2,74.1v18h7.5"/>
	<rect x="8.5" y="81" class="st3" width="8.2" height="24.6"/>
	<rect x="16.7" y="91.6" class="st4" width="129.9" height="15.6"/>
	<path class="st5" d="M152,94.1H21.6v-4h128.3V74.5c-2.2-6.1-2.2-12.8,0-18.9V14.1c-0.3-1.4-2.7-10.1-7.8-10.1H11.8V0h130.3
		c8.9,0,11.6,12.9,11.8,13.5l0,0.4v42.4l-0.1,0.3c-2,5.3-2,11.1-0.1,16.5l0.2,0.7v18.4C153.9,93.3,153.1,94.1,152,94.1z"/>
	<path class="st5" d="M23.5,94.1h-7c0,0-0.1,0-0.1-0.1v-3.9c0,0,0-0.1,0.1-0.1h1.3c0.9,0,1.7-0.8,1.7-1.7l0-13.9c0,0,0,0,0,0
		c-2.2-6.1-2.2-12.8,0-18.9c0,0,0,0,0,0l0-41.5c0,0,0,0,0,0C19.3,12.7,16.9,4,11.8,4C6.7,4,4.3,12.7,4,14.1c0,0,0,0,0,0l0,41.5
		c0,0,0,0,0,0c2.2,6.1,2.2,12.8,0,18.9c0,0,0,0,0,0l0,13.9c0,0.9,0.8,1.7,1.7,1.7h3.8c0,0,0.1,0,0.1,0.1v3.9c0,0,0,0.1-0.1,0.1H2.4
		c-1.3,0-2.4-1.1-2.4-2.4v-18c0,0,0,0,0,0l0.2-0.6C2.1,67.8,2.1,62,0.1,56.6L0,56.3c0,0,0,0,0,0l0-42.8c0,0,0,0,0,0
		C0.2,12.9,2.9,0,11.8,0c8.9,0,11.6,12.9,11.8,13.5l0,0.4v42.4c0,0,0,0,0,0l-0.1,0.3c-2,5.3-2,11.2-0.1,16.5l0.2,0.6c0,0,0,0,0,0
		L23.5,94.1C23.6,94.1,23.6,94.1,23.5,94.1z"/>
	<polygon class="st5" points="18.5,107.3 16.5,107.3 16.5,82 9.5,82 9.5,91.6 7.5,91.6 7.5,80 18.5,80 	"/>
	<line class="st2" x1="21.6" y1="55.1" x2="151.9" y2="55.1"/>
	<rect x="21.6" y="54.1" class="st5" width="130.3" height="2"/>
	<line class="st2" x1="21.6" y1="75.9" x2="151.9" y2="75.9"/>
	<rect x="21.6" y="74.9" class="st5" width="130.3" height="2"/>
	<path class="st5" d="M147.2,109.3H7c-0.8,0-1.4-0.6-1.4-1.4V93.6c0-0.8,0.6-1.4,1.4-1.4h1.1c0.8,0,1.4,0.6,1.4,1.4v10.3
		c0,0.8,0.6,1.4,1.4,1.4h132.2c0.8,0,1.4-0.6,1.4-1.4V93.6c0-0.8,0.6-1.4,1.4-1.4h1.1c0.8,0,1.4,0.6,1.4,1.4v14.3
		C148.6,108.6,148,109.3,147.2,109.3z"/>
	<rect x="139.9" y="94.1" class="st6" width="4.7" height="11.1"/>
</g>
</svg>
