<?xml version="1.0" encoding="utf-8"?>
<!-- Generator: Adobe Illustrator 25.4.1, SVG Export Plug-In . SVG Version: 6.00 Build 0)  -->
<svg version="1.1" id="Capa_1" xmlns="http://www.w3.org/2000/svg" xmlns:xlink="http://www.w3.org/1999/xlink" x="0px" y="0px"
	 viewBox="0 0 68.1 66.9" style="enable-background:new 0 0 68.1 66.9;" xml:space="preserve">
<style type="text/css">
	.st0{fill:#FFFFFF;}
	.st1{fill:#0D1257;}
</style>
<g>
	<circle class="st0" cx="30.8" cy="36.1" r="30.8"/>
	<g>
		<path class="st1" d="M25,52.9c-1.1-3.4-2.4-6.6-3.8-9.7c-0.8-1.8-1.7-3.6-2.7-5.3c-1.4-2.5-3.2-4.6-6-5.7c2.1-2.1,4.2-4,7.2-4.5
			c1-0.2,1.9,0.1,2.7,0.7c1,0.8,1.8,1.8,2.5,2.9c1.4,2.1,2.4,4.4,3.4,6.7c0.1,0.3,0.2,0.5,0.3,0.8C38.5,23.1,50.8,9.8,66.6,0
			c0.3,0.4,0.5,0.8,0.8,1.1c0.2,0.3,0.4,0.6,0.7,1c-0.8,0.6-1.6,1.3-2.4,1.9c-4.2,3.5-8,7.5-11.5,11.7c-5.9,6.9-11.3,14.1-16,21.8
			c-1.8,3-3.4,6.2-5.1,9.3c-0.1,0.2-0.3,0.5-0.5,0.6c-2.1,1.5-4.3,3.1-6.4,4.6C25.8,52.3,25.4,52.6,25,52.9z"/>
	</g>
</g>
</svg>
