<?xml version="1.0" encoding="utf-8"?>
<!-- Generator: Adobe Illustrator 25.4.1, SVG Export Plug-In . SVG Version: 6.00 Build 0)  -->
<svg version="1.1" id="Capa_1" xmlns="http://www.w3.org/2000/svg" xmlns:xlink="http://www.w3.org/1999/xlink" x="0px" y="0px"
	 viewBox="0 0 101.6 176.2" style="enable-background:new 0 0 101.6 176.2;" xml:space="preserve">
<style type="text/css">
	.st0{fill:#8D929D;}
	.st1{fill:#8F6F85;}
	.st2{fill:#231A32;}
</style>
<g>
	<g>
		<polygon class="st0" points="75,21.1 75,38.4 89.7,56.9 90.6,164.2 82.8,174.2 91.5,174.2 97.5,170.9 99.6,164.5 99.6,56.2 
			85.9,37.3 86.4,21.5 		"/>
	</g>
	<g>
		<rect x="11" y="2" class="st1" width="79.7" height="20.1"/>
		<path class="st2" d="M90.6,24.1H11c-1.1,0-2-0.9-2-2V2c0-1.1,0.9-2,2-2h79.7c1.1,0,2,0.9,2,2v20.1C92.6,23.2,91.7,24.1,90.6,24.1z
			 M13,20.1h75.7V4H13V20.1z"/>
	</g>
	<g>
		<path class="st2" d="M86.4,40.4H15.1c-1.1,0-2-0.9-2-2V22.1c0-1.1,0.9-2,2-2h71.3c1.1,0,2,0.9,2,2v16.3
			C88.4,39.5,87.5,40.4,86.4,40.4z M17.1,36.4h67.3V24.1H17.1V36.4z"/>
	</g>
	<g>
		<path class="st2" d="M88.7,176.2H12.9c-7.1,0-12.9-5.8-12.9-12.9V57.1c0-0.4,0.1-0.8,0.4-1.2l13.3-18.7l3.3,2.3L4,57.7v105.6
			c0,4.9,4,8.9,8.9,8.9h75.7c4.9,0,8.9-4,8.9-8.9V57.7L84.6,39.6l3.3-2.3l13.3,18.7c0.2,0.3,0.4,0.7,0.4,1.2v106.2
			C101.6,170.4,95.8,176.2,88.7,176.2z"/>
	</g>
	<g>
		<rect x="5.4" y="160.3" class="st2" width="90.5" height="2"/>
	</g>
	<g>
		<rect x="5.4" y="56.1" class="st2" width="90.5" height="2"/>
	</g>
	<g>
		<path class="st1" d="M76.3,139H26.4c-3.1,0-5.6-2.5-5.6-5.6V90.3c0-3.1,2.5-5.6,5.6-5.6h49.9c3.1,0,5.6,2.5,5.6,5.6v43.1
			C81.9,136.5,79.4,139,76.3,139z"/>
		<path class="st2" d="M76.3,140H26.4c-3.6,0-6.6-3-6.6-6.6V90.3c0-3.6,3-6.6,6.6-6.6h49.9c3.6,0,6.6,3,6.6,6.6v43.1
			C82.9,137.1,79.9,140,76.3,140z M26.4,85.7c-2.5,0-4.6,2.1-4.6,4.6v43.1c0,2.5,2.1,4.6,4.6,4.6h49.9c2.5,0,4.6-2.1,4.6-4.6V90.3
			c0-2.5-2.1-4.6-4.6-4.6H26.4z"/>
	</g>
	<g>
		<path class="st2" d="M53.9,22.1v19.2c0,1.7,1.4,3.1,3.1,3.1h0c1.7,0,3.1-1.4,3.1-3.1v-7.8c0-1.1,0.9-2,2-2h0c1.1,0,2,0.9,2,2v14.9
			c0,1.9,1.5,3.4,3.4,3.4h0c1.9,0,3.4-1.5,3.4-3.4V22.1"/>
	</g>
	<g>
		<line class="st1" x1="81.1" y1="2" x2="81.1" y2="21.1"/>
		<rect x="80.1" y="2" class="st2" width="2" height="19.1"/>
	</g>
	<g>
		<line class="st1" x1="75" y1="2" x2="75" y2="21.1"/>
		<rect x="74" y="2" class="st2" width="2" height="19.1"/>
	</g>
	<g>
		<line class="st1" x1="68.8" y1="2" x2="68.8" y2="21.1"/>
		<rect x="67.8" y="2" class="st2" width="2" height="19.1"/>
	</g>
	<g>
		<line class="st1" x1="62.7" y1="2" x2="62.7" y2="21.1"/>
		<rect x="61.7" y="2" class="st2" width="2" height="19.1"/>
	</g>
	<g>
		<line class="st1" x1="56.5" y1="2" x2="56.5" y2="21.1"/>
		<rect x="55.5" y="2" class="st2" width="2" height="19.1"/>
	</g>
	<g>
		<line class="st1" x1="50.4" y1="2" x2="50.4" y2="21.1"/>
		<rect x="49.4" y="2" class="st2" width="2" height="19.1"/>
	</g>
	<g>
		<line class="st1" x1="44.2" y1="2" x2="44.2" y2="21.1"/>
		<rect x="43.2" y="2" class="st2" width="2" height="19.1"/>
	</g>
	<g>
		<line class="st1" x1="38.1" y1="2" x2="38.1" y2="21.1"/>
		<rect x="37.1" y="2" class="st2" width="2" height="19.1"/>
	</g>
	<g>
		<line class="st1" x1="31.9" y1="2" x2="31.9" y2="21.1"/>
		<rect x="30.9" y="2" class="st2" width="2" height="19.1"/>
	</g>
	<g>
		<line class="st1" x1="25.8" y1="2" x2="25.8" y2="21.1"/>
		<rect x="24.8" y="2" class="st2" width="2" height="19.1"/>
	</g>
	<g>
		<line class="st1" x1="19.6" y1="2" x2="19.6" y2="21.1"/>
		<rect x="18.6" y="2" class="st2" width="2" height="19.1"/>
	</g>
</g>
</svg>
