<?xml version="1.0" encoding="utf-8"?>
<!-- Generator: Adobe Illustrator 25.4.1, SVG Export Plug-In . SVG Version: 6.00 Build 0)  -->
<svg version="1.1" id="Capa_1" xmlns="http://www.w3.org/2000/svg" xmlns:xlink="http://www.w3.org/1999/xlink" x="0px" y="0px"
	 viewBox="0 0 381.3 800.3" style="enable-background:new 0 0 381.3 800.3;" xml:space="preserve">
<style type="text/css">
	.st0{fill:#8F6E84;}
	.st1{fill:none;stroke:#221932;stroke-width:4;stroke-miterlimit:10;}
	.st2{fill:#8F939E;}
	.st3{fill:#8F939E;stroke:#221932;stroke-width:4;stroke-miterlimit:10;}
	.st4{fill:none;stroke:#221932;stroke-width:4;stroke-linejoin:round;stroke-miterlimit:10;}
	.st5{fill:none;stroke:#221932;stroke-width:2;stroke-linejoin:round;stroke-miterlimit:10;}
	.st6{fill:none;stroke:#221932;stroke-width:2;stroke-miterlimit:10;}
	.st7{fill:#221932;stroke:#8F6E84;stroke-width:4;stroke-linejoin:round;stroke-miterlimit:10;}
	.st8{fill:#8F939E;stroke:#221932;stroke-width:4;stroke-linejoin:round;stroke-miterlimit:10;}
	.st9{fill:#221932;}
	.st10{fill:#010101;}
	.st11{fill:none;stroke:#221932;stroke-width:4;stroke-linecap:round;stroke-linejoin:round;stroke-miterlimit:10;}
</style>
<g>
	<polygon class="st0" points="156.6,179.6 342.8,100.4 343.9,56.8 154.2,137.5 	"/>
	<path class="st1" d="M154.2,137.5V178c0,1.3-1.3,2.1-2.5,1.6l-131-58.8L72,100c0.4-0.2,0.9-0.2,1.4,0l79.8,35.8
		C153.8,136.2,154.2,136.8,154.2,137.5z"/>
	<polyline class="st2" points="33.1,88.1 39.6,84.8 153.2,135.9 151.7,144.6 143.6,142.4 31.6,88.8 	"/>
	<polygon class="st3" points="151.7,146 151.7,170 31.6,116 31.6,92 	"/>
	<line class="st4" x1="29.6" y1="89.8" x2="41" y2="84.1"/>
	<line class="st5" x1="150.6" y1="153.8" x2="31.6" y2="100.9"/>
	<line class="st5" x1="150.6" y1="160.7" x2="31.6" y2="107.8"/>
	<path class="st1" d="M343.9,56.8v42c0,0.7-0.4,1.3-1.1,1.6l-186.2,79.3c-1.1,0.5-2.4-0.4-2.4-1.6v-40.5c0-0.7-0.4-1.3-1-1.6
		L72.7,99.7L20.8,76.4l184-74.3c0.4-0.2,0.9-0.2,1.3,0l136.7,53.1C343.5,55.4,343.9,56.1,343.9,56.8z"/>
	<line class="st6" x1="323.6" y1="65.4" x2="173.5" y2="129.3"/>
	<g>
		<path class="st7" d="M357.3,226.2l-15,6.4l-174.6,74.3L49.7,253.8l-14.3-6.4l184-74.3c0.4-0.2,0.9-0.2,1.3,0L357.3,226.2z"/>
		<polygon class="st7" points="167.7,306.9 167.7,319.1 35.3,259.6 35.3,247.4 49.7,253.8 		"/>
		<polygon class="st7" points="357.3,226.2 357.3,238.4 167.7,319.1 167.7,306.9 342.3,232.5 		"/>
		<ellipse transform="matrix(0.9481 -0.318 0.318 0.9481 -73.1375 43.7522)" class="st0" cx="97.5" cy="245.9" rx="12.8" ry="5.3"/>
		<ellipse transform="matrix(0.9481 -0.318 0.318 0.9481 -70.2721 74.194)" class="st0" cx="192.1" cy="252.4" rx="12.8" ry="5.3"/>
		<ellipse transform="matrix(0.9481 -0.318 0.318 0.9481 -51.5455 74.8824)" class="st0" cx="203.6" cy="195.3" rx="8" ry="3.9"/>
		<ellipse transform="matrix(0.9481 -0.318 0.318 0.9481 -57.9449 106.072)" class="st0" cx="295.9" cy="230.5" rx="7.3" ry="3.6"/>
	</g>
	<g>
		<polyline class="st2" points="29.1,398.8 213.5,324.2 213.5,334.1 41.8,404 28.7,398.9 		"/>
		<polygon class="st2" points="162.9,485.2 162.9,469.9 379.3,378.5 380.4,394.1 		"/>
		<polygon class="st0" points="42.6,404.3 214.7,334.6 338.2,382.5 161.5,458.3 		"/>
		<polygon class="st4" points="2,398.3 213.4,312.7 379.3,377.1 161.4,469.9 		"/>
		<polygon class="st6" points="29.1,398.8 161.5,458.3 351.1,377.6 213.5,324.2 		"/>
		<polyline class="st6" points="40.7,404 213.5,334.1 338.9,382.8 		"/>
		<line class="st1" x1="161.4" y1="469.9" x2="161.4" y2="485.8"/>
		<polyline class="st4" points="379.3,377.1 379.3,393 379.3,393 161.4,485.8 2,414.2 2,414.2 2,398.3 		"/>
		<line class="st6" x1="213.5" y1="324.2" x2="213.5" y2="334.1"/>
	</g>
	<polygon class="st8" points="2,565.2 213.4,479.7 379.3,544.1 161.4,636.9 	"/>
	<g>
		<path class="st9" d="M242.8,516.9c-0.6,1.2-1,2.4-3.1,3.4c-3.1,1.4-4,3.1-3.9,5.1c0,1.3-0.2,2.4-1.4,3.4c-0.6,0.6-1.5,0.9-2.8,1.2
			c-1.5,0.6-3.3,0.8-5.1,1.2c-4.5,0.7-8.5,1.8-9.6,4.1c-1.1,2.1-4.2,3.4-8.7,4.1c-4.7,0.8-9.7,1.7-14.3,2.6
			c-5.8,1.1-11.2,2.8-15.2,5c-2.4,0.9-4,2-5.6,3.2c-3.9,3.1-9.9,5.3-17.7,6.8c-5.7,1.2-12.1,1.9-17.6,3.3c-0.5,0.1-0.2,0.4-0.9,0.4
			c-3.8,0.5-6.3,1.6-8.7,2.9c-4.1,2.3-2.6,4.4,3.4,5.7c0.9,0.1,1.8,0.5,2.6,0.6c12.1,1.3,24,1.3,35.9-0.5c3.7-0.5,7.3-1.1,9.6-2.6
			l0,0c1.2-0.5,2.6-1,3.5-1.5c6.9-3.6,15.4-6,25.2-7.5c5.2-0.9,9.1-2.4,11.8-4.6c1.7-1.3,1.6-3,3.5-4.4c0.2-0.4,0.5-0.7,0.7-1
			c1.6-2,5.3-3.2,9.2-4.4c5.5-1.8,8.1-4.1,7.6-7c-0.6-3.7,2.2-6.8,6.9-9.6c2.6-1.5,5-3.1,6.8-4.8c0.9-1,1.7-2,1.1-3
			c-1.1-1.4-2.1-2.8-3.3-4.1c0-0.3-0.2-0.6-0.2-0.9c-0.1-1.1-0.6-1.3-3.1-0.9c-1,0.1-1.8,0.3-2.6,0.7
			C244.5,514.5,243.4,515.7,242.8,516.9z M184.8,545.5c1.2-0.2,1.9-0.8,3.4-1c5.1-1.6,11.1-2.5,16.9-3.4c0.5-0.1,1.2-0.2,1.5-0.4
			c0.5-0.2,1.2-0.4,1.9-0.2c-0.5,0.2-1,0.6-2,0.6c-0.7,0.1-1.2,0.5-2,0.6c-5.4,1.7-11.4,3.1-18,4c-0.7,0.1-1.4,0.3-2.1,0.4
			c-0.2-0.1-0.3-0.2-0.3-0.2C183.8,545.7,184.6,545.6,184.8,545.5z"/>
		<path class="st0" d="M223.7,548.9c-0.5-1.4,1.3-2.3,2.8-3.3c1.7-1,4.2-1.6,6.4-2.3c5.7-1.7,7.9-4,7.5-6.9c-0.7-4.1,3-7.4,8.3-10.5
			c2.2-1.4,4.3-2.8,5.9-4.3c1.1-1,1-2,0.2-3.2c-1-1.1-2.6-2.2-2.1-3.5c3.9-0.1,6.1,0.4,7.8,2c2.6,2.6,2.1,4.9-0.4,7.4
			c-2.3,2.3-6,4.3-9.6,6.4c-3.6,2.1-6.5,4.4-7.3,6.9c-1.4,3.7-5.6,6.6-13,8.5C227.5,546.9,225.3,547.8,223.7,548.9z"/>
		<path class="st9" d="M117.8,570.3c0.3,1.1,1.3,2,2.3,3c0.7,0.5,0.5,0.7-0.6,1c-2.2,0.6-4.6,1.3-6.8,2.1
			c-11.2,3.8-15,9.1-10.1,14.4c0.8,0.9,2.1,1.6,4.5,1.7c7.3,0.5,14.8,0.6,22-0.6c4.2-0.6,5.4-1.7,3.5-3.4c-0.7-0.6-1.6-1.2-2.2-1.9
			c-2.4-2.3-1.5-4.2,2.2-5.9c2.6-1.3,5.9-1.6,9.3-1.8c7.7-0.2,12.8-2.1,17-4.8c0.4-0.3,1.5-0.8-0.5-0.7c-2.5-0.3-4.8,0.5-7.3,0.4
			c-5,0.5-10,0-15-0.7c-5-0.6-9.4-1.4-12-3.5c-1.7-0.8-1.3-1.9-2.1-2.7C118.6,567.4,117.4,568.6,117.8,570.3z M123.3,571.5
			c4,1.5,8.6,2.3,14,2.8c0.9,0.1,2,0.2,2.8,0.3c0.4,0-0.6,0.2,0.2,0.2c0.4,0,0.4-0.2,0.7-0.2c4.8,0.1,9.7,0,14.7-0.4
			c-0.4,0.6-2,0.9-2.4,1.5c-0.4,0-0.5,0.1-0.9,0.1c-0.6,0.5-1.8,0.8-3.1,1c-0.2,0.1-0.2,0.1-0.5,0.1c-0.5,0.2-1.5,0.5-2.2,0.6
			c-3.8,0.5-7.4,0.4-10.8-0.2c-0.7-0.2-1.6-0.4-2.2,0c-0.6,0.4,0.1,0.6,0.9,0.7c1.4,0.3,0.1,0.6-0.2,0.7c-1.8,0.5-3.3,1.1-4.8,1.7
			c-0.2,0.2-0.6,0.4-1.3,0.4c-0.2,0.1-0.4-0.2-0.5-0.2l-0.2,0.1c0,0.2-0.7,0.3-0.4,0.5c0.7,0.5,0.1,0.9-0.6,1.4
			c-0.6,0.4-1.5,0.2-2.2,0.2c-0.4,0.2-0.4,0.3-0.6,0.6c0,0.6,0.3,1.3,0.1,1.8c-0.6,0.2-0.8,0.6,0,0.6c2.5,0,2.3,0.9,3,1.7
			c0.7,0.8,1.9,1.5,2.9,2.3c0.7,0.6,0.5,1.1-1.2,1.3c-6.6,0.6-13,0.7-19.6,0.2c-1.3-0.1-2.2-0.5-2.7-1.1c-2.7-2.6-3.6-5.3-0.9-8.2
			c0-0.2,0-0.3,0.4-0.5l0,0c0.4-0.3,1-0.6,1-0.9l0,0l0,0c-0.2-0.1,0-0.2,0-0.2l0.2-0.1c1.1-0.3,1.5-1,2.5-1.3c0,0-0.4,0-0.6,0.1
			c0.2-0.1,0.4,0,0.6-0.1c1.7-0.6,3.2-1.2,4.7-1.8c0.2-0.1,0.4-0.2,0.4-0.2l0,0l0,0l0,0c0.7-0.3,1.8-0.5,2.4-0.9
			c0.2-0.1,0.4-0.2,0.6-0.2l0.2-0.1c0.4-0.2,0.9-0.2,1.3-0.4c0.2-0.1,0.4-0.2,0.4-0.2l0,0c0.2-0.1,0.6-0.2,0.6-0.4
			c0.2-0.1,0.4-0.2,0.7-0.2c0.9-0.5,1.5-0.2,2,0.2c0.5,0.2,1,0.5,1.6,0.6c0.5,0.2,1.2,0.2,2-0.1c0.6-0.2,0.8-0.6,0.1-0.9
			c-1-0.5-2.1-1-3-1.5c-1.2-0.6-1.7-1.3-2.2-2c0.5,0.2,0.9,0.4,1.4,0.6C122.9,571.6,123.1,571.6,123.3,571.5z"/>
		<path class="st10" d="M123.3,571.5c4,1.5,8.8,2.4,14,2.8c0.9,0.1,2,0.2,2.8,0.3c0.4,0-0.6,0.2,0.2,0.2c0.2-0.1,0.4-0.2,0.6-0.2
			c5,0.2,9.7,0,14.7-0.4c-0.4,0.6-2,0.9-2.4,1.5c-0.4,0-0.5,0.1-0.9,0.1c-0.6,0.5-1.8,0.8-3.1,1c-0.2,0.1-0.4,0-0.5,0.1
			c-0.5,0.2-1.5,0.5-2.2,0.6c-3.8,0.5-7.4,0.4-10.8-0.2c-0.7-0.2-1.6-0.4-2.2,0c-0.6,0.4,0.1,0.6,0.9,0.7c1.4,0.3,0.1,0.6-0.2,0.7
			c-1.8,0.5-3.3,1.1-4.8,1.7c-0.2,0.2-0.6,0.4-1.3,0.4c-0.2,0.1-0.4-0.2-0.5-0.2l-0.2,0.1c0,0.2-0.7,0.3-0.4,0.5
			c0.7,0.5,0.1,0.9-0.6,1.4c-0.6,0.4-1.5,0.2-2.2,0.2c-0.4,0.2-0.4,0.3-0.6,0.6c0,0.6,0.3,1.3,0.1,1.8c-0.7,0.2-0.8,0.6,0,0.6
			c2.5,0,2.3,0.9,3,1.7c0.7,0.8,1.9,1.5,2.9,2.3c0.7,0.6,0.5,1.1-1.2,1.3c-6.6,0.6-13,0.7-19.6,0.2c-1.3-0.1-2.2-0.5-2.7-1.1
			c-2.7-2.6-3.6-5.3-0.9-8.2c0-0.5,1.5-0.8,1.2-1.4c-0.2-0.1,0-0.2,0-0.2c1.5-0.3,1.9-1,2.9-1.5c0,0-0.4,0-0.6,0.1
			c0.2-0.1,0.4,0,0.6-0.1c1.7-0.6,3.2-1.2,4.7-1.8c0.2-0.1,0.4-0.2,0.4-0.2l0.2-0.1c0,0,0,0,0,0.2c0.9-0.2,1.8-0.5,2.6-0.8
			c0.7-0.2,1.5-0.3,2.2-0.6c0.7-0.2,1.5-0.3,2.2-0.5c0,0,0,0,0.2-0.1c0.4,0,0.5-0.1,1.1-0.2c0.5,0.2,0.9,0.4,1.6,0.6
			c0.5,0.2,1.2,0.2,2-0.1c0.6-0.2,0.8-0.6,0.1-0.9c-1-0.5-2.1-1-3-1.5c0.2-0.4,0.2-0.9-0.3-1.3c-0.2-0.1-0.2-0.1-0.3-0.2
			C122.9,571.6,123.1,571.6,123.3,571.5z"/>
		<path class="st10" d="M123.8,569.4c3.5,1.4,7.5,2.6,12,3.5C130.8,572.3,126.3,571.4,123.8,569.4z"/>
		<path class="st0" d="M178.4,547c-3.3,2-5.6,4.3-9.5,6.2c-5.8,2.9-14,4.4-22.1,5.7c-3,0.5-5.9,1.3-9.3,1.5
			c4.7-1.8,10.2-3.1,15.5-4.2c5.3-1.2,9.7-2.6,13.1-4.6C169.7,549.6,173.7,548.2,178.4,547z"/>
		<path class="st0" d="M131.5,569.4c5.2,0.4,10.3,1,15.6,1c9.9,0.2,19.7-0.3,28.4-2.4c1.4-0.3,2.5-0.9,4.1-1.1
			c-0.7,2.3-3.1,3.6-8.4,3.9c-9.9,0.7-20.4,0.9-30.4,0.6C137.1,571.3,133.7,570.9,131.5,569.4z"/>
		<path class="st0" d="M123.8,569.4c1.5-0.6,2.4-0.7,3.6,0.2c2.1,1.4,5.2,2.4,8.2,3.4C130.8,572.3,126.3,571.4,123.8,569.4z"/>
		<path class="st0" d="M247.1,516.4c0.8-0.5,1.6-0.9,3.2-0.9c1.2,1.5,2.4,2.9,3.3,4.4c0.7,1.1-0.9,2.1-1.8,3c-3,2.4-7.4,4.4-9.9,6.9
			c-2.1,1.9-3.3,3.9-3.1,6.1c0.2,1.1-0.3,2.2-0.7,3.2c-0.6,1.9-3.8,2.9-6.9,3.9c-6,1.9-9.6,4.2-11,7.3c-0.2,0.2-0.2,0.4-0.3,0.6
			c-1.1,2.9-5.4,4.7-11.6,5.7c-5.2,0.9-10,2-14.9,3.1c-0.9,0.1-1.4,0.3-1.9,0.5c-1.9,0.4-2.8,1.2-4.9,1.3l-0.7,0.3
			c-1.8,0.9-3.3,1.7-4.2,2.9c-0.4,0.2-0.5,0.4-0.7,0.6c-4.1,2.1-10.1,2.8-15.9,3.3c-10.1,0.8-20.4,0.8-30.5-0.3
			c-1.8-0.2-3.4-0.4-4.6-1.1c-0.8-1.6-0.2-3.1,2.4-4.5c3.3-1.8,8.5-2.3,13.1-3.1c6.2-1,12.2-2.1,17.9-3.6c5.8-1.5,9.4-3.9,12.5-6.5
			c1.9-1.4,3.7-2.7,6.6-3.7c0.5-0.1,1.2-0.2,1.6-0.4c0,0,0.2,0.1,0.3,0.2c0.7-0.1,1.4-0.3,2.1-0.4c6.5-1,12.5-2.3,18-4
			c0.8-0.1,1.5-0.4,2-0.6c1,0,1.4-0.3,2-0.6c2.4-1,5.4-1.6,7.4-2.7c0.7-0.4,1.5-0.9,1.8-1.5c1.1-2.4,4.6-3.7,9.8-4.6
			c3.5-0.6,6.8-1.3,8.7-2.8c1.3-1.1,1.7-2.3,1.5-3.5c-0.2-1.2-0.1-2.4,1.5-3.4c0.5-0.3,1.3-0.7,1.8-1c0.6-0.6,1.6-1,2.4-1.6
			c0.3-0.3,0.6-0.5,0.9-0.8C245,517.9,245.8,517.1,247.1,516.4z"/>
		<path class="st0" d="M123.3,571.5c4,1.5,8.8,2.4,14,2.8c0.9,0.1,2,0.2,2.8,0.3c0.4,0,0.7,0,0.7,0c5,0.2,9.7,0,14.7-0.4
			c-0.4,0.6-2,0.9-2.4,1.5c-0.4,0-0.5,0.1-0.9,0.1c-0.6,0.5-1.8,0.8-3.1,1c-0.2,0.1-0.4,0-0.5,0.1c-0.5,0.2-1.5,0.5-2.2,0.6
			c-3.8,0.5-7.4,0.4-10.8-0.2c-0.7-0.2-1.6-0.4-2.2,0c-0.6,0.4,0.1,0.6,0.9,0.7c1.4,0.3,0.1,0.6-0.2,0.7c-1.8,0.5-3.3,1.1-4.8,1.7
			c-0.2,0.2-0.6,0.4-1.3,0.4c-0.2,0.1-0.4-0.2-0.5-0.2l-0.2,0.1c0,0.2-0.7,0.3-0.4,0.5c0.7,0.5,0.1,0.9-0.6,1.4
			c-0.6,0.4-1.5,0.2-2.2,0.2c-0.4,0.2-0.4,0.3-0.6,0.6c0,0.6,0.3,1.3,0.1,1.8c-0.7,0.2-0.8,0.6,0,0.6c2.5,0,2.3,0.9,3,1.7
			c0.7,0.8,1.9,1.5,2.9,2.3c0.7,0.6,0.5,1.1-1.2,1.3c-6.6,0.6-13,0.7-19.6,0.2c-1.3-0.1-2.2-0.5-2.7-1.1c-2.7-2.6-3.6-5.3-0.9-8.2
			c0-0.2,0.4-0.3,0.4-0.5c0.4-0.3,1-0.6,1-0.9c0.2-0.1,0.2-0.2,0.4-0.3c2.5-2,5.9-3.1,7.7-3.6l0,0c0,0,0,0,0,0.2
			c0.4-0.2,0.9-0.2,1.3-0.4c0.4-0.2,0.9-0.2,1.3-0.4c0.7-0.2,1.5-0.3,2.2-0.6c0.7-0.2,1.5-0.3,2.2-0.5c0,0,0,0,0.2-0.1
			c0.4,0,0.5-0.1,1.1-0.2c0.5,0.2,0.9,0.4,1.6,0.6c0.5,0.2,1.2,0.2,2-0.1c0.6-0.2,0.8-0.6,0.1-0.9c-1-0.5-2.1-1-3-1.5
			c0.2-0.4,0.2-0.9-0.3-1.3c-0.2-0.1-0.2-0.1-0.3-0.2C122.9,571.6,123.1,571.6,123.3,571.5z"/>
		<path class="st0" d="M236.5,538c-1.4-0.4-2.2-1.1-3.5-0.1c-0.7,0.4-2.8,0.3-3.5,0c-0.9-0.4-1.4-1.2,0-1.7c0.2-0.1,1-1.4,2.2-0.2
			c0.2,0.2,0.5,0.1,1,0c1.8-0.6,2.7-0.7,3.2,0.4C236.1,536.9,237.2,537.4,236.5,538z"/>
	</g>
	<g>
		<polyline class="st2" points="29.1,711.3 213.5,636.7 213.5,646.6 41.8,716.6 28.7,711.4 		"/>
		<polygon class="st2" points="162.9,797.7 162.9,782.4 379.3,691 380.4,706.6 		"/>
		<polygon class="st2" points="42.6,716.8 214.7,647.1 338.2,695.1 161.5,770.8 		"/>
		<polygon class="st4" points="2,710.8 213.4,625.2 379.3,689.7 161.4,782.4 		"/>
		<polygon class="st6" points="29.1,711.3 161.5,770.8 351.1,690.1 213.5,636.7 		"/>
		<polyline class="st6" points="40.7,716.6 213.5,646.6 338.9,695.3 		"/>
		<line class="st1" x1="161.4" y1="782.4" x2="161.4" y2="798.3"/>
		<polyline class="st4" points="379.3,689.7 379.3,705.5 379.3,705.5 161.4,798.3 2,726.7 2,726.7 2,710.8 		"/>
		<line class="st6" x1="213.5" y1="636.7" x2="213.5" y2="646.6"/>
		<line class="st11" x1="168" y1="765.3" x2="46.4" y2="710.7"/>
		<line class="st11" x1="190.1" y1="756.3" x2="68.7" y2="701.7"/>
		<line class="st11" x1="211.6" y1="746.9" x2="91" y2="692.7"/>
		<line class="st11" x1="233.8" y1="737.1" x2="113.3" y2="683.8"/>
		<line class="st11" x1="256.2" y1="727.1" x2="135.6" y2="674.8"/>
		<line class="st11" x1="279.7" y1="718.6" x2="157.9" y2="665.8"/>
		<line class="st11" x1="304.1" y1="707.9" x2="177.7" y2="657.9"/>
		<line class="st11" x1="196.8" y1="649.2" x2="325.4" y2="698.9"/>
	</g>
</g>
</svg>
