<?xml version="1.0" encoding="utf-8"?>
<!-- Generator: Adobe Illustrator 25.4.1, SVG Export Plug-In . SVG Version: 6.00 Build 0)  -->
<svg version="1.1" id="Capa_1" xmlns="http://www.w3.org/2000/svg" xmlns:xlink="http://www.w3.org/1999/xlink" x="0px" y="0px"
	 viewBox="0 0 194.4 242.5" style="enable-background:new 0 0 194.4 242.5;" xml:space="preserve">
<style type="text/css">
	.st0{fill:#8F6E84;}
	.st1{fill:#221932;}
	.st2{fill:none;}
	.st3{fill:#EEF3F6;}
	.st4{fill:#8F939E;}
</style>
<g>
	<rect x="164.2" y="23.3" class="st0" width="12.1" height="202.3"/>
	<path class="st1" d="M187,242.5H7.4c-4.1,0-7.4-3.3-7.4-7.4v-220C0,11,3.3,7.7,7.4,7.7H187c4.1,0,7.4,3.3,7.4,7.4V235
		C194.5,239.1,191.1,242.5,187,242.5z M189.5,12.7H5v224.8h184.5V12.7z"/>
	<line class="st2" x1="14.7" y1="240" x2="14.7" y2="10.2"/>
	<rect x="12.2" y="10.2" class="st1" width="5" height="229.8"/>
	<path class="st3" d="M151.5,227.2H31.8c-2.4,0-4.2-1.8-4.2-4V25.9c0-2.3,1.9-4,4.2-4h119.7c2.4,0,4.2,1.8,4.2,4v197.3
		C155.8,225.5,153.9,227.2,151.5,227.2z"/>
	<path class="st1" d="M174.8,229.9H31.7c-3.8,0-7-3-7-6.7V25.9c0-3.7,3.2-6.7,7-6.7h143.1c3.8,0,7,3,7,6.7v197.3
		C181.9,226.9,178.7,229.9,174.8,229.9z M31.7,24.6c-0.8,0-1.4,0.6-1.4,1.3v197.3c0,0.8,0.7,1.3,1.4,1.3h143.1
		c0.8,0,1.4-0.6,1.4-1.3V25.9c0-0.8-0.7-1.3-1.4-1.3C174.8,24.6,31.7,24.6,31.7,24.6z"/>
	<line class="st2" x1="164.2" y1="227.2" x2="164.2" y2="21.9"/>
	<rect x="163.4" y="21.9" class="st1" width="5.6" height="205.4"/>
	<rect x="155.7" y="24.6" class="st4" width="7.7" height="200"/>
	<rect x="5" y="12.7" class="st0" width="7.2" height="224.8"/>
	<rect x="24.4" class="st1" width="13.5" height="7.7"/>
	<rect x="46.3" class="st1" width="13.5" height="7.7"/>
	<rect x="150.5" class="st1" width="13.5" height="7.7"/>
</g>
</svg>
