<?xml version="1.0" encoding="utf-8"?>
<!-- Generator: Adobe Illustrator 25.4.1, SVG Export Plug-In . SVG Version: 6.00 Build 0)  -->
<svg version="1.1" id="Capa_1" xmlns="http://www.w3.org/2000/svg" xmlns:xlink="http://www.w3.org/1999/xlink" x="0px" y="0px"
	 viewBox="0 0 197.5 234.8" style="enable-background:new 0 0 197.5 234.8;" xml:space="preserve">
<style type="text/css">
	.st0{fill:#F4B661;}
	.st1{fill:#957A5F;}
	.st2{fill:#F4D696;}
	.st3{fill:#221932;}
	.st4{fill:#EEF3F6;}
	.st5{fill:#F4D796;}
	.st6{fill:#8F939E;}
</style>
<g>
	<path class="st0" d="M190,232.3H7.4c-2.7,0-4.9-2.2-4.9-4.9l0-219.9c0-2.7,2.2-4.9,4.9-4.9H190c2.7,0,4.9,2.2,4.9,4.9l0,219.9
		C195,230.1,192.8,232.3,190,232.3z"/>
	<rect x="186.2" y="5" class="st1" width="8.7" height="227.5"/>
	<rect x="2.5" y="5" class="st2" width="12.7" height="227.3"/>
	<path class="st3" d="M190,234.8H7.4c-4.1,0-7.4-3.3-7.4-7.4L0,7.4C0,3.3,3.3,0,7.4,0H190c4.1,0,7.4,3.3,7.4,7.4l0,219.9
		C197.5,231.4,194.1,234.8,190,234.8z M192.5,5H5l0,224.8h187.5L192.5,5z"/>
	<line class="st0" x1="17.7" y1="232.3" x2="17.7" y2="2.5"/>
	<rect x="15.2" y="2.5" class="st3" width="5" height="229.8"/>
	<path class="st4" d="M169.7,211.8H42.8c-2.1,0-3.7-1.7-3.7-3.7l0-182.4c0-2.1,1.7-3.7,3.7-3.7h126.9c2.1,0,3.7,1.7,3.7,3.7l0,182.4
		C173.5,210.2,171.8,211.8,169.7,211.8z"/>
	<rect x="162.8" y="24.5" class="st5" width="10.5" height="184.9"/>
	<path class="st3" d="M169.7,214.3H42.8c-3.4,0-6.2-2.8-6.2-6.2l0-182.4c0-3.4,2.8-6.2,6.2-6.2h126.9c3.4,0,6.2,2.8,6.2,6.2l0,182.4
		C176,211.5,173.2,214.3,169.7,214.3z M42.8,24.5c-0.7,0-1.2,0.6-1.2,1.2l0,182.4c0,0.7,0.6,1.2,1.2,1.2h126.9
		c0.7,0,1.2-0.6,1.2-1.2l0-182.4c0-0.7-0.6-1.2-1.2-1.2H42.8z"/>
	<line class="st0" x1="160.3" y1="211.8" x2="160.3" y2="22"/>
	<rect x="157.8" y="22" class="st3" width="5" height="189.9"/>
	<rect x="151" y="24.5" class="st6" width="6.8" height="184.9"/>
</g>
</svg>
