<?xml version="1.0" encoding="utf-8"?>
<!-- Generator: Adobe Illustrator 25.4.1, SVG Export Plug-In . SVG Version: 6.00 Build 0)  -->
<svg version="1.1" id="Capa_1" xmlns="http://www.w3.org/2000/svg" xmlns:xlink="http://www.w3.org/1999/xlink" x="0px" y="0px"
	 viewBox="0 0 129 89.9" style="enable-background:new 0 0 129 89.9;" xml:space="preserve">
<style type="text/css">
	.st0{fill:#221932;}
	.st1{fill:#8F939E;}
	.st2{fill:#8F6E84;}
</style>
<g>
	<g>
		<path class="st0" d="M127,22.4c0,3.6-1.4,7.1-4,10.2c-2.4,2.9-6,5.3-10.5,7l-11,2.2l-2.3,0.5C83.1,45.5,68,51.1,55.1,58.8
			l-1.8,1.1l-8.8,5.3C30.9,70.3,13.9,66.7,6,57.3c-0.1-0.2-0.2-0.3-0.4-0.5C3.2,53.7,2,50.3,2,47c0-7,5.3-13.8,14.8-17.3L28,27.5
			l2.3-0.5c16.4-3.3,31.6-8.9,44.5-16.5l1.8-1.1l8.8-5.2c13.6-5.1,30.7-1.2,38.1,8.6C125.9,15.8,127,19.1,127,22.4z"/>
		<path class="st0" d="M31.1,69.5c-10.5,0-20.9-3.9-26.7-10.9l-0.1-0.2C4.2,58.3,4.1,58.2,4,58c-2.6-3.3-4-7.2-4-11
			c0-8.2,6.2-15.5,16.1-19.2l0.3-0.1L30,25.1C46.3,21.8,61,16.3,73.8,8.8l11-6.4c14.3-5.3,32.5-1.2,40.4,9.2
			c2.5,3.3,3.9,7.1,3.9,10.8c0,4.1-1.5,8.1-4.5,11.5c-2.7,3.2-6.6,5.8-11.3,7.6l-0.3,0.1l-13.3,2.7c-16.1,3.2-30.8,8.8-43.5,16.4
			l-11,6.5C40.7,68.7,35.9,69.5,31.1,69.5z M17.3,31.6C9.1,34.8,4,40.6,4,47c0,2.9,1.1,5.9,3.2,8.6c0.1,0.1,0.1,0.2,0.2,0.3L7.6,56
			c7.3,8.7,23.4,12,36,7.3l10.5-6.3c13.2-7.8,28.2-13.5,44.8-16.8l13.2-2.7c3.9-1.5,7.2-3.7,9.5-6.4c2.3-2.7,3.5-5.7,3.5-8.9
			c0-2.9-1.1-5.8-3-8.4C115.1,4.9,99.1,1.4,86.3,6l-10.5,6.2C62.7,20,47.5,25.7,30.7,29L17.3,31.6z"/>
	</g>
	<g>
		<path class="st1" d="M127,22.4v20.4c0,7-5.2,13.7-14.4,17.2l-11,2.2l-2.3,0.5C83.1,65.9,68,71.6,55.1,79.3l-1.8,1.1l-8.8,5.3
			c-13.7,5.2-31.1,1.5-38.8-8.3C3.2,74.1,2,70.8,2,67.5V47c0,3.3,1.2,6.7,3.6,9.8C5.7,57,5.9,57.1,6,57.3c7.9,9.5,24.9,13,38.5,7.9
			l8.8-5.3l1.8-1.1C68,51.1,83.1,45.5,99.3,42.2l2.3-0.5l11-2.2c4.5-1.7,8-4.1,10.5-7C125.7,29.5,127,26,127,22.4z"/>
		<path class="st0" d="M31.3,89.9c-10.9,0-21.5-4.2-27.2-11.4C1.4,75.1,0,71.3,0,67.5V47c0-1.1,0.9-2,2-2s2,0.9,2,2
			c0,2.9,1.1,5.9,3.2,8.6c0.1,0.1,0.1,0.2,0.2,0.3L7.6,56c7.3,8.7,23.4,12,36,7.3l10.5-6.3c13.2-7.8,28.2-13.5,44.8-16.8l13.2-2.7
			c3.9-1.5,7.2-3.7,9.5-6.4c2.3-2.7,3.5-5.7,3.5-8.9c0-1.1,0.9-2,2-2s2,0.9,2,2v20.4c0,8.1-6,15.4-15.7,19c-0.1,0-0.2,0.1-0.3,0.1
			l-13.3,2.7C83.5,67.9,68.9,73.4,56.1,81l-10.7,6.3c-0.1,0.1-0.2,0.1-0.3,0.2C40.8,89.1,36,89.9,31.3,89.9z M4,58v9.5
			c0,2.9,1.1,5.9,3.2,8.6c7.1,9.1,23.4,12.6,36.4,7.8l10.5-6.3C67.2,69.7,82.3,64,98.9,60.7L112,58c8-3.1,13-8.9,13-15.2v-9.5
			c-0.1,0.2-0.3,0.4-0.5,0.6c-2.7,3.2-6.6,5.8-11.3,7.6c-0.1,0-0.2,0.1-0.3,0.1l-13.3,2.7c-16.1,3.2-30.8,8.8-43.5,16.4l-10.7,6.3
			c-0.1,0.1-0.2,0.1-0.3,0.2c-14.4,5.4-32.2,1.7-40.7-8.5l-0.1-0.2C4.2,58.3,4.1,58.2,4,58C4,58,4,58,4,58z"/>
	</g>
	<g>
		<ellipse transform="matrix(0.9481 -0.318 0.318 0.9481 -4.0514 35.5911)" class="st2" cx="107" cy="30.2" rx="4.4" ry="1.8"/>
	</g>
	<g>
		<ellipse transform="matrix(0.9481 -0.318 0.318 0.9481 -15.2669 15.5976)" class="st2" cx="40.1" cy="54.6" rx="4.4" ry="1.8"/>
	</g>
	<g>
		<ellipse transform="matrix(0.9481 -0.318 0.318 0.9481 -11.6527 15.3059)" class="st2" cx="41.1" cy="43.3" rx="4.4" ry="1.8"/>
	</g>
	<g>
		<ellipse transform="matrix(0.9481 -0.318 0.318 0.9481 -8.9679 23.9124)" class="st2" cx="68.8" cy="39.4" rx="4.4" ry="1.8"/>
	</g>
	<g>
		<ellipse transform="matrix(0.9481 -0.318 0.318 0.9481 1.0442 27.8635)" class="st2" cx="85.9" cy="10.7" rx="4.4" ry="1.8"/>
	</g>
	<g>
		<ellipse transform="matrix(0.9481 -0.318 0.318 0.9481 -2.0508 27.6706)" class="st2" cx="83.7" cy="20.1" rx="4.4" ry="1.8"/>
	</g>
</g>
</svg>
