<?xml version="1.0" encoding="utf-8"?>
<!-- Generator: Adobe Illustrator 25.4.1, SVG Export Plug-In . SVG Version: 6.00 Build 0)  -->
<svg version="1.1" id="Capa_1" xmlns="http://www.w3.org/2000/svg" xmlns:xlink="http://www.w3.org/1999/xlink" x="0px" y="0px"
	 viewBox="0 0 211.3 154.2" style="enable-background:new 0 0 211.3 154.2;" xml:space="preserve">
<style type="text/css">
	.st0{fill:#8F6E84;}
	.st1{fill:#221932;}
	.st2{fill:#8F939E;}
	.st3{fill:#231A32;}
</style>
<g>
	<g>
		<path class="st0" d="M203.4,32.7c0,1.4,0.2,2.8,0.5,4H7.3c0.3-1.2,0.6-2.6,0.6-4c0-4.3-1.9-7.9-3.6-11.4H207
			C205.3,24.8,203.4,28.4,203.4,32.7z"/>
	</g>
	<g>
		<rect x="15.9" y="45.4" class="st1" width="179.4" height="2"/>
	</g>
	<g>
		<path class="st2" d="M197.4,71.3c0,15.9,5.4,27.9,5.4,27.9h-97.2c0,0-97.2,0-97.2,0s5.4-12,5.4-27.9"/>
		<path class="st1" d="M202.8,101.2H5.4l1.3-2.8c0.1-0.1,5.3-11.8,5.3-27h4c0,11.7-2.9,21.3-4.5,25.9h188.4
			c-1.6-4.5-4.5-14.1-4.5-25.9h4c0,15.2,5.2,26.9,5.3,27l1.3,2.8L202.8,101.2z"/>
	</g>
	<g>
		<path class="st3" d="M121.9,99.2v-8.8c0,0,2.7,8.8,5.3,8.6"/>
	</g>
	<g>
		<path class="st3" d="M185.5,99.2v-8.8c0,0,2.7,8.8,5.3,8.6"/>
	</g>
	<g>
		<path class="st3" d="M12,100.9L6,108.7c-4.6,6-0.3,14.7,7.3,14.7h0c3.2,0,6.1-1.6,7.8-4.3l10.2-16.4c0.4-0.6,1-0.9,1.7-0.9h0
			c1.5,0,2.5,1.6,1.8,2.9l-0.8,1.5c-1.4,2.7,0.6,5.9,3.6,5.9h0c1.6,0,3-0.9,3.7-2.3l4.2-8.9"/>
	</g>
	<g>
		<path class="st3" d="M201,100.9l5.9,7.8c4.6,6,0.3,14.7-7.3,14.7h0c-3.2,0-6.1-1.6-7.8-4.3l-10.2-16.4c-0.4-0.6-1-0.9-1.7-0.9l0,0
			c-1.5,0-2.5,1.6-1.8,2.9l0.8,1.5c1.4,2.7-0.6,5.9-3.6,5.9h0c-1.6,0-3-0.9-3.7-2.3l-4.2-8.9"/>
	</g>
	<g>
		<path class="st3" d="M66.6,100.8l-8,28.2c-1.7,6,2.8,12,9,12h0c4.7,0,8.7-3.5,9.3-8.2l3.9-30.3c0.1-1,1-1.7,2-1.7l0,0
			c1.1,0,2,0.9,2,2.1l-0.7,15.6c-0.2,5.4,4.1,9.9,9.5,9.9h0c5.3,0,9.5-4.3,9.5-9.5v-18.1"/>
	</g>
	<g>
		<path class="st3" d="M127.1,100.8l6.4,45.2c0.7,4.9,5,8.5,10,8.2h0c6-0.3,10.2-6,8.8-11.8l-8-32.8c-0.3-1.3,0.6-2.5,2-2.5h0
			c0.9,0,1.7,0.6,1.9,1.5v0c1,3.8,4.4,6.4,8.3,6.4h0.1c5.9,0,10.1-5.7,8.3-11.3l-0.9-2.9"/>
	</g>
	<g>
		<path class="st1" d="M211.3,73.3H0V45l0.6-0.6c0,0,3.5-3.5,4.8-8.3c0.3-1.2,0.5-2.3,0.5-3.5c0-3.4-1.4-6.3-2.9-9.4l-0.5-1.1
			C1.2,19.4,0,16.5,0,13.2C0,5.7,7.5,0.6,7.8,0.3L8.3,0h194.6l0.5,0.3c0.3,0.2,7.8,5.3,7.8,12.9c0,3.3-1.2,6.2-2.5,8.9l-0.5,1
			c-1.5,3.1-2.9,6.1-2.9,9.5c0,1.1,0.2,2.3,0.5,3.5c1.3,4.8,4.8,8.2,4.8,8.3l0.6,0.6l0,0.8V73.3z M4,69.3h203.3V46.6
			c-1.2-1.4-4-4.8-5.3-9.4c-0.4-1.5-0.6-3-0.6-4.5c0-4.3,1.7-8,3.3-11.2l0.5-1c1.1-2.4,2.1-4.7,2.1-7.2c0-4.5-4.2-8.1-5.6-9.2H9.6
			C8.2,5.1,4,8.7,4,13.2c0,2.5,1,4.9,2.1,7.2l0.5,1.1c1.5,3.2,3.2,6.9,3.2,11.2c0,1.5-0.2,3-0.6,4.5c-1.2,4.6-4,8.1-5.3,9.4V69.3z"
			/>
	</g>
</g>
</svg>
