<?xml version="1.0" encoding="utf-8"?>
<!-- Generator: Adobe Illustrator 25.4.1, SVG Export Plug-In . SVG Version: 6.00 Build 0)  -->
<svg version="1.1" id="Capa_1" xmlns="http://www.w3.org/2000/svg" xmlns:xlink="http://www.w3.org/1999/xlink" x="0px" y="0px"
	 viewBox="0 0 117.2 127.2" style="enable-background:new 0 0 117.2 127.2;" xml:space="preserve">
<style type="text/css">
	.st0{fill:#FDFEFE;}
	.st1{fill:#221932;}
	.st2{fill:#929C99;}
	.st3{fill:#6A6D71;}
	.st4{fill:#BCC1BF;}
	.st5{fill:#5E6D96;}
	.st6{fill:#909BBC;}
</style>
<g>
	<g>
		<rect x="2.3" y="2.3" class="st0" width="112.7" height="17.3"/>
		<path class="st1" d="M117.2,21.9H0V0h117.2V21.9z M4.6,17.3h108.1V4.6H4.6V17.3z"/>
	</g>
	<g>
		<g>
			<polygon class="st2" points="103.3,124.2 13.9,124.2 6.3,19.6 110.9,19.6 			"/>
			<path class="st1" d="M106.1,127.2h-95l-8-110.6h111.1L106.1,127.2z M16.8,121.1h83.7l7.1-98.5h-98L16.8,121.1z"/>
		</g>
		<g>
			<polygon class="st3" points="27.1,121.1 16,121.1 9.6,22.6 20.6,22.6 			"/>
		</g>
		<g>
			<polygon class="st4" points="101.4,121.1 91.5,121.1 97.8,22.6 107.6,22.6 			"/>
		</g>
		<g>
			<line class="st0" x1="7.3" y1="32.8" x2="109.9" y2="32.8"/>
			<rect x="7.3" y="30.5" class="st1" width="102.7" height="4.6"/>
		</g>
	</g>
	<g>
		<g>
			<circle class="st0" cx="58.6" cy="78.2" r="31.6"/>
		</g>
		<g>
			<g>
				<path class="st5" d="M69.8,94.7L69.8,94.7c-6.2,6.2-16.1,6.2-22.3,0l0,0c-5.5-5.5-6.2-14.3-1.5-20.6l12.6-16.9l12.6,16.9
					C76,80.4,75.3,89.1,69.8,94.7z"/>
				<path class="st1" d="M58.6,100.8c-4.6,0-9-1.8-12.2-5.1c-6-6-6.7-15.7-1.6-22.6l13.9-18.6l13.9,18.6c5.1,6.8,4.4,16.5-1.6,22.6
					C67.6,99,63.2,100.8,58.6,100.8z M58.6,59.7L47.2,75c-4.2,5.6-3.6,13.6,1.3,18.6c2.7,2.7,6.3,4.2,10.1,4.2
					c3.8,0,7.4-1.5,10.1-4.2l0,0c5-5,5.6-13,1.3-18.6L58.6,59.7z"/>
			</g>
			<g>
				<path class="st6" d="M62,95c-0.3,0-0.6-0.2-0.7-0.5c-0.1-0.4,0.1-0.8,0.5-1c0.1,0,7.4-2.8,7.4-8.8c0-6.2-4.9-10.9-5-10.9
					c-0.3-0.3-0.3-0.8,0-1.1c0.3-0.3,0.8-0.3,1.1,0c0.2,0.2,5.5,5.2,5.5,12c0,7-8.1,10.1-8.4,10.2C62.2,95,62.1,95,62,95z"/>
			</g>
		</g>
	</g>
	<g>
		<g>
			<path class="st5" d="M21,20.8v14.7c0,2,1.6,3.6,3.6,3.6h0c1.8,0,3.4-1.4,3.5-3.2l0.3-3.4c0.2-1.8,1.7-3.2,3.5-3.2h0
				c2.1,0,3.7,1.7,3.7,3.7v12.1c0,2.7,2.2,5,5,5h0c2.7,0,5-2.2,5-5V21.3"/>
			<path class="st1" d="M40.7,51.7c-3.6,0-6.5-2.9-6.5-6.5V33.1c0-1.2-1-2.2-2.2-2.2c-1,0-1.9,0.8-2,1.8L29.6,36
				c-0.3,2.6-2.4,4.6-5,4.6c-2.8,0-5.1-2.3-5.1-5.1V20.8h3v14.7c0,1.1,0.9,2,2,2c1,0,1.9-0.8,2-1.8l0.3-3.4c0.3-2.6,2.4-4.5,5-4.5
				c2.9,0,5.3,2.4,5.3,5.3v12.1c0,1.9,1.5,3.4,3.4,3.4c1.9,0,3.4-1.5,3.4-3.4V21.3h3v23.9C47.1,48.8,44.2,51.7,40.7,51.7z"/>
		</g>
		<g>
			<path class="st5" d="M61.6,20.8v10.1c0,1.8,1.4,3.2,3.2,3.2h0c1.8,0,3.2-1.4,3.2-3.2v-2.2c0-1.5,1.3-2.8,2.8-2.8l0,0
				c1.5,0,2.8,1.3,2.8,2.8v18.4c0,1.7,1.4,3,3,3h0c1.7,0,3,1.4,3,3v26.7c0,2.2,1.8,3.9,3.9,3.9h0c2.2,0,3.9-1.8,3.9-3.9V45
				c0-1.7,1.4-3,3-3h0c1.7,0,3,1.4,3,3v18.2c0,1.9,1.6,3.5,3.5,3.5h0c1.9,0,3.4-1.6,3.4-3.5V35c0-2.9,2.4-5.2,5.3-5.2h0
				c2.9,0,5.3-2.3,5.3-5.2v-3.5"/>
			<path class="st1" d="M83.5,85.3c-3,0-5.4-2.4-5.4-5.4V53.2c0-0.8-0.7-1.5-1.5-1.5c-2.5,0-4.5-2-4.5-4.5V28.7
				c0-0.7-0.6-1.3-1.3-1.3c-0.7,0-1.3,0.6-1.3,1.3v2.2c0,2.6-2.1,4.7-4.7,4.7s-4.7-2.1-4.7-4.7V20.8h3v10.1c0,0.9,0.8,1.7,1.7,1.7
				c0.9,0,1.7-0.8,1.7-1.7v-2.2c0-2.4,1.9-4.3,4.3-4.3s4.3,1.9,4.3,4.3v18.4c0,0.8,0.7,1.5,1.5,1.5c2.5,0,4.5,2,4.5,4.5v26.7
				c0,1.3,1.1,2.4,2.4,2.4c1.3,0,2.4-1.1,2.4-2.4V45c0-2.5,2-4.5,4.5-4.5c2.5,0,4.5,2,4.5,4.5v18.2c0,0.5,0.2,1,0.6,1.4
				c0.4,0.4,0.9,0.6,1.4,0.6c1.1,0,1.9-0.9,1.9-2V35c0-1.8,0.7-3.5,2-4.8c1.3-1.3,3-1.9,4.8-1.9c1,0,1.9-0.4,2.6-1.1
				c0.7-0.7,1.1-1.6,1.1-2.6v-3.5h3v3.5c0,1.8-0.7,3.5-2,4.8c-1.3,1.3-3,1.9-4.8,1.9c-1,0-1.9,0.4-2.6,1.1c-0.7,0.7-1.1,1.6-1.1,2.6
				v28.2c0,2.7-2.2,5-4.9,5c0,0,0,0-0.1,0c-1.3,0-2.6-0.5-3.5-1.4c-1-0.9-1.5-2.2-1.5-3.6V45c0-0.8-0.7-1.5-1.5-1.5
				c-0.8,0-1.5,0.7-1.5,1.5v34.8C89,82.9,86.5,85.3,83.5,85.3z"/>
		</g>
		<g>
			<line class="st6" x1="42.2" y1="45.6" x2="42.2" y2="23"/>
			<path class="st6" d="M42.2,46.4c-0.4,0-0.8-0.3-0.8-0.8V23c0-0.4,0.3-0.8,0.8-0.8c0.4,0,0.8,0.3,0.8,0.8v22.6
				C43,46,42.7,46.4,42.2,46.4z"/>
		</g>
		<g>
			<path class="st6" d="M25.4,36.1c-0.4,0-0.8-0.3-0.8-0.8V33c0-2.6,1.5-5.1,3.9-6.5l0.7-0.4c0.4-0.2,0.8-0.1,1,0.3
				c0.2,0.4,0.1,0.8-0.3,1l-0.7,0.4c-1.9,1.1-3.1,3.1-3.1,5.2v2.4C26.2,35.7,25.8,36.1,25.4,36.1z"/>
		</g>
		<g>
			<line class="st6" x1="65.6" y1="30.5" x2="65.6" y2="25.8"/>
			<path class="st6" d="M65.6,31.3c-0.4,0-0.8-0.3-0.8-0.8v-4.7c0-0.4,0.3-0.8,0.8-0.8c0.4,0,0.8,0.3,0.8,0.8v4.7
				C66.4,31,66.1,31.3,65.6,31.3z"/>
		</g>
		<g>
			<path class="st6" d="M84.4,80.4c-0.4,0-0.8-0.3-0.8-0.8V43.5c0-3.2,2.6-5.8,5.8-5.8c0.4,0,0.8,0.3,0.8,0.8s-0.3,0.8-0.8,0.8
				c-2.4,0-4.3,1.9-4.3,4.3v36.2C85.2,80.1,84.8,80.4,84.4,80.4z"/>
		</g>
		<g>
			<path class="st6" d="M97.2,63.6C97.2,63.6,97.2,63.6,97.2,63.6c-0.4,0-0.8-0.3-0.8-0.8l0.1-29.4c0.1-3.9,3.3-7.1,7.2-7.1
				c0.4,0,0.8,0.3,0.8,0.8c0,0.4-0.3,0.8-0.8,0.8c-3.1,0-5.6,2.5-5.7,5.6L98,62.9C98,63.3,97.7,63.6,97.2,63.6z"/>
		</g>
	</g>
</g>
</svg>
