<?xml version="1.0" encoding="utf-8"?>
<!-- Generator: Adobe Illustrator 18.0.0, SVG Export Plug-In . SVG Version: 6.00 Build 0)  -->
<!DOCTYPE svg PUBLIC "-//W3C//DTD SVG 1.1//EN" "http://www.w3.org/Graphics/SVG/1.1/DTD/svg11.dtd">
<svg version="1.1" id="Capa_1" xmlns="http://www.w3.org/2000/svg" xmlns:xlink="http://www.w3.org/1999/xlink" x="0px" y="0px"
	 viewBox="742.4 175.4 595.3 611" enable-background="new 742.4 175.4 595.3 611" xml:space="preserve">
<g>
	<path d="M842.4,335.9l-14.9,21.2l26.7,18.8l-4.8,6.8l-76.8-54l19.7-28.1c5.7-8.2,12-12.8,18.7-13.9c6.7-1.1,14.2,1.3,22.4,7.1
		C850.6,306,853.6,320,842.4,335.9z M821.4,352.9l14.9-21.2c7.9-11.2,5.3-21.4-7.9-30.6c-6.3-4.4-11.8-6.3-16.7-5.7
		c-4.8,0.6-9.3,3.8-13.4,9.7l-14.9,21.2L821.4,352.9z"/>
	<path d="M896.2,324.9l-61.9-70.6l6.3-5.6l61.9,70.6L896.2,324.9z"/>
	<path d="M965,279c-6.1,5.2-12.6,9.8-19.6,13.8c-5.8,3.1-10.8,5.1-15,5.7c-3.8,0.7-7.7,0.5-11.4-0.5c-3.7-1.2-7.1-3.2-9.9-5.9
		c-5.9-5.2-11.8-13.4-17.9-24.6c-9.7-17.9-13.2-31.3-10.6-40.2c2.1-7.4,7.9-13.6,17.5-18.8c7.6-3.9,15.5-7.2,23.7-9.6l3.1,6.6
		c-9.1,2.9-16.1,5.8-21.1,8.5s-8.6,5.3-10.7,7.9c-2,2.3-3.5,5-4.3,7.9c-0.7,3.1-0.7,6.4,0.1,9.5c1.3,6.2,4.2,13.4,8.5,21.5
		c3.2,6.1,6.7,12,10.6,17.7c2.5,3.5,5.6,6.6,9.1,9.1c3.1,2.3,6.9,3.5,10.8,3.2c3.9-0.2,8.5-1.8,14-4.8c6.8-3.9,13.2-8.3,19.2-13.3
		L965,279z"/>
	<path d="M967.3,278.8l11.3-97l19.3-3.2l41.9,88.2l-8.1,1.3l-11.7-24.3l-41.3,6.9l-3.1,26.8L967.3,278.8z M985.7,187.9l-6.3,55
		l37.3-6.2l-23.8-50L985.7,187.9z"/>
	<path d="M1047.3,267.4l18.5-92l16.2,3.3l21.4,92.5l3,0.6l17.1-84.8l8.1,1.6l-18.5,92l-15.9-3.2l-21.7-92.4l-2.9-0.6l-17.1,84.6
		L1047.3,267.4z"/>
	<path d="M1163.9,209.2l3.9-6.5l57.7,35.1l-3.9,6.5l-25.2-15.3l-44.9,73.7l-7.2-4.4l44.9-73.8L1163.9,209.2z"/>
	<path d="M1181.1,323.4l70.9-61.5l36.9,42.6l-5.7,4.9l-31.4-36.2l-26.3,22.8l26.1,30.2l-5.6,4.9l-26.1-30.1l-27.7,24l31.5,36.2
		l-5.7,4.8L1181.1,323.4z"/>
	<path d="M1328.8,551.5c3.4-14.1-0.3-22.4-11.1-25c-6.3-1.5-10.9-0.9-13.9,1.7c-2.9,2.7-6.5,8.4-10.6,17.3
		c-4.1,8.9-8.2,14.9-12.4,18.1c-4.2,3.2-10.1,3.9-17.7,2.1c-9.8-2.4-16.3-6.5-19.4-12.4c-3.1-5.9-3.6-13.5-1.4-22.9
		c2-7.9,4.5-15.7,7.6-23.3l1.8-4.6l6.7,2.6c-4.4,11.6-7.4,20.7-8.9,27.3s-1.2,11.9,1.2,16.1c2.4,4.2,6.6,7,12.8,8.5
		c6.2,1.5,10.7,1,13.7-1.5c3-2.5,5.8-6.9,8.7-13.2c2-4.7,4.3-9.3,6.8-13.7c1.7-2.8,3.9-5.4,6.4-7.6c2.4-2.2,5.4-3.5,8.6-4
		c3.9-0.4,7.8-0.1,11.5,0.9c15.9,3.8,21.6,15.4,16.9,34.6c-2,7.5-4.4,14.9-7.3,22.1l-1.7,4.2l-6.8-2.3
		C1324.8,565,1327.6,556.6,1328.8,551.5z"/>
	<path d="M1231.4,569.8l79.9,49.3l-29.6,47.9l-6.5-4l25.2-40.8l-29.6-18.3l-20.9,33.9l-6.3-3.9l20.9-33.9l-31.1-19.2l-25.2,40.8
		l-6.3-3.9L1231.4,569.8z"/>
	<path d="M1211.2,659.9l-23.3-28.7l6.5-5.3l59.2,72.9l-26.7,21.7c-7.6,6.2-14.7,9-21.3,8.6c-6.6-0.4-12.9-4.4-18.9-11.9
		c-9.5-11.7-10.5-22.6-3.2-32.7l-39.3-17.8l7.2-5.9l37.7,17.1L1211.2,659.9z M1193.2,711.7c4.4,5.5,9,8.4,13.7,8.9
		c4.7,0.5,9.8-1.5,15.2-5.9l20.2-16.4l-26.5-32.6l-20.2,16.4C1185,690.8,1184.2,700.6,1193.2,711.7L1193.2,711.7z"/>
	<path d="M1131.2,670.3l39.7,85.1l-7.6,3.5l-39.7-85.1L1131.2,670.3z"/>
	<path d="M1078.8,728.6l1.4,7.3l-25.1,4.7l-8.5-44.6c2.5-1,6.8-2.6,13.1-4.6c5.2-1.8,10.4-3.2,15.8-4.3c13.3-2.5,23.2-0.4,29.8,6.4
		c6.6,6.8,11.4,18.1,14.5,34c1.4,6.7,2.1,13.6,2.2,20.5c0,5.4-0.9,10.8-2.8,15.9c-3.4,9.4-11.9,15.5-25.6,18.1
		c-8.5,1.6-17.2,2.4-25.8,2.3l-4.6-0.1l-0.9-7.1c9.8,0.1,19.6-0.7,29.2-2.4c10.7-2,17.3-6.6,19.9-13.8c2.5-7.1,2.5-17.7-0.2-31.7
		c-2.6-14-6.4-23.8-11.4-29.3c-5-5.6-12.7-7.3-23.4-5.3c-7.1,1.4-14,3.5-20.7,6.1l5.9,31L1078.8,728.6z"/>
	<path d="M1018.4,728.9l6.1-36.5l8.3,1.4l-15.5,92.6l-34-5.7c-9.7-1.6-16.5-5-20.5-10.2c-4-5.2-5.2-12.5-3.6-22
		c2.5-14.8,9.9-22.9,22.4-24.1l-12.7-41.3l9.2,1.5l12.2,39.5L1018.4,728.9z M967.7,749.7c-1.2,6.9-0.4,12.3,2.4,16.1
		c2.7,3.8,7.6,6.3,14.5,7.5l25.7,4.3l6.9-41.4l-25.7-4.3C978,729.7,970.1,735.6,967.7,749.7L967.7,749.7z"/>
	<path d="M967.2,682.8l-69.6,68.6l-17.1-9.6l22.6-95l7.2,4l-6.1,26.3l36.5,20.5l19.2-19L967.2,682.8z M895.9,742l39.4-38.9l-33-18.5
		l-12.8,53.8L895.9,742z"/>
	<path d="M898,640l-69.5,63.1l-37.2-41l5.6-5.1l31.6,34.8l28.7-26l-26.8-29.6l5.6-5l26.8,29.6l29.7-26.9L898,640z"/>
	<path d="M857,588.6l-81.6,46.4l-4.1-7.3l81.6-46.4L857,588.6z"/>
	<path d="M845.5,573.9l-97.7-0.4l-5.3-18.8l83-51.5l2.2,7.9l-22.9,14.3l11.4,40.3l27,0.1L845.5,573.9z M753.1,565.7l55.4,0.1
		l-10.3-36.4l-47,29.2L753.1,565.7z"/>
</g>
</svg>
