<svg id="Capa_1" data-name="Capa 1" xmlns="http://www.w3.org/2000/svg" viewBox="0 0 643.45 660.41"><defs><style>.cls-1{fill:#273471;}</style></defs><path class="cls-1" d="M108.07,173.54,92,196.48l28.9,20.32-5.21,7.4-83-58.35L54,135.51q9.32-13.26,20.18-15t24.23,7.67Q126.21,147.74,108.07,173.54ZM85.38,191.86l16.12-22.93q12.77-18.17-8.5-33.1-10.16-7.14-18-6.2t-14.52,10.5L44.41,163.06Z"/><path class="cls-1" d="M166.24,161.63,99.35,85.33l6.81-6,66.89,76.3Z"/><path class="cls-1" d="M240.53,112a132,132,0,0,1-21.16,14.9Q210,132,203.2,133.08a27.5,27.5,0,0,1-12.33-.56,28,28,0,0,1-10.72-6.33q-9.54-8.44-19.32-26.57-15.68-29-11.48-43.41,3.35-11.93,18.89-20.32a142.52,142.52,0,0,1,25.61-10.34l3.36,7.15q-14.69,4.77-22.77,9.14t-11.59,8.5a22.35,22.35,0,0,0-4.7,8.5,21,21,0,0,0,.16,10.29q2.15,10.13,9.22,23.23A178.75,178.75,0,0,0,179,111.46a44.11,44.11,0,0,0,9.82,9.89,17.58,17.58,0,0,0,11.67,3.48q6.25-.39,15.13-5.17a143.85,143.85,0,0,0,20.78-14.37Z"/><path class="cls-1" d="M243.08,111.75,255.26,6.87,276.14,3.4l45.29,95.34-8.79,1.45L300,73.88,255.33,81.3l-3.32,29ZM263,13.57,256.18,73l40.33-6.7-25.7-54Z"/><path class="cls-1" d="M329.55,99.47,349.6,0l17.46,3.52,23.18,100,3.29.67L412,12.58l8.73,1.76-20.05,99.47-17.18-3.47L360,10.44l-3.15-.64-18.43,91.46Z"/><path class="cls-1" d="M455.53,36.55l4.25-7,62.37,37.94-4.25,7L490.7,58l-48.49,79.71L434.48,133,483,53.25Z"/><path class="cls-1" d="M474.15,160l76.68-66.47,39.88,46-6.18,5.35-33.95-39.16-28.46,24.67L550.33,163l-6.07,5.26-28.21-32.55-29.9,25.92,34,39.16L514,206Z"/><path class="cls-1" d="M633.81,406.59q5.51-22.86-12-27.06-10.22-2.46-15,1.87t-11.42,18.73q-6.61,14.4-13.43,19.59t-19.15,2.22q-15.9-3.82-21-13.39t-1.47-24.76a197.84,197.84,0,0,1,8.17-25.21l1.94-4.94,7.28,2.8q-7.1,18.87-9.65,29.51t1.28,17.43q3.85,6.78,13.86,9.19T578,411q4.8-4,9.37-14.27a137.24,137.24,0,0,1,7.39-14.81,36,36,0,0,1,6.93-8.17,17.29,17.29,0,0,1,9.29-4.3,34.42,34.42,0,0,1,12.44,1q25.83,6.21,18.31,37.44a199.13,199.13,0,0,1-7.86,23.94l-1.84,4.51-7.35-2.52Q631.83,414.83,633.81,406.59Z"/><path class="cls-1" d="M528.5,426.33l86.33,53.33-32,51.79-7-4.29,27.24-44.1-32-19.8-22.64,36.65-6.83-4.22L564.24,459l-33.66-20.79-27.24,44.1-6.83-4.23Z"/><path class="cls-1" d="M506.65,523.74l-25.21-31.06,7-5.71,63.95,78.79-28.91,23.46q-12.35,10-23,9.34t-20.47-12.82q-15.36-18.93-3.49-35.34l-42.52-19.26,7.82-6.35,40.74,18.46Zm-19.42,56q7.18,8.85,14.78,9.63T518.45,583l21.88-17.76L511.71,530l-21.88,17.76Q472.61,561.71,487.23,579.74Z"/><path class="cls-1" d="M420.2,535l42.86,92-8.2,3.83-42.87-92Z"/><path class="cls-1" d="M363.53,598l1.51,7.89L337.93,611l-9.19-48.18q4-1.67,14.21-5A140.63,140.63,0,0,1,360,553.16q21.52-4.11,32.24,6.93T407.9,596.8a120.61,120.61,0,0,1,2.43,22.13,48.51,48.51,0,0,1-3,17.21q-5.55,15.32-27.64,19.53a145.79,145.79,0,0,1-27.91,2.5l-4.92-.1-1-7.69a177.78,177.78,0,0,0,31.6-2.6q17.36-3.31,21.47-14.87t-.21-34.22Q394.44,576,386.39,567t-25.24-5.74a130.83,130.83,0,0,0-22.37,6.64l6.39,33.56Z"/><path class="cls-1" d="M298.31,598.3l6.59-39.46,8.93,1.49L297.12,660.41l-36.72-6.13q-15.69-2.61-22.21-11t-3.94-23.82q4-24.06,24.17-26L244.7,548.79l9.94,1.66,13.14,42.75Zm-54.82,22.52q-1.87,11.23,2.56,17.45t15.67,8.09l27.8,4.64L297,606.22l-27.79-4.64Q247.32,597.92,243.49,620.82Z"/><path class="cls-1" d="M242.92,548.49l-75.18,74.13-18.45-10.37,24.4-102.69,7.76,4.37-6.61,28.44,39.45,22.18L235,544.05Zm-77,64,42.57-42-35.63-20L159,608.67Z"/><path class="cls-1" d="M168.16,502.24,93,570.41,52.78,526.06l6.06-5.49L93,558.21l31-28.15-29-32,6-5.4,29,32,32.12-29.13Z"/><path class="cls-1" d="M123.82,446.67,35.63,496.86,31.15,489l88.19-50.18Z"/><path class="cls-1" d="M111.37,430.73,5.78,430.34,0,410l89.68-55.66,2.43,8.57L67.38,378.41,79.74,422l29.16.07Zm-99.8-8.86,59.84.16L60.25,382.71,9.42,414.28Z"/></svg>