<svg id="Capa_1" data-name="Capa 1" xmlns="http://www.w3.org/2000/svg" viewBox="0 0 595.3 190.3"><path d="M0,0V190.3H595.3V0ZM88.4,88.2q-3,11.7-10.8,18c-5.2,4.3-12.6,6.4-22.1,6.4h-14v68.3H7.5V8.2H53.1c9.6,0,17.1,2.1,22.7,6.4s9.6,10.3,12,18.2S91.4,50,91.4,60.9A109.51,109.51,0,0,1,88.4,88.2Zm45.8,92.7H100.8V8.2h33.4Zm97.3-41.7c0,15.2-3.8,26.2-11.5,33-7.4,6.9-18.1,10.3-31.9,10.3-12.5,0-22.6-3.9-30.2-11.7s-11.4-18.7-11.4-32.7V58.4c0-16.7,3.3-29.6,10-38.5S174,6.6,188.9,6.6a50.25,50.25,0,0,1,21.8,4.5,34.64,34.64,0,0,1,15.1,13.5c3.7,6,5.5,13.5,5.5,22.6V77H197V51.5c0-5.2-.7-8.7-2-10.5s-3.3-2.7-6.1-2.7c-3.2,0-5.4,1.2-6.5,3.5a21.75,21.75,0,0,0-1.7,9.3v86.5c0,4.8.7,8.1,2.1,10.1a6.81,6.81,0,0,0,6,2.9A6.39,6.39,0,0,0,195,147a21.28,21.28,0,0,0,1.8-9.4V106.5h34.7Zm66,41.7L295,153H274.2L272,180.9H238.5L255.2,8.2h58.6l16.4,172.7Zm128.1,0H391.8L374.5,94.5v86.4H340.8V8.2h35.5l15.9,82.7V8.2h33.4ZM510.8,41.4H490.3V180.9H455.7V41.4H435.2V8.2h75.6Zm80.9,139.5H520.4V8.2h69.1V41.6h-34V75.3h32.6v32.5H555.5v39.6h36.2Z"/><polygon points="283.2 37.7 276.7 125.5 292.4 125.5 284.8 37.7 283.2 37.7"/><path d="M45.3,39.7H41.5V81.5h1.9c6.4,0,10.3-1.8,11.8-5.4s2.2-8.9,2.2-15.9c0-6.5-.7-11.6-2.1-15.2S50.6,39.7,45.3,39.7Z"/></svg>