<?xml version="1.0" encoding="utf-8"?>
<!-- Generator: Adobe Illustrator 18.0.0, SVG Export Plug-In . SVG Version: 6.00 Build 0)  -->
<!DOCTYPE svg PUBLIC "-//W3C//DTD SVG 1.1//EN" "http://www.w3.org/Graphics/SVG/1.1/DTD/svg11.dtd">
<svg version="1.1" id="Capa_1" xmlns="http://www.w3.org/2000/svg" xmlns:xlink="http://www.w3.org/1999/xlink" x="0px" y="0px"
	 viewBox="127.1 279.1 595.3 190.3" enable-background="new 127.1 279.1 595.3 190.3" xml:space="preserve">
<g>
	<g>
		<rect x="127.1" y="279.1" fill="#162A7C" width="595.3" height="190.3"/>
		<text transform="matrix(1 0 0 1 127.0862 460.5727)" fill="#162A7C" font-family="'ArialMT'" font-size="12">PICANTE</text>
	</g>
</g>
<g>
	<path fill="#FAD3E0" d="M134.6,460V287.3h45.6c9.6,0,17.1,2.1,22.7,6.4c5.6,4.3,9.6,10.3,12,18.2c2.4,7.9,3.6,17.2,3.6,28.1
		c0,10.5-1,19.6-3,27.3c-2,7.8-5.6,13.8-10.8,18c-5.2,4.3-12.6,6.4-22.1,6.4h-14V460H134.6z M168.5,360.6h2c6.4,0,10.3-1.8,11.8-5.4
		c1.4-3.6,2.2-8.9,2.2-15.9c0-6.5-0.7-11.6-2.1-15.2c-1.4-3.6-4.7-5.3-10-5.3h-3.8V360.6z"/>
	<path fill="#FAD3E0" d="M227.9,460V287.3h33.4V460H227.9z"/>
	<path fill="#FAD3E0" d="M315.2,461.6c-12.5,0-22.6-3.9-30.2-11.7c-7.6-7.8-11.4-18.7-11.4-32.7v-79.7c0-16.7,3.3-29.6,10-38.5
		c6.6-8.9,17.5-13.3,32.4-13.3c8.2,0,15.5,1.5,21.8,4.5c6.4,3,11.4,7.5,15.1,13.5c3.7,6,5.5,13.5,5.5,22.6v29.8h-34.3v-25.5
		c0-5.2-0.7-8.7-2-10.5c-1.3-1.8-3.3-2.7-6.1-2.7c-3.2,0-5.4,1.2-6.5,3.5c-1.1,2.3-1.7,5.4-1.7,9.3v86.5c0,4.8,0.7,8.1,2.1,10.1
		c1.4,2,3.4,2.9,6,2.9c2.9,0,5-1.2,6.2-3.6c1.2-2.4,1.8-5.6,1.8-9.4v-31.1h34.7v32.7c0,15.2-3.8,26.2-11.5,33
		C339.7,458.2,329,461.6,315.2,461.6z"/>
	<path fill="#FAD3E0" d="M365.6,460l16.7-172.7h58.6L457.3,460h-32.7l-2.5-27.9h-20.8l-2.2,27.9H365.6z M403.8,404.6h15.7l-7.6-87.8
		h-1.6L403.8,404.6z"/>
	<path fill="#FAD3E0" d="M467.9,460V287.3h35.5l15.9,82.7v-82.7h33.4V460h-33.8l-17.3-86.4V460H467.9z"/>
	<path fill="#FAD3E0" d="M582.8,460V320.5h-20.5v-33.2h75.6v33.2h-20.5V460H582.8z"/>
	<path fill="#FAD3E0" d="M647.5,460V287.3h69.1v33.4h-34v33.7h32.6v32.5h-32.6v39.6h36.2V460H647.5z"/>
</g>
</svg>
