<svg id="Capa_1" data-name="Capa 1" xmlns="http://www.w3.org/2000/svg" viewBox="0 0 781.88 339.07"><path d="M0,165.29c.28-2.69.59-5.37.82-8.06A43.76,43.76,0,0,1,3.25,146c6.11-17.13,12.18-34.29,18.51-51.34,1.71-4.62,4.31-8.89,6.43-13.36,3-6.34,5.95-12.72,9-19.06a24.93,24.93,0,0,1,2.46-4.09c1.18-1.59,2.25-1.66,3.89-.49.69.5,1.33,1.07,2.26,1.82A7.72,7.72,0,0,0,46,58.33c.13-5.15,2.37-9.37,5.76-13.08a140.53,140.53,0,0,1,16-15.13c2.62-2.09,5.09-4.37,7.57-6.63a14.72,14.72,0,0,0,2.52-2.88,14.54,14.54,0,0,1,7.71-5.77c8.32-3.05,16.66-6,24.94-9.17a86.06,86.06,0,0,1,15.62-4.51A89.8,89.8,0,0,1,147.89.27c11.16.76,21.54,4.41,31.87,8.26,6.06,2.25,10.94,6.3,15.07,11.15A85.66,85.66,0,0,1,203.28,31a171.42,171.42,0,0,1,16.41,37.15,60.78,60.78,0,0,1,2.83,20.79c-.27,6.27.61,12.42,1.56,18.57a6.26,6.26,0,0,1,0,2.82c-1.86,5.42-1.38,10.86-.34,16.33A69.49,69.49,0,0,1,225,144.27a39.72,39.72,0,0,1-3.58,14.81,67,67,0,0,0-6.48,23.14c-.86,9.35-4.38,17.77-9.57,25.53-2.18,3.25-4.41,6.46-6.65,9.67a32.46,32.46,0,0,0-6.06,17.38c-.32,6.73-3.08,12.12-9.34,15.38a17.57,17.57,0,0,0-7.73,8.27c-1.13,2.37-2,4.87-2.95,7.32s-1.61,4.67-2.54,7c-1.44,3.5-1,6.63,1.79,9.21a4.33,4.33,0,0,1,1.37,4.92c-.48,1.52-.77,3.09-1.18,4.81a7,7,0,0,1-3.27-3.1,66.84,66.84,0,0,1-3.69-7.5c-1-2.32-.44-4.7.57-7.19-3.48-2.83-6.91-5.68-10.43-8.42a3.67,3.67,0,0,0-2.47-.58,12.79,12.79,0,0,1-11.46-4.11c-2.4-2.45-5-4.74-7.16-7.38a27,27,0,0,1-6-16.61,112.32,112.32,0,0,0-.89-12,3.19,3.19,0,0,0-.59.87c-1.76,7.37-3.79,14.69-5.14,22.13-1.12,6.19-1.58,12.51-2.1,18.79-.82,9.83.69,19.38,3.4,28.84,2.27,7.9,4,15.94,5.83,23.95a15.33,15.33,0,0,1-.23,8.06c-2.15,6.92-9.74,8.78-14.76,3.55a21.46,21.46,0,0,1-3-4.28c-5.28-9.25-8.45-19.25-10.8-29.58a239.42,239.42,0,0,1-5.68-63.26c.13-3.19.4-6.38.69-9.56.38-4.28-.21-8.26-3-11.76a11.34,11.34,0,0,1-2.06-8.87,15.11,15.11,0,0,1,6.56-11c1-.67,2-1.32,3-2,2.5-1.85,3.14-3.72,2.25-6.69-.31-1.06-.81-2.08-1.15-3.14-1.1-3.44-1.87-6.91-1.28-10.59a17.85,17.85,0,0,1,3.69-8.45c.34-.44.77-.83,1.08-1.29,2.32-3.45,5.26-6.38,7.93-9.54,3.71-4.37,5.36-9.76,6.64-15.23a110.53,110.53,0,0,1,5.75-19c.5-1.17,1-2.34,1.61-3.47,6.61-12.84,23.1-11.21,29.58-2.67a35.12,35.12,0,0,1,6.07,13.68,45,45,0,0,1-1.17,23.41c-2.77,9.19-6.07,18.17-10.87,26.53a35,35,0,0,0-4.22,14.13c-.43,4.37-.81,8.76-.86,13.14,0,3.33.5,6.67.78,10a4.13,4.13,0,0,0,.14.7c1.64,6.11,6.26,8.38,11.94,5.54,8.19-4.1,14.47-10.15,18-18.78a210.52,210.52,0,0,0,10.39-33.83c1.65-7.39,3.25-14.82,4.38-22.3,2.08-13.71.63-27.22-3-40.56a30.23,30.23,0,0,0-5.73-11.47c-1-1.24-2-2.52-2.91-3.81a3.07,3.07,0,0,0-2.94-1.35c-.14,1-.34,2-.42,3.11-.31,4.21-.71,8.43-.84,12.66-.09,3.23-1.67,5.56-4.13,7.86l-1.83-2.35a27.09,27.09,0,0,1-5.65-17.67c0-.64,0-1.28,0-1.92.08-2.68-1-4.65-3.58-5.59a4.59,4.59,0,0,1-2.54-2.41c-.69-1.34-1.4-2.67-2.3-4.38-4.09,4.33-7.39,9.06-12.06,12.75-2-2.4-4.08-4.49-5.88-7s-4.67-3.42-7.5-4.22c-.53-.15-1.23.25-1.83.45a23.62,23.62,0,0,0-12.9,10.53c-1.21,2-2.34,4-3.57,6a30.63,30.63,0,0,1-6.9,7.9,6.83,6.83,0,0,0-2.6,7,33.48,33.48,0,0,1-2.46,20.8,27.2,27.2,0,0,0-2.09,13.37,92,92,0,0,0,1,9.52,37.29,37.29,0,0,1-.67,14.73,4.84,4.84,0,0,1-3.47,3.93,4.49,4.49,0,0,1-4.84-2c-4.81-7.1-7.73-14.56-5-23.43C86,137.24,88,129,90.11,120.82a4.14,4.14,0,0,0-1.21-4.58c-2.07-1.74-3.89-1.74-5.68.28C77.16,123.41,72.53,131,71.09,140.3a6.07,6.07,0,0,0-.13.94,32,32,0,0,1-3.19,13.41,7.57,7.57,0,0,0-.31,6.42c1.18,2.77.59,5.7-.57,8.39-1,2.27-2.19,4.44-3.36,6.61s-2.57,4.42-3.79,6.67c-6.55,12-6.47,28.44,5.1,40.61a43.66,43.66,0,0,1,6.93,10.31,6.13,6.13,0,0,1-1.23,7.67c-.61.62-1.3,1.17-2,1.74a49.29,49.29,0,0,0-15.39,22.15,8.55,8.55,0,0,1-2.64,4.19,6,6,0,0,0-2.06,6.91c1.72,5.13,1.19,10.43,1.7,15.65a55.18,55.18,0,0,1,.13,5.75,12.29,12.29,0,0,1-1.81,6.38c-1.09,1.77-2.28,2.15-4,1a8.29,8.29,0,0,1-2.71-2.91,15.93,15.93,0,0,1-1.95-9.47A73,73,0,0,0,40,274.56a7.21,7.21,0,0,0-3.06-5.44c-2.49-1.73-4.86-3.66-7.44-5.24a27,27,0,0,1-13-19.48,11.36,11.36,0,0,0-3.61-6.8A34.88,34.88,0,0,1,2,215.23c-.63-5.7-.72-11.47-1-17.2-.24-4.55-.44-9.09-.69-13.64,0-.78-.21-1.55-.32-2.33ZM174.48,11.44l-.39.33c2,2.54,4,5.09,6.1,7.61,6.6,8.11,13.36,16.09,19.81,24.32,8.06,10.29,14.77,21.39,18.83,33.93a7.36,7.36,0,0,0,.51,1l.49-.15a23.81,23.81,0,0,0-.58-2.79c-3.32-10.16-7.41-20-11.56-29.87a58.61,58.61,0,0,0-14.23-20.77,118.53,118.53,0,0,0-18.34-13.4A2.69,2.69,0,0,0,174.48,11.44ZM61.61,157.05c-.42,1-.68,1.54-.9,2.13-1.56,4.26-3.09,8.54-4.67,12.8a6.46,6.46,0,0,1-1.09,2.1,18.46,18.46,0,0,0-3.7,7.69A50.14,50.14,0,0,0,50,199.11a28.46,28.46,0,0,0,2.23,9.5A7,7,0,0,0,54.7,212a6.44,6.44,0,0,0-.51-2.27A15.12,15.12,0,0,1,53,202.93c.13-2.55.16-5.11.36-7.65.61-8,2.92-15.31,7.79-21.77a22.77,22.77,0,0,0,2.9-5.19C65.59,164.29,64.46,160.7,61.61,157.05ZM142,190.88h-.69c-2,6.89-3.44,13.82-2.53,21.11.43,3.49,2.7,5.58,4.68,7.83,1.35-.3,1.34-.9,1.05-1.85a39.54,39.54,0,0,1-1.94-7.61c-.43-5-.42-10-.57-15C142,193.85,142,192.36,142,190.88ZM41.32,62.4c-2.54,4-6.22,12.51-6.19,14.19.22,0,.55.09.66,0,2.77-2.95,5.6-5.85,8.24-8.92,1-1.14.71-2.34-.36-3.44A20.25,20.25,0,0,0,41.32,62.4Zm79.76,173.09a19.75,19.75,0,0,0,.81-1.82q1.42-4.18,2.8-8.39c1.42-4.31,2.86-8.62,4.25-12.95.51-1.58.46-1.59-1.18-1.87C126.18,214,120.55,233.6,121.08,235.49ZM65.84,153c2.68-6,4.42-11.51,4.12-13-1.14,1.22-4.43,8.41-5.62,12.32ZM165,93.31c2.92-2.79,2.8-7,0-8.65Z"/><path d="M604.87,83.55c-3.55-1.18-4.44-3.52-3.81-6.58a26.1,26.1,0,0,0-.81-13.2c-.83-2.71-1.4-5.46-.57-8.24a21.33,21.33,0,0,1,2.21-5.5,183.43,183.43,0,0,1,17.28-22.66,17.85,17.85,0,0,1,6.76-4.81l4.67-1.87a23,23,0,0,0,9.74-7.14,12,12,0,0,1,6.73-4.3Q653,7.77,658.83,6a23.87,23.87,0,0,1,11.34-.93A15.8,15.8,0,0,1,682,14.21a27.62,27.62,0,0,1,1.14,21.22,44.47,44.47,0,0,1-3.85,8.21c-4.52,7.73-7.33,16.1-9.56,24.7a1.75,1.75,0,0,0,.09.6c2.75,0,5.53,0,8.3,0,6.55-.14,13.11-.64,19.65-.41,10.05.34,20.09,1.21,30.14,1.79,12.22.72,24.29,2.64,36.36,4.53a33.81,33.81,0,0,1,8.88,2.72c5.64,2.61,8.51,7.21,8.68,13.5a15.2,15.2,0,0,1-2.14,8.94c-2.58,3.93-3.27,8.24-3.43,12.77a60.66,60.66,0,0,1-.72,7.61,9.89,9.89,0,0,1-3.26,5.8l-2.6-4.47c-.29.17-.51.22-.54.33-1.42,4.81-4.57,8.55-7.77,12.21a14.14,14.14,0,0,1-7.71,4.59,5.57,5.57,0,0,0-3.83,2.63c-1.13,1.92-2,4-3.08,5.93a30,30,0,0,1-3,5.15c-1.9,2.27-4.19,2.3-6.25.34a3.88,3.88,0,0,1-1.2-2.21c-.57-5.41-1.17-10.83,1.32-16a7.34,7.34,0,0,0,.53-1.58,2.17,2.17,0,0,0-1.47-2.87,12.37,12.37,0,0,0-2.5-.81,12,12,0,0,1-9.1-7.36,4.57,4.57,0,0,0-.5-.72,2.23,2.23,0,0,0-1.84,2.53,17.46,17.46,0,0,1-.26,4.28c-.54,2.38-2.18,2.88-3.74,1a47.39,47.39,0,0,1-4-5.94c-.75-1.22-1.22-2.6-2-3.84a9.69,9.69,0,0,0-7.77-4.94c-2.69-.27-4.42.66-5.1,3.26-1.29,4.93-2.56,9.89-3.4,14.92a114.27,114.27,0,0,0-1.53,21.23c0,1.83.21,3.65.33,5.67a17.63,17.63,0,0,0,2-.16c4.77-.94,9.52-2,14.32-2.84a51.62,51.62,0,0,1,26.65,2.53c4.31,1.56,6.75,4.43,7,9a53.16,53.16,0,0,1,0,7.14A12.79,12.79,0,0,1,742,183a26.49,26.49,0,0,0-5.79,10.89c-.51,1.77-.9,3.58-1.56,5.28a11.29,11.29,0,0,1-2.11,3.68,3.91,3.91,0,0,1-6.23-.46,24.27,24.27,0,0,1-1.71-2.88,8.12,8.12,0,0,0-5.86-4.5,3.82,3.82,0,0,1-1.85-.95c-2.85-2.67-5.79-5.28-8.43-8.17-3.27-3.57-7.15-4.24-11.57-3.08-2.41.64-2.94,1.7-2.1,4.09.92,2.64,2,5.23,2.9,7.87A60.46,60.46,0,0,0,703.61,207c3.61,5.71,8.45,9.51,15.33,10.3a19.57,19.57,0,0,0,12.38-2.88c5.44-3.2,9.84-7.61,13.92-12.35,1.36-1.58,2.63-3.22,4-4.81a11.56,11.56,0,0,1,1.51-1.54c2.65-2.13,5.41-1.16,6,2.23a34.2,34.2,0,0,1,.36,5.73,62.66,62.66,0,0,1-5.75,26.7,67.81,67.81,0,0,0-2.64,7.18c-1.2,3.67-3.33,6-7.45,6.37-3,.25-4,1.51-4,4.57a16.08,16.08,0,0,1-1.86,6.87,6.2,6.2,0,0,1-6.4,3.72c-1.33-.07-2.67-.28-4.2-.45a22.1,22.1,0,0,1-.51,2.39,58.36,58.36,0,0,1-2.26,6.52c-.93,2-1.94,2.18-3.86,1.08-.7-.39-1.34-.88-2-1.29s-1.24-.69-2-1.09a10.64,10.64,0,0,0-1.86,5.62,20.2,20.2,0,0,0,1.64,10,40.75,40.75,0,0,1,3.35,15.11c0,5-.45,9.91-3.31,14.24a20.26,20.26,0,0,1-2.69,3.35c-2.62,2.51-5.68,1.81-7-1.58a10.08,10.08,0,0,1-.64-5.87c.6-3,.79-5.85-1-8.57a3.61,3.61,0,0,1-.21-1.61,24.57,24.57,0,0,0-.18-3.1,8.79,8.79,0,0,1,.33-4.46,6.3,6.3,0,0,0-3.22-7.7,4.52,4.52,0,0,1-2.14-2.34,48.15,48.15,0,0,0-2.86-4.69c-.9-1.41-1.94-2.74-2.74-4.2a9.1,9.1,0,0,1-1-5.56,54.26,54.26,0,0,0-1.27-17.6,10,10,0,0,0-8-8.4c.15,2.43.26,4.63.43,6.83q.86,11.1,1.74,22.2c.15,1.83.32,3.66.44,5.49a5.89,5.89,0,0,1-1.85,4.52,2.08,2.08,0,0,1-2.38.63,7.15,7.15,0,0,1-4.19-3c-3.4-5.72-4.44-11.7-2.25-18.14a81.44,81.44,0,0,0,2.46-8.49,14.54,14.54,0,0,0-1.39-10.23,54.28,54.28,0,0,1-6-21.29c-.59-6.84-.92-13.7-1.37-20.55-.05-.78-.13-1.56-.22-2.55-.82.12-1.43.2-2,.31a29.25,29.25,0,0,1-3.28.65c-1.78.13-2.79-.53-3.16-2.25a25.93,25.93,0,0,1-.49-4.74c-.08-2.88,0-5.75-.07-8.63-.1-6.11,1.88-9.12,7.62-11.26a2.4,2.4,0,0,0,1.9-2.37c.08-1.75.49-3.5.41-5.24a31,31,0,0,0-.88-5.38,23,23,0,0,0-1-2.68,10.17,10.17,0,0,1,.33-8.14c1.81-3.82,3.7-7.61,5.38-11.49,2.94-6.81,5.76-13.68,8.63-20.53a13.72,13.72,0,0,0,.39-1.52,13.77,13.77,0,0,0-1.71-.11c-4.62.38-9.25.7-13.85,1.2-3,.31-3.94,1.55-4,4.58,0,1.44,0,2.88.09,4.31.22,4,.56,8,.72,12a26.5,26.5,0,0,1-.31,5.7c-.43,2.39-1.6,3-4,2.46-1.15-.27-2.25-.75-3.62-1.22-.33,2-.63,3.84-1,5.71a145.32,145.32,0,0,0-1.73,31A82.9,82.9,0,0,1,649.22,196c-.93,4.86-1.82,9.74-2.47,14.64a12.42,12.42,0,0,0,.58,5.15c1,3.2,2.26,6.31,3.37,9.47a44.09,44.09,0,0,1,2.72,11.62,16,16,0,0,1-1,7.51c-.58,1.38-1,2.82-1.56,4.46l-7.66-2.7a40.51,40.51,0,0,0,.24,7.54c.49,3.06,1.26,6.09,1.94,9.12,1.27,5.66,1.86,11.35.72,17.1a27.87,27.87,0,0,1-1.4,4.81,4.83,4.83,0,0,0,0,3.94c.68,1.53,1.44,3,2.16,4.54,2,4.19,3.74,8.46,4.14,13.17a21,21,0,0,1-3.63,14.06c-2.41,3.56-4.4,7.4-6.59,11.11-.7,1.18-.92,3-2.8,2.83-2.06-.16-3.9-.91-4.86-3a28.4,28.4,0,0,1-2.74-9.87q-.79-9.92-1.41-19.83a13.66,13.66,0,0,0-2.47-7.82,51.22,51.22,0,0,1-8.19-16.42,52.88,52.88,0,0,0-2.09-5.35,24.61,24.61,0,0,1,1.28-22.57,24.62,24.62,0,0,0,1.21-2.34,7.46,7.46,0,0,0-.91-7.91l-.14-.19c-5.29-5.41-5.72-12.07-4.74-19a94.85,94.85,0,0,1,1.94-9.6,42.09,42.09,0,0,0,.84-13.09,6.68,6.68,0,0,0-.68-1.67,12.88,12.88,0,0,0-1.13,1.78c-1,2.53-1.9,5.09-2.85,7.63-.3.82-.61,1.64-.94,2.46-1.31,3.24-3.21,5.76-7.41,5.61-.07.89-.18,1.64-.19,2.4,0,3.28,0,6.55-.12,9.82,0,1.44-.27,2.86-.44,4.29a4.51,4.51,0,0,1-.29,1.15,4,4,0,0,1-2.87,2.67c-1.41.21-2.37-.91-3-2a18.76,18.76,0,0,1-1.33-3.31c-.52-1.49-1-3-1.63-5-1.9,1.95-3.51,3.45-4.41,5.67a14.92,14.92,0,0,1-2.62,4.49,36.23,36.23,0,0,0-7,10.72c-2.42,5.82-5,11.58-7.55,17.34a12.22,12.22,0,0,0-.74,7.28c1,5.53.88,11.13,1,16.71.06,2.57-.94,4.81-2.19,7.25a18.58,18.58,0,0,1-4.76-4.59c-2.5-3.61-5.06-7.18-7.49-10.84a5.53,5.53,0,0,0-5.46-2.69c-5.09.37-7.41-.72-8.41-7.09-.59-3.78-.64-7.65-1.31-11.41-1.07-6-2.27-11.92-3.75-17.79a66.75,66.75,0,0,1-1.45-23.05c.87-9.06,1.42-18.15,2.17-27.22a34.7,34.7,0,0,1,.94-5.65,8.06,8.06,0,0,1,3.31-4.65l2,2.85c.32-1.13.53-1.7.64-2.29,1.19-6.51,2.34-13,3.59-19.54a16.4,16.4,0,0,0-.21-5.93,23.54,23.54,0,0,1-.66-5,11.57,11.57,0,0,1,1.16-4.79,4.17,4.17,0,0,0-.06-4.36c-1.67.46-3.14,1-3.79,2.85-1.66,4.59-1.86,4.74-6.63,5.71-.18,1-.41,2.06-.57,3.14-.18,1.35-.26,2.71-.46,4a8.3,8.3,0,0,1-3.55,5.91c-.28-.36-.57-.68-.81-1-1.4-2.1-3.8-2.23-5.31-.2-1,1.41-1.94,2.93-2.88,4.42-1.6,2.57-3.17,5.17-4.78,7.74a33.87,33.87,0,0,0-5.24,17.68c-.08,3.83-.31,7.66-.52,11.49a19.67,19.67,0,0,1-.47,3.32,5,5,0,0,1-3.21,3.89,4,4,0,0,0-2.77,3c-1,3.54-1.16,7,.4,10.53,2,4.44,4,8.9,4.84,13.74,1.3,7.42-1.34,13.35-7.07,18-3.25,2.61-6.65,2.29-9.5-1.14-2.52-3-5.8-4.65-9.35-6.39-.23.66-.47,1.23-.61,1.82-.64,2.63-1.21,5.29-1.88,7.92a18.85,18.85,0,0,1-6.7,10.77A6.31,6.31,0,0,0,476.2,272c.16,1.34.42,2.67.66,4a28.87,28.87,0,0,1-1.94,17.56c-1.52,3.3-4.4,4.94-7.54,6.22a2.93,2.93,0,0,1-2.9-.73,10.2,10.2,0,0,1-3.38-4.56c-2.79-7.43-3.37-14.9-.52-22.46.28-.75.47-1.52.69-2.29a4.38,4.38,0,0,0-2-5.39,3.85,3.85,0,0,1-2-4,22.52,22.52,0,0,1,.66-4.25c.72-2.64.15-4.78-2.19-6.25a10.19,10.19,0,0,1-3.92-5,4.62,4.62,0,0,0-1.51-2.07c-3.44-2.25-4.9-5.63-5.46-9.46-1.22-8.29-2.3-16.6-3.45-24.9-.13-.93-.31-1.85-.54-3.2a12.11,12.11,0,0,0-.69,1q-4.76,10.59-9.52,21.18c-.36.8-.76,1.58-1.13,2.38a10,10,0,0,0-.09,8.78,17.35,17.35,0,0,1,1.27,4.81,5.89,5.89,0,0,1-2.87,5.93,22,22,0,0,1-4.51,2.16c-5.71,2.08-7.2,4.9-5.31,10.73a58.46,58.46,0,0,1,2.35,12.2,3.53,3.53,0,0,1-.11,1.41c-.77,2.36-2.51,2.83-4.4,1.22a5,5,0,0,1-1.55-4.56c.27-2.86.63-5.71.95-8.57.11-.94.21-1.88.34-3l-7.22-3.35c-.75,2.57.25,5-.95,7.71-3.66-4-6.83-7.87-10.13-11.54a4.29,4.29,0,0,0-.84.24c-2.28,1.34-3.27,1.21-4.26-1.16a25.38,25.38,0,0,1-1.65-6.19c-.62-4.35-1-8.73-1.48-13.09a21.85,21.85,0,0,0-.53-2.21,20.9,20.9,0,0,0-1.13,1.92c-2.34,5.33-4.7,10.65-7,16a48.33,48.33,0,0,1-6.66,11.28,82.61,82.61,0,0,0-6.83,10.95,11.46,11.46,0,0,0-1.15,7.43c1.06,7.63-1.65,11.6-9.06,13.63a2,2,0,0,1-.23.07c-5.61,1.08-8.25,4.11-8.23,10.78,0,3.1-.19,6.21-.49,9.31-.18,1.89-1.59,3.55-2.77,3.46-1.7-.12-2.65-1.38-3.32-2.78a11.08,11.08,0,0,1-.6-2.54c-.5-2.42-.83-4.88-1.51-7.25s-1.87-2.82-4.21-1.87c-1.09.44-2.1,1-3.33,1.66.53.45.81.72,1.13.94a11.44,11.44,0,0,1,4.9,9.19c.31,6.14.4,12.29.53,18.44a4.3,4.3,0,0,1-.51,2c-.9,1.68-1.92,3.3-3,5.05-2.42-1.31-4.42-2.75-5.17-5.44-1.2-4.3-2.56-8.56-3.64-12.89-.85-3.43-2.1-6.51-5-8.73a5.58,5.58,0,0,1-1.65-2c-1.63-3.48-3.08-7-3-11a18.83,18.83,0,0,0-.49-4.73,7.33,7.33,0,0,0-4.66-5.42c-5.29-2.05-8.07-6-8.93-11.48-.51-3.22-1.15-6.43-1.72-9.65a11.89,11.89,0,0,0-5.85-8.64,10.18,10.18,0,0,1-5.3-9c-.13-2.87,0-5.77-.33-8.6a29.84,29.84,0,0,0-1.86-7.13c-2.34-5.86-4.92-11.61-6.4-17.78a43.82,43.82,0,0,1-.49-18.28,45.1,45.1,0,0,0,.74-10.23,98.64,98.64,0,0,1,.93-17.44q1.75-14.13,3.65-28.26c.56-4.19,1.12-8.39,1.92-12.54a16.82,16.82,0,0,1,10.19-13c3.4-1.47,4.19-3.2,3.34-6.91s-1.74-7.46-1.6-11.34A18.51,18.51,0,0,1,303.31,88c8-11,16.1-21.89,24.92-32.23a23.19,23.19,0,0,1,9.07-6.89C343.75,46.33,350,47.1,356,50.2c6.51,3.36,11.37,8.35,13.42,15.51,2,6.89,3.62,13.88,5.32,20.86,1.64,6.74,3.16,13.52,4.76,20.27a23.2,23.2,0,0,1,.46,8.06,53.26,53.26,0,0,0,.94,17.39c.2.93.31,1.89.44,2.83a5.69,5.69,0,0,1-3.37,6.27A10.65,10.65,0,0,1,377,142c-5.14,2-6.68,6.3-7.16,11.22-.17,1.74.07,3.51,0,5.27q-.17,3.95-.51,7.87a9.1,9.1,0,0,1-.64,2.55,3.13,3.13,0,0,1-4,2.2,17.47,17.47,0,0,1-2.95-.95c-4.12-1.49-7.52.92-7.29,5.29.1,1.82.49,3.63.74,5.45a7.84,7.84,0,0,1-1.54,5.87,1.88,1.88,0,0,1-2.26.91c-1.81-.74-3.41-.18-5.1.42-3.41,1.21-5.41-.33-5.12-4a48,48,0,0,1,1.08-5.39c-3.36-1.39-3.76-4.49-4.09-7.65-.19-1.74-.44-3.48-.76-5.21a8.28,8.28,0,0,0-3.95-5.76c-4.23-2.53-6-6.41-5.7-11.1.21-3.81.86-7.61,1.44-11.39a102.7,102.7,0,0,1,3.81-17c2.11-6.31,5.73-11.74,9.81-16.9,1.34-1.7,3.05-2,5.17-1.23,1,.4,2,1,3,1.46a8.56,8.56,0,0,0-4.19-8.23,7.88,7.88,0,0,0-9.34,1.08,32.1,32.1,0,0,0-4,5.07,42.59,42.59,0,0,0-5.4,13.25,93.24,93.24,0,0,1-5.49,16c-2.8,6-3.18,12.48-2.49,19a28.6,28.6,0,0,1-1.44,13.69,16.9,16.9,0,0,0-.45,10.32c.42,1.87,1.05,3.7,1.33,5.58a29.52,29.52,0,0,1,.3,5.71,7.16,7.16,0,0,1-3.29,5.59c-.91.64-1.88,1.2-3,1.87,0,1.62,0,3.29,0,5,0,5,.06,9.9,0,14.86a38.69,38.69,0,0,1-.32,4.29,28.59,28.59,0,0,0,3.24,17.14A63.84,63.84,0,0,0,325,246.53c1.81,2,3.48,4.18,5.31,6.19a3.35,3.35,0,0,0,2.14,1.24c3.71-.27,7.41-.77,11.27-1.21-.39-4.4,1.8-7.33,4.84-9.59a33.22,33.22,0,0,0,9.26-11.43c7.24-13.51,14.6-27,21.87-40.47A126.86,126.86,0,0,0,393,150.75c.76-4.72,1.62-9.44,2.79-14.07a27.8,27.8,0,0,1,8.23-13.81,7.54,7.54,0,0,0,1.43-1.89c1.84-3.36,3.55-6.78,5.47-10.09a12.35,12.35,0,0,0,1.74-6.36,47.69,47.69,0,0,1,.35-6.21,16,16,0,0,1,6.14-10.75A22,22,0,0,1,432,82.82a10,10,0,0,1,9.06,4.4,20.25,20.25,0,0,1,2.53,4.86c1.75,4.8,3.33,9.65,5,14.48a5.89,5.89,0,0,0,1.5,2.5c0-.83,0-1.66.07-2.49.1-2.55.07-5.11.35-7.64.37-3.4,2.09-4.85,5.52-4.45a32.59,32.59,0,0,1,6.46,1.65c3,1,6,2.21,9,3.3.81.3,1.65.5,2.61.79a4.55,4.55,0,0,0,.3-1c0-4.23,0-8.46-.05-12.69a10.81,10.81,0,0,0-1.41-5c-3.81-7.18-3-13.5,2.46-19.63,3.49-4,6.89-8,10.41-11.91a44.72,44.72,0,0,1,17.53-12.22,20.37,20.37,0,0,1,3-.94,7.6,7.6,0,0,1,8.81,3.68,19.94,19.94,0,0,1,2.7,13.8,10.84,10.84,0,0,1-.44,2.35,17.23,17.23,0,0,0-.34,9.63c1.81,8.65,1.67,17.46,1.57,26.25,0,3.27-.08,6.55-.1,9.82,0,.76.09,1.52.15,2.55,1.15-.61,1.24-1.54,1.55-2.28,2.88-6.83,5.72-13.69,8.64-20.52a63.64,63.64,0,0,1,2.86-5.8,15.64,15.64,0,0,1,7.23-7.1c3.26-1.45,4.9-4.17,6.48-7.07a14.12,14.12,0,0,1,2.51-3.7c2.6-2.39,5.9-1.74,7.68,1.3.85,1.45,1.56,3,2.51,4.36a18.38,18.38,0,0,0,7.23,6.15c10.06,4.81,14.79,13.32,16.4,23.81.88,5.67,1.89,11.33,2.66,17,.65,4.7.14,9.55.09,14.34-.06,4.95-.41,9.9-.25,14.84a84.54,84.54,0,0,1-3.55,27.66,76.2,76.2,0,0,0-2.78,17.93,14.67,14.67,0,0,1-2.89,8.86l-2.21-1.23c-.67-.37-1.35-.72-2.28-1.22-.81,3.58-1.55,6.83-2.29,10.08-1.83,8.09-3.63,16.19-5.49,24.28a22.19,22.19,0,0,0,.15,10.44c.52,2.08,1.1,4.15,1.67,6.28,1.2-.11,1.6-1,2.1-1.6,2.89-3.63,5.64-7.36,8.62-10.91a53.88,53.88,0,0,0,6.34-9.83,311.94,311.94,0,0,0,28.45-77.55,16,16,0,0,0,.47-6.7c-1.67.81-3.18,1.47-4.63,2.25a10.14,10.14,0,0,1-5.75,1.3,7.62,7.62,0,0,1-7.42-6.3c-1-4.36-2-8.71-2.71-13.12a39.41,39.41,0,0,1-.26-8.82,34.88,34.88,0,0,0-.4-7.85,27.85,27.85,0,0,1-.41-5.46A10.75,10.75,0,0,1,594.17,90c2.94-1.9,6-3.62,9-5.43ZM465.28,172.69c-.15.64-.3,1.17-.41,1.72-.59,3.13-1.21,6.25-1.74,9.39-.47,2.75-1,5.5-1.21,8.28-.62,8,0,15.95.56,23.9a9.27,9.27,0,0,0,1.59,4.41c1.4,2,3.55,1.93,4.93-.09a15.75,15.75,0,0,0,2.19-4.47c1.08-3.75,2-7.56,2.83-11.36,1.25-5.53,2.36-11.12,5-16.17a29.64,29.64,0,0,0,2.73-9.81c.73-5,.28-9.91-.23-14.81a25.21,25.21,0,0,1,1.56-12.42c.39-1,.85-1.89,1.19-2.86a11.63,11.63,0,0,0,.82-2.94c.85-13.79.95-27.59.86-41.4,0-.94-.08-1.87-.14-3.1l-8.64,2.17c.6,2.1,1,4,1.65,5.75a24.8,24.8,0,0,1-.51,18c-1.36,3.41-2.87,6.76-4.47,10.05a28.12,28.12,0,0,0-2.67,17,43.43,43.43,0,0,1,.45,11.44C471.07,170.68,470.57,171.34,465.28,172.69ZM424,142.51c-.31.61-.55,1-.72,1.42a34.54,34.54,0,0,0-2.6,9.67,10.54,10.54,0,0,1-.56,2.56,77.19,77.19,0,0,0-4.35,29.43,129.32,129.32,0,0,0,1,13.35A18.11,18.11,0,0,0,423,210.52c.64.55,1.37,1,2.42,1.75,1.26-4.17,2.53-7.94,3.51-11.78,1.22-4.79,2.18-9.65,3.26-14.47,1.42-6.33,2.7-12.66,1.62-19.2a4.53,4.53,0,0,1,.28-2.11c1.89-5.26.55-10.08-2.05-14.67C430.21,146.76,427.31,144.55,424,142.51Zm219.66,63.75.4,0a4.75,4.75,0,0,0,.47-1c1.23-6.25,2.61-12.48,3.59-18.77,1.2-7.67,1.09-15.43,1-23.17A68.45,68.45,0,0,1,650,149c.56-2.8,1.39-5.56,2.19-8.3a6.32,6.32,0,0,0-2.9-7.67c-.37,2-.76,3.95-1.1,5.89a167.33,167.33,0,0,0-2.82,32.36,150.42,150.42,0,0,1-1,17.89c-.45,4.76-.64,9.54-.9,14.32A19.72,19.72,0,0,0,643.68,206.26ZM488.74,154.4a5.45,5.45,0,0,0,2.34-4.91c-.32-6.61-.45-13.23-.66-19.85q-.45-13.75-.91-27.51c0-.64-.17-1.29-.3-2.26a2.55,2.55,0,0,0-.94,2.44c-.44,14.91-.84,29.83-1.33,44.74A14.64,14.64,0,0,0,488.74,154.4Zm-152.12,172c-3.39-.52-4.82-2.64-5.62-5.45-1-3.68-2.25-7.31-3.28-11-1.26-4.51-4.33-7.72-7.62-10.78-.12-.11-.43,0-.69,0-.06.28-.21.54-.14.71,1.08,2.57,2.07,5.19,4,7.27a18.67,18.67,0,0,1,4.82,10c.73,4.16,1.57,8.3,2.32,12.45a8.89,8.89,0,0,0,3.15,5c1,.93,2,.64,2.21-.71C336.14,331.48,336.34,329.1,336.62,326.45ZM593.59,97a7.5,7.5,0,0,0-2.05,6.37c.66,6.34,1.21,12.69,1.83,19,.19,2,.46,4,.69,6a1.83,1.83,0,0,0,1.08-1.09c.6-2.14,1.3-4.27,1.69-6.46,1-5.45,0-10.79-1.2-16.09C595,102.14,594.28,99.57,593.59,97Zm170.5-17-.17.48c7,4,11.69,9.62,12.14,18.11,4.51-3.46,5-9.39,1.25-13.35a17.42,17.42,0,0,0-12.13-5.43A4.71,4.71,0,0,0,764.09,79.94ZM680.93,235.12a10.85,10.85,0,0,0,1,.6c7.29,3.68,11.52,9.33,11.49,17.75,0,.3.29.6.44.9.32-.16.53-.19.59-.3a1.57,1.57,0,0,0,.19-.67,42.68,42.68,0,0,0-1.17-12.79,13.48,13.48,0,0,0-4.33-7A5.3,5.3,0,0,0,680.93,235.12ZM569.24,190.07c-1.4-.75-2-.58-2.48.68-1.14,3.22-2.51,6.36-3.64,9.59a55.3,55.3,0,0,0-2.18,7.56,16.68,16.68,0,0,0,.59,9.44C564.37,208.34,566.77,199.25,569.24,190.07Zm126.59-65.63c-1.54,1.61-2.05,3.71-2.67,5.72a77.49,77.49,0,0,0-3.3,18.78,112.16,112.16,0,0,0,.34,11.44,2.82,2.82,0,0,0,1.68,2.73C691.1,149.85,693.35,137.18,695.83,124.44ZM354,54c-4.8-4.78-15.8-3.05-18.13,1.48,2.31.37,4.57.81,6.84,1.06a29.34,29.34,0,0,0,4.78.08A10.46,10.46,0,0,0,354,54ZM336,257.14a3.44,3.44,0,0,0-.75.07c-3.33,1.57-3.8,1.39-6.24-1.44a28.08,28.08,0,0,0-3.72-3.32c-.29-.23-.83-.13-1.26-.19-.05.49-.31,1.11-.11,1.46q3.54,6.22,7.24,12.36c.24.39.95.87,1.26.76a2.18,2.18,0,0,0,1.18-1.22c.58-1.65,1-3.35,1.48-5C335.34,259.47,335.63,258.35,336,257.14ZM368.9,66.47c-1.28,1-1.29,1-1.25,1.62.07,1.35.13,2.71.25,4.06.3,3.49.49,7,1,10.47a17.78,17.78,0,0,0,3.66,8.47c.48.61,1,1.37,2.08.48C372.74,83.35,370.86,75.07,368.9,66.47ZM550.39,163.9c-.36,2.38-.64,4.66-1.06,6.92-.9,4.86-2.06,9.68-2.74,14.57-.38,2.72,0,5.55.08,8.33,0,.72.22,1.5,1.59,1.1q1.89-15.28,3.83-30.92ZM419.45,143.17l.63.18a7.85,7.85,0,0,0,1.06-1.18c2.41-4.24,3.2-3.62,6.33-1.25a3.22,3.22,0,0,0,3.32.63l-7-9.88c-1.45,1.29-3.13,2.12-3.65,3.41A17.13,17.13,0,0,0,419.45,143.17ZM339.8,108.9c-1.64,2.74-7.84,18.83-7.92,20.44C337.53,126.36,342.83,114.64,339.8,108.9ZM735.87,242.11c2.75-1,5.51-2,8.21-3.1a3.32,3.32,0,0,0,1.31-1.34,38.42,38.42,0,0,0,5.82-14.27,8.23,8.23,0,0,0,0-1.49,61.88,61.88,0,0,0-2.87,6.31,40.53,40.53,0,0,1-3.34,6,5.5,5.5,0,0,1-4.87,2.56,6.44,6.44,0,0,0-2.11.38C735.92,237.84,735.16,239.47,735.87,242.11ZM665,70.37c1.57-2.22,5.76-14.55,5.68-16.46a14.66,14.66,0,0,0-5.64,3.5A3.77,3.77,0,0,0,664,60C664.2,63.29,664.6,66.6,665,70.37ZM467.51,235.53c.78-.63,1.67-1,1.8-1.53.55-2.28.86-4.62,1.28-7.05-3.24-1-6.18-2-9.79-2.9C463.15,228.06,465.18,231.54,467.51,235.53ZM580.23,104.78c.35-6.36-2.46-19.45-5.57-21.9.07.66.1,1.2.18,1.74.61,3.69,1.23,7.37,1.83,11.06.3,1.81.49,3.64.87,5.42A4.51,4.51,0,0,0,580.23,104.78Zm-275.44,6.58a30.17,30.17,0,0,1-.46,3.85,9.6,9.6,0,0,1-3.88,5.27,2.71,2.71,0,0,0-1.27,2.83c.11.7.16,1.41.24,2.06,2.51.92,3.45.7,4.68-1.35a14.09,14.09,0,0,0,1.5-11.23A7.55,7.55,0,0,0,304.79,111.36ZM605.86,82.42c4.72.46,6.52-1,7.18-5.16.37-2.27.72-4.55,1-6.83a8.78,8.78,0,0,0,0-2.61,3.75,3.75,0,0,0-2.62-3.21c0,.8,0,1.34,0,1.88.13,2.22.28,4.43.41,6.65.24,4.08-1.06,6.68-4.37,7.86C606.85,81.22,606.39,81.93,605.86,82.42ZM351.32,183.94a7.32,7.32,0,0,0,.69-4.59c-.12-1.67-.27-3.33-.34-5a8.34,8.34,0,0,1,2-6c.23-.27.42-.59.75-1.06-.53-.1-.82-.19-1.11-.21-3.2-.15-3.71.45-3.63,3.67.06,2.7-.06,5.4-.09,8.1a22.75,22.75,0,0,0,0,3.09C349.74,182.88,349.9,183.93,351.32,183.94ZM508.48,198.4c-.58.17-.77.17-.87.26-3,2.77-3.5,8.1-2.19,11.78.14.39.69.63,1.47,1.29C507.46,207,508,202.79,508.48,198.4ZM763,126.16c1,.67,1.59.63,1.89-.31,1-3.24,2-6.48,3.11-9.93l-2.28-.66C764.8,119.08,763.9,122.67,763,126.16Zm-66.6,143a101.78,101.78,0,0,0-1.91-13C692.41,260.32,693.26,266.11,696.43,269.21ZM667.71,77.09A11.24,11.24,0,0,0,673,76a4.92,4.92,0,0,0,.88-1.45C669.66,72.65,668.32,73.26,667.71,77.09ZM344.62,312.27l2.42-4.72-.35-.38-4.87,1.67Zm170.66-204.1c-1.17,2.29-1.82,12.89-.83,14.67Q514.87,115.51,515.28,108.17Zm59.08,78c1-1.95,1-6.17.06-7.48A17.82,17.82,0,0,0,574.36,186.17Z"/><path d="M281.15,330.06l-4.81-4.35c-.91.59-1.71,1.09-2.5,1.62a9.83,9.83,0,0,1-10.22.75,28.85,28.85,0,0,1-13.69-12.92,53.87,53.87,0,0,1-5.19-16.36c-1-5.81-1.82-11.66-2.89-17.47A54.62,54.62,0,0,0,233.11,260c-6.16-8.89-7.84-18.71-5.89-29.22a36.2,36.2,0,0,0,.75-9.28,21.16,21.16,0,0,0-3.37-10.12c-5.56-8.53-6.17-17.6-3.1-27.07,1.28-3.95,2.79-7.82,4.24-11.71a52.85,52.85,0,0,0,3.52-20.14c-.14-5,0-9.91,0-14.86a8,8,0,0,0-1.13-4.32c-2.88-4.83-2.58-9.45.7-14.08a166.67,166.67,0,0,1,26.37-29.34,24.9,24.9,0,0,1,14.57-6,29,29,0,0,1,5.25-.25c5,.43,8.25,4.06,8.34,9.41a78.68,78.68,0,0,1-.65,9.06c-1,10.61-3.55,20.9-6.17,31.19a65.48,65.48,0,0,0-2.2,19.21c.09,1.91.38,3.81.51,5.72a48.46,48.46,0,0,1,.33,6.9c-.66,8.83-1.29,17.67-2.33,26.46a77.64,77.64,0,0,1-8.66,28c-2.7,5-3.83,10.34-2.31,15.94a20.36,20.36,0,0,0,2.43,5.69c3.27,5.08,3,10.21.9,15.56a62.86,62.86,0,0,0-2.9,8.34c-1.47,6.1.18,11.53,4.21,16.26a21.12,21.12,0,0,0,2.86,2.89,16,16,0,0,1,5.73,9.19,83.39,83.39,0,0,0,7.46,19.63,25.1,25.1,0,0,1,1.35,3.32C285.31,320.54,285.6,324.68,281.15,330.06Zm-10-146.33a93.63,93.63,0,0,0-10.09,33.9C266.3,206.87,270.72,195.88,271.18,183.73Zm10.26,140.82a10.94,10.94,0,0,0-.57-8.35c-1-2.25-2.27-4.37-3.48-6.51-1.33-2.37-2.68-4.71-3.07-7.46,0-.3-.35-.57-.54-.85l-.52.12a19.58,19.58,0,0,0,.23,2.44c.33,1.64.78,3.25,1.15,4.87.74,3.26,1.51,6.5,2.16,9.77A7.79,7.79,0,0,0,281.44,324.55Zm-.59-227.38c1.43-5.35-1-9.5-6.84-9.4ZM235.51,150c-.78-3.13-1.55-6.2-2.33-9.26-.17-.67-.46-1.21-1.52-.71a66.12,66.12,0,0,0,.07,6.74,8.06,8.06,0,0,0,1.49,3.15C233.71,150.73,234.5,150.79,235.51,150Zm-2.79,2.11a54.82,54.82,0,0,0-.57,9.84C235.22,158.06,235.46,153.85,232.72,152.15Z"/><path d="M234.41,103.17c-1.66-6.19-2.37-11.85-1-17.59A24.23,24.23,0,0,1,240,74.08c4.63-4.73,5.44-10.3,3.34-16.37a13.62,13.62,0,0,0-8.4-8.63c-1.94-.72-4-1.16-5.95-1.8a21.12,21.12,0,0,1-4-1.54,5.3,5.3,0,0,1-2.61-6.14A16.87,16.87,0,0,1,223.72,36c4.16-8.29,10.48-14.59,18.19-19.6a6.75,6.75,0,0,1,6.23-.4c11.37,4.08,21.1,12.65,21.82,28.22.25,5.31-.4,10.66-.69,16-.1,1.9-.31,3.8-.49,5.8,1.39.55,2.68,1,3.89,1.56a49.62,49.62,0,0,1,6.56,3.4,9.05,9.05,0,0,1,3.94,9.24c-1.86-.44-3.73-.8-5.55-1.34-5.75-1.72-11.36-1.1-16.93.81a38.74,38.74,0,0,0-16.22,10.71c-2.9,3.17-5.41,6.69-8.09,10.06C235.8,101.23,235.27,102,234.41,103.17Zm32.11-37.49c.13-.9.24-1.36.27-1.83.29-4.06.69-8.12.83-12.18.11-3.34.5-6.82-.23-10-2.5-10.91-9.77-17.58-20.12-21.21a5.48,5.48,0,0,0-5.2.83,54.11,54.11,0,0,0-15.6,16.36,4.42,4.42,0,0,0-.65,2,1.71,1.71,0,0,0,1.29,2q3.18,1,6.27,2.23c2.18.88,4.32,1.59,6.73.91,1.34-.37,2.37.32,3.26,1.55l-2.64.61c.77,2.22,2.1,3.22,4.35,3.07a15.36,15.36,0,0,1,3.13.41l.11.59-1.61,1.19c-1.76,1.31-1.87,2.32-.28,3.89.79.79,1.73,1.42,2.54,2.19a6.12,6.12,0,0,1,.79,1.37l-2.67.24c-.21,3.13-.41,6.12-.59,8.86,1.15,1.26,3,.55,3.72,2.38-1.47,1-2.89,2-4.38,2.82a23.34,23.34,0,0,0-8.71,8.71,18.67,18.67,0,0,0-2.57,9.84,6.2,6.2,0,0,0,1,3.54c2.2-2.29,4.28-4.37,6.26-6.55a56.07,56.07,0,0,1,20-14.18c2.5-1.05,4.95-2.23,7.41-3.38a12.65,12.65,0,0,0,1.51-1.07c-1.46-.21-2.48-.41-3.5-.5-1.83-.15-3.66-.23-5.49-.36-1.65-.12-2.18-.68-2.15-2.21s.55-2,2.05-2.08S264.74,65.68,266.52,65.68Z"/><path d="M503.09,259.59a19.48,19.48,0,0,1,5.26,9.85,18.13,18.13,0,0,1-1,11.49c-1.08,2.5-1,5.15-1.24,7.76-.12,1.35,0,2.71-.11,4.07a9.17,9.17,0,0,1-.39,2.34c-.45,1.31-1.09,2.59-2.66,2.76-1.14.12-2.78-1.4-3.09-2.93-.53-2.57-.93-5.18-1.31-7.78a16.18,16.18,0,0,1,2.34-11,19.23,19.23,0,0,0,2.34-6.21,11.49,11.49,0,0,0-.52-5.15A6.61,6.61,0,0,1,503.09,259.59Z"/><path d="M402.37,268.3c.43.63.89,1.24,1.27,1.89a36,36,0,0,1,4,26.53c-.39,1.78-.84,2.44-3,4.59a10,10,0,0,1-3.7-4.75,24.52,24.52,0,0,1-.57-14.58c.24-1,.54-2,.84-3A23.07,23.07,0,0,0,402.37,268.3Z"/><path d="M451.48,292.41c-4.6-9.62-1.94-18.6,1.4-27.76a6.33,6.33,0,0,1,2.25,4.06,34.71,34.71,0,0,1-1.93,21.1,11.84,11.84,0,0,1-.91,1.68A8.88,8.88,0,0,1,451.48,292.41Z"/><path d="M247.22,45.81c-3.65-2.11-7.34-4.15-10.93-6.37A3.73,3.73,0,0,1,235.1,34a61.76,61.76,0,0,1,9.26-11.26c1.8-1.75,3.84-1.12,4.53,1.36a56.72,56.72,0,0,1,1.21,6.1c.44,2.74.79,5.49,1.23,8.57l-6-1.94c.85,3.2,1.57,5.93,2.29,8.66Z"/></svg>